ArgentumSans[wght].glyphspackage
{
glyphname = exclam;
layers = (
{
layerId = "E8FC7CDB-EB64-4B8C-83EE-9B2B76976C4E";
shapes = (
{
closed = 1;
nodes = (
(80,1034,l),
(160,516,l),
(428,516,l),
(508,1034,l),
(508,1402,l),
(80,1402,l)
);
},
{
closed = 1;
nodes = (
(174,394,o),
(90,310,o),
(90,190,cs),
(90,68,o),
(174,-16,o),
(294,-16,cs),
(416,-16,o),
(500,68,o),
(500,190,cs),
(500,310,o),
(416,394,o),
(294,394,cs)
);
}
);
width = 588;
},
{
layerId = "17E3EB7E-1F08-45A4-8E6B-D8F983509A13";
shapes = (
{
closed = 1;
nodes = (
(100,1038,l),
(138,440,l),
(282,440,l),
(320,1038,l),
(320,1382,l),
(100,1382,l)
);
},
{
closed = 1;
nodes = (
(138,236,o),
(84,184,o),
(84,110,cs),
(84,36,o),
(138,-18,o),
(210,-18,cs),
(282,-18,o),
(336,36,o),
(336,110,cs),
(336,184,o),
(282,236,o),
(210,236,cs)
);
}
);
width = 420;
},
{
layerId = "59F18BB4-F2E3-4803-AEEB-FBD371085F85";
shapes = (
{
closed = 1;
nodes = (
(172,1040,l),
(172,376,l),
(212,376,l),
(212,1040,l),
(212,1364,l),
(172,1364,l)
);
},
{
closed = 1;
nodes = (
(164,90,o),
(140,66,o),
(140,38,cs),
(140,10,o),
(164,-14,o),
(192,-14,cs),
(220,-14,o),
(244,10,o),
(244,38,cs),
(244,66,o),
(220,90,o),
(192,90,cs)
);
}
);
width = 384;
}
);
leftKerningGroup = exclam;
rightKerningGroup = exclam;
unicode = 33;
}
{
glyphname = numbersign;
layers = (
{
layerId = "7132A246-D2BE-45EF-90A2-0D7A42C907F4";
shapes = (
{
closed = 1;
nodes = (
(8,276,l),
(1376,276,l),
(1414,582,l),
(46,582,l)
);
},
{
closed = 1;
nodes = (
(76,800,l),
(1444,800,l),
(1480,1106,l),
(112,1106,l)
);
},
{
closed = 1;
nodes = (
(234,0,l),
(554,0,l),
(726,1400,l),
(408,1400,l)
);
},
{
closed = 1;
nodes = (
(762,0,l),
(1082,0,l),
(1256,1400,l),
(936,1400,l)
);
}
);
width = 1488;
},
{
layerId = "D0849346-794E-4F15-8942-BE6C34F6B6A6";
shapes = (
{
closed = 1;
nodes = (
(54,352,l),
(1312,352,l),
(1328,514,l),
(70,514,l)
);
},
{
closed = 1;
nodes = (
(120,874,l),
(1378,874,l),
(1392,1036,l),
(136,1036,l)
);
},
{
closed = 1;
nodes = (
(292,0,l),
(460,0,l),
(634,1400,l),
(464,1400,l)
);
},
{
closed = 1;
nodes = (
(816,0,l),
(984,0,l),
(1158,1400,l),
(988,1400,l)
);
}
);
width = 1450;
},
{
layerId = "A37310BC-51AC-4F96-8729-E7F4F8535551";
shapes = (
{
closed = 1;
nodes = (
(94,416,l),
(1256,416,l),
(1254,456,l),
(92,456,l)
);
},
{
closed = 1;
nodes = (
(158,938,l),
(1320,938,l),
(1318,978,l),
(156,978,l)
);
},
{
closed = 1;
nodes = (
(340,0,l),
(380,0,l),
(552,1400,l),
(512,1400,l)
);
},
{
closed = 1;
nodes = (
(862,0,l),
(902,0,l),
(1074,1400,l),
(1034,1400,l)
);
}
);
width = 1416;
}
);
leftKerningGroup = numbersign;
rightKerningGroup = numbersign;
unicode = 35;
}
{
glyphname = dollar;
layers = (
{
layerId = "3FDA15A3-2E5D-4DE0-8D90-0C5D946D3754";
shapes = (
{
closed = 1;
nodes = (
(526,1158,l),
(858,1158,l),
(858,1728,l),
(526,1728,l)
);
},
{
closed = 1;
nodes = (
(526,-330,l),
(858,-330,l),
(858,236,l),
(526,236,l)
);
},
{
closed = 1;
nodes = (
(1316,1268,l),
(1158,1368,o),
(929,1436,o),
(707,1436,cs),
(343,1436,o),
(108,1258,o),
(108,975,cs),
(108,473,o),
(833,597,o),
(833,407,cs),
(833,353,o),
(789,330,o),
(721,330,cs),
(579,330,o),
(332,427,o),
(188,551,c),
(16,202,l),
(202,58,o),
(473,-26,o),
(717,-26,cs),
(1032,-26,o),
(1306,116,o),
(1306,431,cs),
(1306,947,o),
(581,833,o),
(581,1018,cs),
(581,1062,o),
(615,1080,o),
(667,1080,cs),
(789,1080,o),
(1006,997,o),
(1148,915,c)
);
}
);
width = 1328;
},
{
layerId = "9BB73D9E-E1CF-483B-8FF3-2862F5B712F7";
shapes = (
{
closed = 1;
nodes = (
(550,1266,l),
(726,1266,l),
(726,1662,l),
(550,1662,l)
);
},
{
closed = 1;
nodes = (
(550,-280,l),
(726,-280,l),
(726,142,l),
(550,142,l)
);
},
{
closed = 1;
nodes = (
(1134,1274,l),
(992,1368,o),
(814,1418,o),
(644,1418,cs),
(404,1418,o),
(134,1310,o),
(134,1030,cs),
(134,526,o),
(890,706,o),
(890,380,cs),
(890,238,o),
(744,198,o),
(628,198,cs),
(454,198,o),
(278,288,o),
(154,404,c),
(52,210,l),
(206,68,o),
(414,-14,o),
(624,-14,cs),
(874,-14,o),
(1152,104,o),
(1152,392,cs),
(1152,900,o),
(398,730,o),
(398,1048,cs),
(398,1170,o),
(526,1204,o),
(626,1204,cs),
(768,1204,o),
(916,1150,o),
(1036,1076,c)
);
}
);
width = 1244;
},
{
layerId = "60C6F403-B830-40DC-BC91-C1CD2FDD7472";
shapes = (
{
closed = 1;
nodes = (
(560,1374,l),
(600,1374,l),
(600,1608,l),
(560,1608,l)
);
},
{
closed = 1;
nodes = (
(560,-238,l),
(600,-238,l),
(600,22,l),
(560,22,l)
);
},
{
closed = 1;
nodes = (
(978,1306,l),
(874,1372,o),
(730,1408,o),
(604,1408,cs),
(410,1408,o),
(158,1330,o),
(158,1096,cs),
(158,580,o),
(996,826,o),
(996,338,cs),
(996,108,o),
(752,34,o),
(560,34,cs),
(398,34,o),
(222,100,o),
(110,220,c),
(82,192,l),
(202,68,o),
(388,-6,o),
(560,-6,cs),
(776,-6,o),
(1036,82,o),
(1036,338,cs),
(1036,866,o),
(198,620,o),
(198,1094,cs),
(198,1304,o),
(434,1368,o),
(604,1368,cs),
(722,1368,o),
(860,1338,o),
(958,1274,c)
);
}
);
width = 1186;
}
);
leftKerningGroup = S;
rightKerningGroup = S;
unicode = 36;
}
{
glyphname = percent;
layers = (
{
layerId = "B026C813-5E74-43B8-9BDA-38360344913A";
shapes = (
{
closed = 1;
nodes = (
(286,1406,o),
(190,1270,o),
(190,1032,cs),
(190,790,o),
(286,658,o),
(456,658,cs),
(626,658,o),
(724,790,o),
(724,1032,cs),
(724,1270,o),
(626,1406,o),
(456,1406,cs)
);
},
{
closed = 1;
nodes = (
(604,1372,o),
(684,1252,o),
(684,1032,cs),
(684,812,o),
(604,694,o),
(456,694,cs),
(310,694,o),
(230,812,o),
(230,1032,cs),
(230,1252,o),
(310,1372,o),
(456,1372,cs)
);
},
{
closed = 1;
nodes = (
(286,0,l),
(338,0,l),
(1414,1398,l),
(1362,1398,l)
);
},
{
closed = 1;
nodes = (
(1090,740,o),
(994,604,o),
(994,366,cs),
(994,124,o),
(1090,-8,o),
(1260,-8,cs),
(1430,-8,o),
(1528,124,o),
(1528,366,cs),
(1528,604,o),
(1430,740,o),
(1260,740,cs)
);
},
{
closed = 1;
nodes = (
(1408,706,o),
(1488,586,o),
(1488,366,cs),
(1488,146,o),
(1408,28,o),
(1260,28,cs),
(1114,28,o),
(1034,146,o),
(1034,366,cs),
(1034,586,o),
(1114,706,o),
(1260,706,cs)
);
}
);
width = 1716;
},
{
layerId = "ED22C04F-3B1D-41D7-8242-D57D8DACD8E1";
shapes = (
{
closed = 1;
nodes = (
(188,1410,o),
(48,1256,o),
(48,1022,cs),
(48,786,o),
(188,630,o),
(398,630,cs),
(606,630,o),
(744,786,o),
(744,1022,cs),
(744,1256,o),
(606,1410,o),
(398,1410,cs)
);
},
{
closed = 1;
nodes = (
(442,1180,o),
(476,1114,o),
(476,1022,cs),
(476,924,o),
(442,862,o),
(398,862,cs),
(352,862,o),
(320,924,o),
(320,1022,cs),
(320,1114,o),
(352,1180,o),
(398,1180,cs)
);
},
{
closed = 1;
nodes = (
(260,0,l),
(558,0,l),
(1532,1402,l),
(1234,1402,l)
);
},
{
closed = 1;
nodes = (
(1210,770,o),
(1070,616,o),
(1070,382,cs),
(1070,146,o),
(1210,-10,o),
(1420,-10,cs),
(1628,-10,o),
(1766,146,o),
(1766,382,cs),
(1766,616,o),
(1628,770,o),
(1420,770,cs)
);
},
{
closed = 1;
nodes = (
(1464,540,o),
(1498,474,o),
(1498,382,cs),
(1498,284,o),
(1464,222,o),
(1420,222,cs),
(1374,222,o),
(1342,284,o),
(1342,382,cs),
(1342,474,o),
(1374,540,o),
(1420,540,cs)
);
}
);
width = 1816;
},
{
layerId = "6620CA85-00CC-482E-8046-24C727E4DEBF";
shapes = (
{
closed = 1;
nodes = (
(230,1410,o),
(114,1268,o),
(114,1034,cs),
(114,798,o),
(230,656,o),
(418,656,cs),
(606,656,o),
(722,798,o),
(722,1034,cs),
(722,1268,o),
(606,1410,o),
(418,1410,cs)
);
},
{
closed = 1;
nodes = (
(514,1284,o),
(572,1190,o),
(572,1034,cs),
(572,872,o),
(514,782,o),
(418,782,cs),
(322,782,o),
(266,872,o),
(266,1034,cs),
(266,1190,o),
(322,1284,o),
(418,1284,cs)
);
},
{
closed = 1;
nodes = (
(260,0,l),
(442,0,l),
(1470,1400,l),
(1290,1400,l)
);
},
{
closed = 1;
nodes = (
(1130,750,o),
(1014,608,o),
(1014,374,cs),
(1014,138,o),
(1130,-4,o),
(1318,-4,cs),
(1506,-4,o),
(1622,138,o),
(1622,374,cs),
(1622,608,o),
(1506,750,o),
(1318,750,cs)
);
},
{
closed = 1;
nodes = (
(1414,624,o),
(1472,530,o),
(1472,374,cs),
(1472,212,o),
(1414,122,o),
(1318,122,cs),
(1222,122,o),
(1166,212,o),
(1166,374,cs),
(1166,530,o),
(1222,624,o),
(1318,624,cs)
);
}
);
width = 1736;
}
);
leftKerningGroup = percent;
rightKerningGroup = percent;
unicode = 37;
}
{
color = 3;
glyphname = ampersand;
layers = (
{
anchors = (
{
name = bottomright;
position = "{1072, 0}";
},
{
name = top;
position = "{636, 1400}";
}
);
background = {
shapes = (
{
closed = 1;
nodes = (
(1068,-32,o),
(1402,262,o),
(1494,676,c),
(1132,784,l),
(1078,482,o),
(884,304,o),
(670,304,cs),
(558,304,o),
(494,358,o),
(494,424,cs),
(494,510,o),
(556,570,o),
(718,632,cs),
(1020,748,o),
(1164,876,o),
(1164,1070,cs),
(1164,1286,o),
(978,1424,o),
(704,1424,cs),
(406,1424,o),
(212,1270,o),
(212,1046,cs),
(212,928,o),
(272,814,o),
(404,702,cs),
(1252,-26,l),
(1494,248,l),
(758,874,ls),
(640,974,o),
(614,1006,o),
(614,1052,cs),
(614,1098,o),
(648,1132,o),
(710,1132,cs),
(766,1132,o),
(794,1102,o),
(794,1060,cs),
(794,1004,o),
(732,948,o),
(532,872,cs),
(208,748,o),
(60,606,o),
(60,374,cs),
(60,140,o),
(304,-32,o),
(636,-32,cs)
);
}
);
};
layerId = "6D4C632D-5FF3-432A-8199-1F9B3F2CB990";
shapes = (
{
closed = 1;
nodes = (
(1252,-26,l),
(1494,248,l),
(588,1136,l),
(486,1034,l),
(1190,1034,l),
(1190,1400,l),
(124,1400,l),
(124,1080,l)
);
},
{
closed = 1;
nodes = (
(584,888,l),
(532,872,ls),
(196,768,o),
(52,606,o),
(52,374,cs),
(52,140,o),
(300,-32,o),
(636,-32,cs),
(1068,-32,o),
(1402,262,o),
(1494,676,c),
(1132,784,l),
(1078,482,o),
(884,304,o),
(670,304,cs),
(558,304,o),
(494,358,o),
(494,424,cs),
(494,510,o),
(554,572,o),
(718,632,cs),
(762,648,l)
);
}
);
width = 1554;
},
{
anchors = (
{
name = _bottomleft;
position = "{208, 0}";
},
{
name = bottomleft;
position = "{208, 0}";
},
{
name = bottomright;
position = "{984, 0}";
},
{
name = top;
position = "{658, 1400}";
}
);
layerId = "6B80B6C1-47AF-41BF-A29C-E15F80EDEA88";
shapes = (
{
closed = 1;
nodes = (
(1236,-22,l),
(1358,124,l),
(366,1258,l),
(312,1202,l),
(1074,1202,l),
(1076,1400,l),
(142,1400,l),
(142,1240,l)
);
},
{
closed = 1;
nodes = (
(564,854,l),
(510,828,ls),
(206,682,o),
(86,546,o),
(86,350,cs),
(86,134,o),
(296,-18,o),
(586,-18,cs),
(950,-18,o),
(1218,218,o),
(1300,622,c),
(1122,680,l),
(1058,338,o),
(862,166,o),
(600,166,cs),
(420,166,o),
(302,250,o),
(302,374,cs),
(302,492,o),
(374,572,o),
(606,692,cs),
(664,722,l)
);
}
);
width = 1392;
},
{
anchors = (
{
name = _bottomleft;
position = "{174, 0}";
},
{
name = bottomleft;
position = "{174, 0}";
},
{
name = bottomright;
position = "{814, 0}";
},
{
name = top;
position = "{576, 1400}";
}
);
background = {
shapes = (
{
closed = 1;
nodes = (
(860,-6,o),
(1074,176,o),
(1150,572,c),
(1116,580,l),
(1044,204,o),
(844,28,o),
(546,28,cs),
(314,28,o),
(152,150,o),
(152,336,cs),
(152,482,o),
(234,586,o),
(520,758,cs),
(796,924,o),
(882,1016,o),
(882,1156,cs),
(882,1312,o),
(772,1406,o),
(600,1406,cs),
(414,1406,o),
(298,1298,o),
(298,1136,cs),
(298,1030,o),
(332,954,o),
(474,800,cs),
(1208,-2,l),
(1258,2,l),
(510,818,ls),
(372,970,o),
(338,1040,o),
(338,1136,cs),
(338,1274,o),
(434,1368,o),
(600,1368,cs),
(756,1368,o),
(844,1284,o),
(844,1156,cs),
(844,1024,o),
(760,944,o),
(494,786,cs),
(206,614,o),
(112,490,o),
(112,336,cs),
(112,130,o),
(292,-6,o),
(546,-6,cs)
);
}
);
};
layerId = "530FD3FD-5444-46AA-B51A-11B2B68AE76D";
shapes = (
{
closed = 1;
nodes = (
(1224,-20,l),
(1254,6,l),
(204,1380,l),
(186,1362,l),
(1006,1362,l),
(1006,1400,l),
(164,1400,l),
(164,1372,l)
);
},
{
closed = 1;
nodes = (
(578,836,l),
(494,786,ls),
(204,614,o),
(112,490,o),
(112,336,cs),
(112,130,o),
(292,-6,o),
(546,-6,cs),
(860,-6,o),
(1074,176,o),
(1150,572,c),
(1116,580,l),
(1044,204,o),
(844,28,o),
(546,28,cs),
(314,28,o),
(152,150,o),
(152,336,cs),
(152,482,o),
(236,580,o),
(520,758,cs),
(600,808,l)
);
}
);
width = 1268;
}
);
unicode = 38;
}
{
glyphname = quotesingle;
layers = (
{
layerId = "7132A246-D2BE-45EF-90A2-0D7A42C907F4";
shapes = (
{
closed = 1;
nodes = (
(120,796,l),
(456,796,l),
(456,1400,l),
(120,1400,l)
);
}
);
width = 576;
},
{
layerId = "D0849346-794E-4F15-8942-BE6C34F6B6A6";
shapes = (
{
closed = 1;
nodes = (
(120,916,l),
(296,916,l),
(296,1400,l),
(120,1400,l)
);
}
);
width = 416;
},
{
layerId = "A37310BC-51AC-4F96-8729-E7F4F8535551";
shapes = (
{
closed = 1;
nodes = (
(120,1020,l),
(160,1020,l),
(160,1400,l),
(120,1400,l)
);
}
);
width = 280;
}
);
leftKerningGroup = quotesingle;
rightKerningGroup = quotesingle;
unicode = 39;
}
{
glyphname = parenleft;
layers = (
{
layerId = "E8FC7CDB-EB64-4B8C-83EE-9B2B76976C4E";
shapes = (
{
closed = 1;
nodes = (
(360,1484,l),
(188,1244,o),
(94,938,o),
(94,618,cs),
(94,298,o),
(188,-8,o),
(360,-248,c),
(762,-248,l),
(616,-8,o),
(516,298,o),
(516,618,cs),
(516,938,o),
(616,1244,o),
(762,1484,c)
);
}
);
width = 740;
},
{
layerId = "17E3EB7E-1F08-45A4-8E6B-D8F983509A13";
shapes = (
{
closed = 1;
nodes = (
(384,1484,l),
(226,1256,o),
(140,950,o),
(140,618,cs),
(140,286,o),
(226,-20,o),
(384,-248,c),
(592,-248,l),
(446,-20,o),
(356,286,o),
(356,618,cs),
(356,950,o),
(446,1256,o),
(592,1484,c)
);
}
);
width = 624;
},
{
layerId = "59F18BB4-F2E3-4803-AEEB-FBD371085F85";
shapes = (
{
closed = 1;
nodes = (
(432,1484,l),
(286,1266,o),
(206,960,o),
(206,618,cs),
(206,276,o),
(286,-30,o),
(432,-248,c),
(472,-248,l),
(326,-30,o),
(246,276,o),
(246,618,cs),
(246,960,o),
(326,1266,o),
(472,1484,c)
);
}
);
width = 552;
}
);
leftKerningGroup = parenleft;
rightKerningGroup = parenleft;
unicode = 40;
}
{
glyphname = parenright;
layers = (
{
layerId = "530FD3FD-5444-46AA-B51A-11B2B68AE76D";
shapes = (
{
closed = 1;
nodes = (
(120,1484,l),
(266,1266,o),
(346,960,o),
(346,618,cs),
(346,276,o),
(266,-30,o),
(120,-248,c),
(80,-248,l),
(226,-30,o),
(306,276,o),
(306,618,cs),
(306,960,o),
(226,1266,o),
(80,1484,c)
);
}
);
width = 552;
},
{
layerId = "6D4C632D-5FF3-432A-8199-1F9B3F2CB990";
shapes = (
{
closed = 1;
nodes = (
(380,1484,l),
(552,1244,o),
(646,938,o),
(646,618,cs),
(646,298,o),
(552,-8,o),
(380,-248,c),
(-22,-248,l),
(124,-8,o),
(224,298,o),
(224,618,cs),
(224,938,o),
(124,1244,o),
(-22,1484,c)
);
}
);
width = 740;
},
{
layerId = "6B80B6C1-47AF-41BF-A29C-E15F80EDEA88";
shapes = (
{
closed = 1;
nodes = (
(240,1484,l),
(398,1256,o),
(484,950,o),
(484,618,cs),
(484,286,o),
(398,-20,o),
(240,-248,c),
(32,-248,l),
(178,-20,o),
(268,286,o),
(268,618,cs),
(268,950,o),
(178,1256,o),
(32,1484,c)
);
}
);
width = 624;
}
);
leftKerningGroup = parenright;
rightKerningGroup = parenright;
unicode = 41;
}
{
glyphname = asterisk;
layers = (
{
layerId = "E8FC7CDB-EB64-4B8C-83EE-9B2B76976C4E";
shapes = (
{
closed = 1;
nodes = (
(300,1260,l),
(150,1354,l),
(40,1160,l),
(196,1078,l),
(40,992,l),
(150,804,l),
(302,896,l),
(296,718,l),
(516,718,l),
(510,894,l),
(662,800,l),
(772,992,l),
(614,1078,l),
(772,1160,l),
(662,1350,l),
(512,1260,l),
(516,1436,l),
(296,1436,l)
);
}
);
width = 812;
},
{
layerId = "17E3EB7E-1F08-45A4-8E6B-D8F983509A13";
shapes = (
{
closed = 1;
nodes = (
(290,1234,l),
(112,1342,l),
(50,1234,l),
(230,1132,l),
(50,1030,l),
(112,926,l),
(290,1032,l),
(288,824,l),
(408,824,l),
(406,1030,l),
(584,924,l),
(644,1030,l),
(464,1132,l),
(644,1234,l),
(584,1340,l),
(406,1234,l),
(408,1442,l),
(288,1442,l)
);
}
);
width = 696;
},
{
layerId = "59F18BB4-F2E3-4803-AEEB-FBD371085F85";
shapes = (
{
closed = 1;
nodes = (
(280,1212,l),
(78,1330,l),
(60,1296,l),
(260,1180,l),
(60,1064,l),
(78,1030,l),
(280,1148,l),
(280,914,l),
(316,914,l),
(316,1148,l),
(518,1030,l),
(536,1064,l),
(334,1180,l),
(536,1296,l),
(518,1330,l),
(316,1212,l),
(316,1446,l),
(280,1446,l)
);
}
);
width = 596;
}
);
leftKerningGroup = asterisk;
rightKerningGroup = asterisk;
unicode = 42;
}
{
glyphname = plus;
layers = (
{
layerId = "E8FC7CDB-EB64-4B8C-83EE-9B2B76976C4E";
shapes = (
{
closed = 1;
nodes = (
(60,518,l),
(980,518,l),
(980,798,l),
(60,798,l)
);
},
{
closed = 1;
nodes = (
(380,198,l),
(660,198,l),
(660,1118,l),
(380,1118,l)
);
}
);
width = 1040;
},
{
layerId = "17E3EB7E-1F08-45A4-8E6B-D8F983509A13";
shapes = (
{
closed = 1;
nodes = (
(70,572,l),
(926,572,l),
(926,724,l),
(70,724,l)
);
},
{
closed = 1;
nodes = (
(424,220,l),
(574,220,l),
(574,1076,l),
(424,1076,l)
);
}
);
width = 996;
},
{
layerId = "59F18BB4-F2E3-4803-AEEB-FBD371085F85";
shapes = (
{
closed = 1;
nodes = (
(80,620,l),
(880,620,l),
(880,660,l),
(80,660,l)
);
},
{
closed = 1;
nodes = (
(460,240,l),
(500,240,l),
(500,1040,l),
(460,1040,l)
);
}
);
width = 960;
}
);
leftKerningGroup = hyphen;
rightKerningGroup = hyphen;
unicode = 43;
}
{
glyphname = comma;
layers = (
{
layerId = "530FD3FD-5444-46AA-B51A-11B2B68AE76D";
shapes = (
{
closed = 1;
nodes = (
(270,8,l),
(186,-240,l),
(226,-240,l),
(312,-14,ls),
(320,6,o),
(326,20,o),
(326,38,cs),
(326,66,o),
(302,90,o),
(274,90,cs),
(246,90,o),
(222,66,o),
(222,38,cs),
(222,10,o),
(246,-14,o),
(274,-14,c)
);
}
);
width = 540;
},
{
layerId = "6D4C632D-5FF3-432A-8199-1F9B3F2CB990";
shapes = (
{
closed = 1;
nodes = (
(208,192,l),
(20,-260,l),
(228,-260,l),
(422,32,ls),
(452,78,o),
(476,130,o),
(476,192,cs),
(476,324,o),
(380,394,o),
(272,394,cs),
(152,394,o),
(66,310,o),
(66,190,cs),
(66,76,o),
(148,-20,o),
(336,-12,c)
);
}
);
width = 540;
},
{
layerId = "6B80B6C1-47AF-41BF-A29C-E15F80EDEA88";
shapes = (
{
closed = 1;
nodes = (
(240,92,l),
(128,-220,l),
(246,-220,l),
(360,8,ls),
(376,40,o),
(394,70,o),
(394,108,cs),
(394,186,o),
(336,230,o),
(272,230,cs),
(200,230,o),
(148,180,o),
(148,108,cs),
(148,42,o),
(194,-14,o),
(294,-14,c)
);
}
);
width = 540;
}
);
leftKerningGroup = period;
rightKerningGroup = period;
unicode = 44;
}
{
glyphname = hyphen;
layers = (
{
layerId = "3FDA15A3-2E5D-4DE0-8D90-0C5D946D3754";
shapes = (
{
closed = 1;
nodes = (
(100,478,l),
(660,478,l),
(660,758,l),
(100,758,l)
);
}
);
width = 760;
},
{
layerId = "9BB73D9E-E1CF-483B-8FF3-2862F5B712F7";
shapes = (
{
closed = 1;
nodes = (
(122,532,l),
(614,532,l),
(614,684,l),
(122,684,l)
);
}
);
width = 736;
},
{
layerId = "60C6F403-B830-40DC-BC91-C1CD2FDD7472";
shapes = (
{
closed = 1;
nodes = (
(140,580,l),
(574,580,l),
(574,620,l),
(140,620,l)
);
}
);
width = 714;
}
);
leftKerningGroup = hyphen;
rightKerningGroup = hyphen;
unicode = 45;
}
{
glyphname = period;
layers = (
{
layerId = "530FD3FD-5444-46AA-B51A-11B2B68AE76D";
shapes = (
{
closed = 1;
nodes = (
(242,90,o),
(218,66,o),
(218,38,cs),
(218,10,o),
(242,-14,o),
(270,-14,cs),
(298,-14,o),
(322,10,o),
(322,38,cs),
(322,66,o),
(298,90,o),
(270,90,cs)
);
}
);
width = 540;
},
{
layerId = "6D4C632D-5FF3-432A-8199-1F9B3F2CB990";
shapes = (
{
closed = 1;
nodes = (
(148,394,o),
(64,310,o),
(64,190,cs),
(64,68,o),
(148,-16,o),
(268,-16,cs),
(390,-16,o),
(474,68,o),
(474,190,cs),
(474,310,o),
(390,394,o),
(268,394,cs)
);
}
);
width = 540;
},
{
layerId = "6B80B6C1-47AF-41BF-A29C-E15F80EDEA88";
shapes = (
{
closed = 1;
nodes = (
(200,236,o),
(146,184,o),
(146,110,cs),
(146,36,o),
(200,-18,o),
(272,-18,cs),
(344,-18,o),
(398,36,o),
(398,110,cs),
(398,184,o),
(344,236,o),
(272,236,cs)
);
}
);
width = 540;
}
);
leftKerningGroup = period;
rightKerningGroup = period;
unicode = 46;
}
{
glyphname = slash;
layers = (
{
layerId = "E8FC7CDB-EB64-4B8C-83EE-9B2B76976C4E";
shapes = (
{
closed = 1;
nodes = (
(-100,-208,l),
(276,-208,l),
(934,1612,l),
(558,1612,l)
);
}
);
width = 746;
},
{
layerId = "17E3EB7E-1F08-45A4-8E6B-D8F983509A13";
shapes = (
{
closed = 1;
nodes = (
(-42,-236,l),
(154,-236,l),
(788,1634,l),
(592,1634,l)
);
}
);
width = 662;
},
{
layerId = "59F18BB4-F2E3-4803-AEEB-FBD371085F85";
shapes = (
{
closed = 1;
nodes = (
(8,-260,l),
(50,-260,l),
(662,1652,l),
(620,1652,l)
);
}
);
width = 588;
}
);
leftKerningGroup = slash;
rightKerningGroup = slash;
unicode = 47;
}
{
glyphname = zero;
layers = (
{
layerId = "8F4E32AC-E022-4D39-97B2-6A8CA1DCECD9";
shapes = (
{
closed = 1;
nodes = (
(494,1416,o),
(278,1322,o),
(131,1141,o),
(56,875,o),
(56,703,qs),
(56,530,o),
(131,263,o),
(278,80,o),
(494,-14,o),
(634,-14,qs),
(774,-14,o),
(989,80,o),
(1136,263,o),
(1212,530,o),
(1212,702,qs),
(1212,875,o),
(1136,1141,o),
(989,1322,o),
(774,1416,o),
(634,1416,qs)
);
},
{
closed = 1;
nodes = (
(666,1078,o),
(707,1040,o),
(731,953,o),
(740,809,o),
(740,702,qs),
(740,596,o),
(731,451,o),
(707,362,o),
(666,324,o),
(634,324,qs),
(602,324,o),
(561,362,o),
(537,451,o),
(528,596,o),
(528,702,qs),
(528,809,o),
(537,953,o),
(561,1040,o),
(602,1078,o),
(634,1078,qs)
);
}
);
width = 1268;
},
{
layerId = "A0A167AB-9D0E-40C0-91B8-4D2A22A7768E";
shapes = (
{
closed = 1;
nodes = (
(505,1410,o),
(303,1316,o),
(165,1136,o),
(94,871,o),
(94,700,qs),
(94,529,o),
(165,264,o),
(303,84,o),
(505,-10,o),
(636,-10,qs),
(767,-10,o),
(968,84,o),
(1105,264,o),
(1176,529,o),
(1176,700,qs),
(1176,871,o),
(1105,1136,o),
(968,1316,o),
(767,1410,o),
(636,1410,qs)
);
},
{
closed = 1;
nodes = (
(710,1232,o),
(821,1167,o),
(894,1035,o),
(930,835,o),
(930,700,qs),
(930,566,o),
(894,366,o),
(821,234,o),
(710,168,o),
(636,168,qs),
(562,168,o),
(451,234,o),
(377,366,o),
(340,566,o),
(340,700,qs),
(340,835,o),
(377,1035,o),
(451,1167,o),
(562,1232,o),
(636,1232,qs)
);
}
);
width = 1268;
},
{
layerId = "4D1A9A15-4E4F-4ADE-8E9B-C4DB08FE4288";
shapes = (
{
closed = 1;
nodes = (
(506,1402,o),
(311,1309,o),
(177,1130,o),
(108,869,o),
(108,700,qs),
(108,531,o),
(177,268,o),
(311,89,o),
(506,-4,o),
(632,-4,qs),
(760,-4,o),
(956,89,o),
(1091,268,o),
(1160,531,o),
(1160,700,qs),
(1160,869,o),
(1091,1130,o),
(956,1309,o),
(760,1402,o),
(632,1402,qs)
);
},
{
closed = 1;
nodes = (
(750,1362,o),
(932,1275,o),
(1056,1107,o),
(1120,860,o),
(1120,700,qs),
(1120,540,o),
(1056,293,o),
(932,124,o),
(750,36,o),
(632,36,qs),
(515,36,o),
(335,124,o),
(212,293,o),
(148,540,o),
(148,700,qs),
(148,860,o),
(212,1107,o),
(335,1275,o),
(515,1362,o),
(632,1362,qs)
);
}
);
width = 1268;
}
);
leftKerningGroup = zero;
rightKerningGroup = zero;
unicode = 48;
}
{
glyphname = one;
layers = (
{
layerId = "B026C813-5E74-43B8-9BDA-38360344913A";
shapes = (
{
closed = 1;
nodes = (
(250,38,l),
(250,0,l),
(1088,0,l),
(1088,38,l)
);
},
{
closed = 1;
nodes = (
(660,1400,l),
(607,1360,o),
(491,1224,o),
(338,1187,c),
(338,1143,l),
(481,1181,o),
(592,1284,o),
(657,1334,c),
(667,1334,l),
(668,0,l),
(707,0,l),
(707,1400,l)
);
}
);
width = 1268;
},
{
layerId = "ED22C04F-3B1D-41D7-8242-D57D8DACD8E1";
shapes = (
{
closed = 1;
nodes = (
(153,360,l),
(153,0,l),
(1177,0,l),
(1177,360,l)
);
},
{
closed = 1;
nodes = (
(482,1400,l),
(422,1287,o),
(286,1195,o),
(144,1156,c),
(144,805,l),
(276,837,o),
(381,895,o),
(456,954,c),
(468,954,l),
(468,0,l),
(901,0,l),
(901,1400,l)
);
}
);
width = 1268;
},
{
layerId = "6620CA85-00CC-482E-8046-24C727E4DEBF";
shapes = (
{
closed = 1;
nodes = (
(216,198,l),
(216,0,l),
(1120,0,l),
(1120,198,l)
);
},
{
closed = 1;
nodes = (
(596,1399,l),
(530,1343,o),
(410,1206,o),
(230,1164,c),
(230,972,l),
(377,1012,o),
(503,1083,o),
(575,1144,c),
(585,1144,l),
(585,-1,l),
(800,-1,l),
(800,1399,l)
);
}
);
width = 1268;
}
);
leftKerningGroup = one;
rightKerningGroup = one;
unicode = 49;
}
{
glyphname = two;
layers = (
{
layerId = "8F4E32AC-E022-4D39-97B2-6A8CA1DCECD9";
shapes = (
{
closed = 1;
nodes = (
(88,292,l),
(88,0,l),
(1186,0,l),
(1186,356,l),
(474,356,l),
(534,214,l),
(892,570,ls),
(951,629,o),
(1051,746,o),
(1124,865,o),
(1166,985,o),
(1166,1046,qs),
(1166,1131,o),
(1088,1270,o),
(952,1369,o),
(766,1424,o),
(658,1424,qs),
(576,1424,o),
(416,1394,o),
(260,1338,o),
(107,1257,o),
(32,1206,q),
(204,872,l),
(255,913,o),
(357,980,o),
(455,1027,o),
(546,1052,o),
(586,1052,qs),
(609,1052,o),
(644,1042,o),
(668,1024,o),
(680,996,o),
(680,978,qs),
(680,960,o),
(663,917,o),
(635,870,o),
(597,823,o),
(576,800,q)
);
}
);
width = 1268;
},
{
layerId = "A0A167AB-9D0E-40C0-91B8-4D2A22A7768E";
shapes = (
{
closed = 1;
nodes = (
(126,166,l),
(126,0,l),
(1190,0,l),
(1190,186,l),
(314,186,l),
(344,112,l),
(844,602,ls),
(904,661,o),
(1004,781,o),
(1076,898,o),
(1116,1012,o),
(1116,1064,qs),
(1116,1144,o),
(1047,1273,o),
(921,1364,o),
(746,1414,o),
(640,1414,qs),
(569,1414,o),
(427,1386,o),
(291,1335,o),
(161,1261,o),
(102,1214,q),
(196,1046,l),
(243,1087,o),
(347,1151,o),
(453,1196,o),
(559,1220,o),
(608,1220,qs),
(669,1220,o),
(766,1194,o),
(834,1146,o),
(870,1076,o),
(870,1032,qs),
(870,1001,o),
(843,928,o),
(793,847,o),
(724,763,o),
(682,722,qs)
);
}
);
width = 1268;
},
{
layerId = "4D1A9A15-4E4F-4ADE-8E9B-C4DB08FE4288";
shapes = (
{
closed = 1;
nodes = (
(158,58,l),
(158,0,l),
(1192,0,l),
(1192,40,l),
(178,40,l),
(182,26,l),
(802,628,ls),
(864,688,o),
(964,810,o),
(1034,926,o),
(1072,1033,o),
(1072,1078,qs),
(1072,1154,o),
(1010,1275,o),
(895,1359,o),
(730,1404,o),
(626,1404,qs),
(564,1404,o),
(438,1379,o),
(318,1332,o),
(208,1265,o),
(162,1222,q),
(190,1194,l),
(234,1234,o),
(338,1297,o),
(451,1341,o),
(568,1364,o),
(626,1364,qs),
(721,1364,o),
(871,1325,o),
(976,1251,o),
(1032,1145,o),
(1032,1078,qs),
(1032,1037,o),
(996,937,o),
(929,828,o),
(833,713,o),
(774,656,qs)
);
}
);
width = 1268;
}
);
leftKerningGroup = two;
rightKerningGroup = two;
unicode = 50;
}
{
glyphname = three;
layers = (
{
anchors = (
{
name = top;
position = "{-480, 1400}";
}
);
layerId = "B026C813-5E74-43B8-9BDA-38360344913A";
shapes = (
{
closed = 1;
nodes = (
(450,790,l),
(595,790,ls),
(918,790,o),
(1032,863,o),
(1032,1070,cs),
(1032,1268,o),
(891,1376,o),
(632,1376,cs),
(495,1376,o),
(353,1332,o),
(272,1272,c),
(250,1303,l),
(336,1371,o),
(486,1414,o),
(643,1414,cs),
(915,1414,o),
(1072,1289,o),
(1072,1072,cs),
(1072,907,o),
(970,785,o),
(816,767,c),
(1010,735,o),
(1136,593,o),
(1136,406,cs),
(1136,162,o),
(927,-4,o),
(618,-4,cs),
(450,-4,o),
(270,43,o),
(168,114,c),
(192,146,l),
(293,79,o),
(460,36,o),
(618,36,cs),
(907,36,o),
(1096,185,o),
(1096,411,cs),
(1096,630,o),
(921,750,o),
(595,750,cs),
(450,750,l)
);
}
);
width = 1268;
},
{
anchors = (
{
name = bottom;
position = "{-586, 0}";
},
{
name = top;
position = "{-544, 1400}";
}
);
layerId = "ED22C04F-3B1D-41D7-8242-D57D8DACD8E1";
shapes = (
{
closed = 1;
nodes = (
(410,862,l),
(526,862,ls),
(652,862,o),
(704,894,o),
(704,971,cs),
(704,1039,o),
(646,1073,o),
(531,1073,cs),
(434,1073,o),
(325,1046,o),
(246,1003,c),
(105,1349,l),
(213,1403,o),
(379,1437,o),
(543,1437,cs),
(912,1437,o),
(1160,1268,o),
(1160,1016,cs),
(1160,901,o),
(1083,801,o),
(967,766,c),
(1106,717,o),
(1202,573,o),
(1202,415,cs),
(1202,161,o),
(960,-20,o),
(622,-20,cs),
(402,-20,o),
(168,54,o),
(36,166,c),
(200,476,l),
(299,383,o),
(452,322,o),
(587,322,cs),
(696,322,o),
(750,362,o),
(750,443,cs),
(750,528,o),
(676,570,o),
(526,570,cs),
(410,570,l)
);
}
);
width = 1268;
},
{
anchors = (
{
name = bottom;
position = "{-592, 0}";
},
{
name = top;
position = "{-558, 1400}";
}
);
layerId = "6620CA85-00CC-482E-8046-24C727E4DEBF";
shapes = (
{
closed = 1;
nodes = (
(434,834,l),
(588,834,ls),
(781,834,o),
(896,896,o),
(896,999,cs),
(896,1144,o),
(784,1226,o),
(587,1226,cs),
(486,1226,o),
(361,1196,o),
(262,1148,c),
(185,1332,l),
(315,1391,o),
(468,1425,o),
(609,1425,cs),
(910,1425,o),
(1128,1273,o),
(1128,1063,cs),
(1128,908,o),
(1038,782,o),
(904,749,c),
(1058,723,o),
(1158,595,o),
(1158,423,cs),
(1158,165,o),
(937,-10,o),
(613,-10,cs),
(422,-10,o),
(217,50,o),
(100,140,c),
(198,320,l),
(293,234,o),
(452,178,o),
(602,178,cs),
(801,178,o),
(928,277,o),
(928,431,cs),
(928,580,o),
(802,656,o),
(555,656,cs),
(434,656,l)
);
}
);
width = 1268;
}
);
leftKerningGroup = three;
rightKerningGroup = three;
unicode = 51;
}
{
glyphname = four;
layers = (
{
layerId = "8F4E32AC-E022-4D39-97B2-6A8CA1DCECD9";
shapes = (
{
closed = 1;
nodes = (
(1222,270,l),
(1222,602,l),
(1062,602,l),
(1062,1400,l),
(554,1400,l),
(44,572,l),
(44,270,l),
(642,270,l),
(642,0,l),
(1062,0,l),
(1062,270,l)
);
},
{
closed = 1;
nodes = (
(444,602,l),
(642,950,l),
(642,602,l)
);
}
);
width = 1268;
},
{
layerId = "A0A167AB-9D0E-40C0-91B8-4D2A22A7768E";
shapes = (
{
closed = 1;
nodes = (
(1192,348,l),
(1192,548,l),
(984,548,l),
(985,1400,l),
(708,1400,l),
(82,516,l),
(82,348,l),
(764,348,l),
(764,0,l),
(984,0,l),
(984,348,l)
);
},
{
closed = 1;
nodes = (
(346,548,l),
(765,1153,l),
(764,548,l)
);
}
);
width = 1268;
},
{
layerId = "4D1A9A15-4E4F-4ADE-8E9B-C4DB08FE4288";
shapes = (
{
closed = 1;
nodes = (
(1144,416,l),
(1144,456,l),
(902,456,l),
(902,1400,l),
(854,1400,l),
(128,466,l),
(128,416,l),
(862,416,l),
(862,0,l),
(902,0,l),
(902,416,l)
);
},
{
closed = 1;
nodes = (
(170,456,l),
(862,1351,l),
(862,456,l)
);
}
);
width = 1268;
}
);
leftKerningGroup = four;
rightKerningGroup = four;
unicode = 52;
}
{
glyphname = five;
layers = (
{
layerId = "530FD3FD-5444-46AA-B51A-11B2B68AE76D";
shapes = (
{
closed = 1;
nodes = (
(912,-6,o),
(1068,166,o),
(1068,392,cs),
(1068,628,o),
(931,794,o),
(547,794,cs),
(473,794,o),
(287,785,o),
(238,724,c),
(249,720,l),
(327,1361,l),
(1038,1361,l),
(1038,1401,l),
(292,1401,l),
(204,698,l),
(249,691,l),
(343,758,o),
(438,756,o),
(548,756,cs),
(910,756,o),
(1028,607,o),
(1028,392,cs),
(1028,184,o),
(890,32,o),
(602,32,cs),
(400,32,o),
(230,114,o),
(152,218,c),
(126,192,l),
(210,76,o),
(396,-6,o),
(602,-6,cs)
);
}
);
width = 1268;
},
{
guides = (
{
angle = 84.865;
position = "{602, 966}";
}
);
layerId = "6D4C632D-5FF3-432A-8199-1F9B3F2CB990";
shapes = (
{
closed = 1;
nodes = (
(1006,-32,o),
(1198,210,o),
(1198,460,cs),
(1198,708,o),
(1040,906,o),
(626,906,cs),
(518,906,o),
(402,886,o),
(294,846,c),
(491,730,l),
(512,1020,l),
(1108,1020,l),
(1108,1400,l),
(116,1400,l),
(70,589,l),
(318,537,l),
(383,546,o),
(448,550,o),
(512,550,cs),
(682,550,o),
(724,510,o),
(724,450,cs),
(724,378,o),
(646,340,o),
(540,340,cs),
(422,340,o),
(286,372,o),
(166,442,c),
(6,94,l),
(156,10,o),
(366,-32,o),
(558,-32,cs)
);
}
);
width = 1268;
},
{
layerId = "6B80B6C1-47AF-41BF-A29C-E15F80EDEA88";
shapes = (
{
closed = 1;
nodes = (
(962,-18,o),
(1138,180,o),
(1138,426,cs),
(1138,674,o),
(970,852,o),
(556,852,cs),
(464,852,o),
(366,832,o),
(274,792,c),
(397,789,l),
(445,1202,l),
(1067,1202,l),
(1067,1400,l),
(252,1400,l),
(168,647,l),
(380,615,l),
(394,635,o),
(474,655,o),
(568,655,cs),
(720,655,o),
(908,603,o),
(908,416,cs),
(908,274,o),
(792,186,o),
(594,186,cs),
(430,186,o),
(276,244,o),
(178,330,c),
(74,148,l),
(200,44,o),
(398,-18,o),
(596,-18,cs)
);
}
);
width = 1268;
}
);
leftKerningGroup = five;
rightKerningGroup = five;
unicode = 53;
}
{
glyphname = six;
layers = (
{
layerId = "8F4E32AC-E022-4D39-97B2-6A8CA1DCECD9";
shapes = (
{
closed = 1;
nodes = (
(1180,1300,l),
(1136,1329,o),
(1026,1374,o),
(904,1405,o),
(775,1422,o),
(712,1422,qs),
(562,1422,o),
(318,1317,o),
(144,1125,o),
(50,852,o),
(50,684,qs),
(50,523,o),
(135,262,o),
(294,79,o),
(522,-20,o),
(666,-20,qs),
(785,-20,o),
(981,49,o),
(1121,178,o),
(1198,360,o),
(1198,472,qs),
(1198,576,o),
(1135,746,o),
(1019,867,o),
(856,934,o),
(756,934,qs),
(706,934,o),
(621,917,o),
(550,887,o),
(493,845,o),
(470,820,q),
(470,885,o),
(504,983,o),
(572,1050,o),
(672,1084,o),
(738,1084,qs),
(819,1084,o),
(956,1037,o),
(1012,992,q)
);
},
{
closed = 1;
nodes = (
(686,614,o),
(737,596,o),
(771,560,o),
(788,508,o),
(788,474,qs),
(788,439,o),
(770,386,o),
(735,350,o),
(684,332,o),
(650,332,qs),
(615,332,o),
(562,351,o),
(527,387,o),
(510,439,o),
(510,472,qs),
(510,506,o),
(528,559,o),
(564,595,o),
(617,614,o),
(652,614,qs)
);
}
);
width = 1268;
},
{
layerId = "A0A167AB-9D0E-40C0-91B8-4D2A22A7768E";
shapes = (
{
closed = 1;
nodes = (
(1112,1304,l),
(1069,1328,o),
(967,1367,o),
(857,1395,o),
(746,1410,o),
(694,1410,qs),
(555,1410,o),
(332,1305,o),
(175,1111,o),
(90,838,o),
(90,670,qs),
(90,510,o),
(169,257,o),
(316,82,o),
(527,-10,o),
(660,-10,qs),
(772,-10,o),
(954,55,o),
(1083,177,o),
(1154,350,o),
(1154,458,qs),
(1154,560,o),
(1092,725,o),
(975,841,o),
(807,904,o),
(702,904,qs),
(636,904,o),
(521,878,o),
(425,826,o),
(348,749,o),
(320,698,q),
(316,816,o),
(361,1010,o),
(458,1148,o),
(608,1224,o),
(710,1224,qs),
(790,1224,o),
(955,1178,o),
(1020,1136,q)
);
},
{
closed = 1;
nodes = (
(722,728,o),
(824,690,o),
(896,621,o),
(934,522,o),
(934,460,qs),
(934,395,o),
(892,292,o),
(817,220,o),
(712,182,o),
(648,182,qs),
(572,182,o),
(462,231,o),
(391,308,o),
(357,404,o),
(358,450,q),
(357,506,o),
(397,606,o),
(475,683,o),
(587,728,o),
(658,728,qs)
);
}
);
width = 1268;
},
{
layerId = "4D1A9A15-4E4F-4ADE-8E9B-C4DB08FE4288";
shapes = (
{
closed = 1;
nodes = (
(1064,1314,l),
(1020,1334,o),
(925,1367,o),
(829,1390,o),
(734,1402,o),
(690,1402,qs),
(563,1402,o),
(359,1296,o),
(218,1103,o),
(142,831,o),
(142,664,qs),
(142,501,o),
(214,251,o),
(350,82,o),
(546,-4,o),
(670,-4,qs),
(774,-4,o),
(942,58,o),
(1061,174,o),
(1126,341,o),
(1126,446,qs),
(1126,547,o),
(1064,708,o),
(947,819,o),
(782,878,o),
(678,878,qs),
(579,878,o),
(414,826,o),
(289,728,o),
(207,588,o),
(190,500,q),
(172,701,o),
(224,1021,o),
(354,1243,o),
(559,1362,o),
(694,1362,qs),
(780,1362,o),
(966,1317,o),
(1044,1278,q)
);
},
{
closed = 1;
nodes = (
(770,838,o),
(921,784,o),
(1028,684,o),
(1086,540,o),
(1086,450,qs),
(1086,354,o),
(1023,201,o),
(910,93,o),
(754,36,o),
(660,36,qs),
(545,36,o),
(379,115,o),
(274,235,o),
(224,374,o),
(224,434,qs),
(224,511,o),
(286,657,o),
(403,770,o),
(572,838,o),
(678,838,qs)
);
}
);
width = 1268;
}
);
leftKerningGroup = zero;
rightKerningGroup = six;
unicode = 54;
}
{
glyphname = seven;
layers = (
{
layerId = "8F4E32AC-E022-4D39-97B2-6A8CA1DCECD9";
shapes = (
{
closed = 1;
nodes = (
(62,1044,l),
(737,1044,l),
(719,1071,l),
(248,0,l),
(736,0,l),
(1218,1092,l),
(1218,1400,l),
(62,1400,l)
);
}
);
width = 1268;
},
{
layerId = "A0A167AB-9D0E-40C0-91B8-4D2A22A7768E";
shapes = (
{
closed = 1;
nodes = (
(114,1202,l),
(948,1200,l),
(931,1227,l),
(340,0,l),
(590,0,l),
(1180,1230,l),
(1180,1400,l),
(114,1400,l)
);
}
);
width = 1268;
},
{
layerId = "4D1A9A15-4E4F-4ADE-8E9B-C4DB08FE4288";
shapes = (
{
closed = 1;
nodes = (
(164,1360,l),
(1146,1360,l),
(1129,1387,l),
(422,0,l),
(466,0,l),
(1152,1350,l),
(1152,1400,l),
(164,1400,l)
);
}
);
width = 1268;
}
);
leftKerningGroup = seven;
rightKerningGroup = seven;
unicode = 55;
}
{
glyphname = eight;
layers = (
{
layerId = "B026C813-5E74-43B8-9BDA-38360344913A";
shapes = (
{
closed = 1;
nodes = (
(536,1402,o),
(379,1357,o),
(269,1272,o),
(210,1149,o),
(210,1070,qs),
(210,1009,o),
(245,908,o),
(312,829,o),
(410,771,o),
(472,752,q),
(396,734,o),
(274,670,o),
(189,579,o),
(144,461,o),
(144,390,qs),
(144,296,o),
(212,150,o),
(338,49,o),
(520,-4,o),
(634,-4,qs),
(747,-4,o),
(928,49,o),
(1054,150,o),
(1122,296,o),
(1122,390,qs),
(1122,461,o),
(1077,579,o),
(992,670,o),
(871,734,o),
(794,752,q),
(856,771,o),
(954,829,o),
(1021,908,o),
(1056,1009,o),
(1056,1070,qs),
(1056,1149,o),
(998,1272,o),
(889,1357,o),
(732,1402,o),
(634,1402,qs)
);
},
{
closed = 1;
nodes = (
(737,726,o),
(904,679,o),
(1020,592,o),
(1082,469,o),
(1082,392,qs),
(1082,308,o),
(1020,176,o),
(903,84,o),
(738,36,o),
(634,36,qs),
(529,36,o),
(362,85,o),
(246,177,o),
(184,310,o),
(184,394,qs),
(184,471,o),
(246,593,o),
(363,680,o),
(529,726,o),
(632,726,qs)
);
},
{
closed = 1;
nodes = (
(723,1362,o),
(865,1321,o),
(964,1245,o),
(1016,1135,o),
(1016,1066,qs),
(1016,996,o),
(964,885,o),
(865,807,o),
(723,766,o),
(634,766,qs),
(545,766,o),
(402,807,o),
(303,885,o),
(250,996,o),
(250,1066,qs),
(250,1135,o),
(303,1245,o),
(402,1321,o),
(545,1362,o),
(634,1362,qs)
);
}
);
width = 1268;
},
{
layerId = "ED22C04F-3B1D-41D7-8242-D57D8DACD8E1";
shapes = (
{
closed = 1;
nodes = (
(515,1422,o),
(326,1369,o),
(193,1270,o),
(120,1130,o),
(120,1044,qs),
(120,1004,o),
(143,923,o),
(185,846,o),
(245,777,o),
(282,750,q),
(229,724,o),
(142,646,o),
(80,552,o),
(46,444,o),
(46,388,qs),
(46,296,o),
(130,145,o),
(283,38,o),
(499,-20,o),
(632,-20,qs),
(766,-20,o),
(983,39,o),
(1136,148,o),
(1220,302,o),
(1220,396,qs),
(1220,451,o),
(1190,555,o),
(1134,648,o),
(1055,724,o),
(1006,750,q),
(1038,774,o),
(1090,838,o),
(1126,911,o),
(1146,990,o),
(1146,1030,qs),
(1146,1119,o),
(1073,1264,o),
(938,1366,o),
(748,1422,o),
(630,1422,qs)
);
},
{
closed = 1;
nodes = (
(672,568,o),
(729,551,o),
(768,518,o),
(788,468,o),
(788,436,qs),
(788,405,o),
(768,358,o),
(729,326,o),
(670,310,o),
(632,310,qs),
(595,310,o),
(538,326,o),
(499,358,o),
(480,405,o),
(480,436,qs),
(480,468,o),
(499,518,o),
(538,551,o),
(596,568,o),
(634,568,qs)
);
},
{
closed = 1;
nodes = (
(664,1122,o),
(713,1107,o),
(746,1078,o),
(762,1035,o),
(762,1006,qs),
(762,979,o),
(746,939,o),
(713,912,o),
(664,898,o),
(632,898,qs),
(601,898,o),
(553,912,o),
(520,939,o),
(504,979,o),
(504,1006,qs),
(504,1035,o),
(520,1078,o),
(553,1107,o),
(601,1122,o),
(632,1122,qs)
);
}
);
width = 1268;
},
{
layerId = "6620CA85-00CC-482E-8046-24C727E4DEBF";
shapes = (
{
closed = 1;
nodes = (
(526,1410,o),
(354,1361,o),
(233,1269,o),
(168,1138,o),
(168,1056,qs),
(168,1004,o),
(198,912,o),
(254,834,o),
(334,771,o),
(384,748,q),
(319,726,o),
(214,657,o),
(140,565,o),
(100,453,o),
(100,388,qs),
(100,296,o),
(175,148,o),
(313,45,o),
(511,-10,o),
(634,-10,qs),
(757,-10,o),
(955,46,o),
(1093,150,o),
(1168,299,o),
(1168,392,qs),
(1168,456,o),
(1130,567,o),
(1058,657,o),
(957,726,o),
(894,748,q),
(941,769,o),
(1017,830,o),
(1070,906,o),
(1098,997,o),
(1098,1048,qs),
(1098,1132,o),
(1033,1266,o),
(913,1360,o),
(740,1410,o),
(632,1410,qs)
);
},
{
closed = 1;
nodes = (
(706,650,o),
(823,617,o),
(904,555,o),
(946,466,o),
(946,410,qs),
(946,352,o),
(904,262,o),
(823,199,o),
(708,166,o),
(634,166,qs),
(560,166,o),
(444,199,o),
(364,262,o),
(322,354,o),
(322,412,qs),
(322,468,o),
(364,557,o),
(443,618,o),
(559,650,o),
(632,650,qs)
);
},
{
closed = 1;
nodes = (
(697,1248,o),
(795,1219,o),
(863,1165,o),
(898,1086,o),
(898,1036,qs),
(898,986,o),
(863,907,o),
(795,853,o),
(697,824,o),
(634,824,qs),
(571,824,o),
(472,853,o),
(404,907,o),
(368,986,o),
(368,1036,qs),
(368,1086,o),
(404,1165,o),
(472,1219,o),
(571,1248,o),
(634,1248,qs)
);
}
);
width = 1268;
}
);
leftKerningGroup = eight;
rightKerningGroup = eight;
unicode = 56;
}
{
glyphname = nine;
layers = (
{
layerId = "E8FC7CDB-EB64-4B8C-83EE-9B2B76976C4E";
shapes = (
{
closed = 1;
nodes = (
(88,104,l),
(133,76,o),
(244,30,o),
(365,-3,o),
(493,-20,o),
(554,-20,qs),
(706,-20,o),
(951,85,o),
(1124,279,o),
(1218,552,o),
(1218,720,qs),
(1218,881,o),
(1134,1141,o),
(975,1324,o),
(747,1422,o),
(604,1422,qs),
(484,1422,o),
(288,1353,o),
(148,1226,o),
(72,1045,o),
(72,932,qs),
(72,829,o),
(135,658,o),
(250,535,o),
(412,468,o),
(512,468,qs),
(562,468,o),
(647,486,o),
(718,517,o),
(776,559,o),
(798,584,q),
(798,520,o),
(764,421,o),
(697,354,o),
(596,320,o),
(528,320,qs),
(448,320,o),
(312,365,o),
(256,412,q)
);
},
{
closed = 1;
nodes = (
(653,1072,o),
(706,1053,o),
(741,1017,o),
(758,965,o),
(758,932,qs),
(758,898,o),
(740,845,o),
(704,809,o),
(651,790,o),
(616,790,qs),
(582,790,o),
(532,808,o),
(499,844,o),
(482,896,o),
(482,930,qs),
(482,965,o),
(499,1018,o),
(533,1054,o),
(584,1072,o),
(618,1072,qs)
);
}
);
width = 1268;
},
{
layerId = "17E3EB7E-1F08-45A4-8E6B-D8F983509A13";
shapes = (
{
closed = 1;
nodes = (
(144,96,l),
(187,72,o),
(289,33,o),
(397,5,o),
(508,-10,o),
(560,-10,qs),
(698,-10,o),
(921,95,o),
(1077,289,o),
(1162,562,o),
(1162,730,qs),
(1162,891,o),
(1084,1143,o),
(937,1318,o),
(726,1410,o),
(594,1410,qs),
(483,1410,o),
(302,1345,o),
(174,1223,o),
(104,1050,o),
(104,942,qs),
(104,840,o),
(166,675,o),
(282,559,o),
(448,496,o),
(552,496,qs),
(618,496,o),
(732,522,o),
(828,574,o),
(904,651,o),
(932,702,q),
(935,584,o),
(890,390,o),
(794,252,o),
(645,176,o),
(544,176,qs),
(464,176,o),
(301,222,o),
(236,264,q)
);
},
{
closed = 1;
nodes = (
(682,1218,o),
(791,1169,o),
(862,1092,o),
(895,997,o),
(894,950,q),
(895,895,o),
(855,794,o),
(779,717,o),
(667,672,o),
(596,672,qs),
(533,672,o),
(432,710,o),
(362,779,o),
(324,879,o),
(324,940,qs),
(324,1005,o),
(365,1108,o),
(439,1180,o),
(543,1218,o),
(606,1218,qs)
);
}
);
width = 1268;
},
{
layerId = "59F18BB4-F2E3-4803-AEEB-FBD371085F85";
shapes = (
{
closed = 1;
nodes = (
(194,84,l),
(238,64,o),
(331,31,o),
(425,8,o),
(519,-4,o),
(562,-4,qs),
(689,-4,o),
(890,102,o),
(1031,297,o),
(1106,571,o),
(1106,738,qs),
(1106,901,o),
(1035,1149,o),
(900,1317,o),
(706,1402,o),
(584,1402,qs),
(481,1402,o),
(314,1341,o),
(196,1226,o),
(132,1060,o),
(132,956,qs),
(132,854,o),
(194,693,o),
(309,581,o),
(473,522,o),
(576,522,qs),
(674,522,o),
(836,574,o),
(960,673,o),
(1042,814,o),
(1058,902,q),
(1076,700,o),
(1024,379,o),
(895,155,o),
(692,36,o),
(558,36,qs),
(473,36,o),
(291,81,o),
(214,120,q)
);
},
{
closed = 1;
nodes = (
(707,1362,o),
(870,1283,o),
(975,1165,o),
(1024,1027,o),
(1024,968,qs),
(1024,890,o),
(963,744,o),
(847,630,o),
(681,562,o),
(576,562,qs),
(485,562,o),
(335,616,o),
(230,717,o),
(172,861,o),
(172,952,qs),
(172,1047,o),
(234,1199,o),
(346,1305,o),
(501,1362,o),
(594,1362,qs)
);
}
);
width = 1268;
}
);
leftKerningGroup = nine;
rightKerningGroup = zero;
unicode = 57;
}
{
glyphname = less;
layers = (
{
layerId = "8F4E32AC-E022-4D39-97B2-6A8CA1DCECD9";
shapes = (
{
closed = 1;
nodes = (
(60,824,l),
(60,468,l),
(980,98,l),
(980,410,l),
(348,646,l),
(980,882,l),
(980,1194,l)
);
}
);
width = 1040;
},
{
layerId = "A0A167AB-9D0E-40C0-91B8-4D2A22A7768E";
shapes = (
{
closed = 1;
nodes = (
(70,748,l),
(70,556,l),
(926,184,l),
(926,352,l),
(224,652,l),
(926,950,l),
(926,1118,l)
);
}
);
width = 996;
},
{
layerId = "4D1A9A15-4E4F-4ADE-8E9B-C4DB08FE4288";
shapes = (
{
closed = 1;
nodes = (
(80,682,l),
(80,630,l),
(880,258,l),
(880,302,l),
(118,656,l),
(880,1010,l),
(880,1054,l)
);
}
);
width = 960;
}
);
leftKerningGroup = less;
rightKerningGroup = less;
unicode = 60;
}
{
glyphname = equal;
layers = (
{
layerId = "7132A246-D2BE-45EF-90A2-0D7A42C907F4";
shapes = (
{
closed = 1;
nodes = (
(60,738,l),
(980,738,l),
(980,1018,l),
(60,1018,l)
);
},
{
closed = 1;
nodes = (
(60,298,l),
(980,298,l),
(980,578,l),
(60,578,l)
);
}
);
width = 1040;
},
{
layerId = "D0849346-794E-4F15-8942-BE6C34F6B6A6";
shapes = (
{
closed = 1;
nodes = (
(70,782,l),
(926,782,l),
(926,932,l),
(70,932,l)
);
},
{
closed = 1;
nodes = (
(70,364,l),
(926,364,l),
(926,514,l),
(70,514,l)
);
}
);
width = 996;
},
{
layerId = "A37310BC-51AC-4F96-8729-E7F4F8535551";
shapes = (
{
closed = 1;
nodes = (
(80,820,l),
(880,820,l),
(880,860,l),
(80,860,l)
);
},
{
closed = 1;
nodes = (
(80,420,l),
(880,420,l),
(880,460,l),
(80,460,l)
);
}
);
width = 960;
}
);
leftKerningGroup = equal;
rightKerningGroup = equal;
unicode = 61;
}
{
glyphname = greater;
layers = (
{
layerId = "7132A246-D2BE-45EF-90A2-0D7A42C907F4";
shapes = (
{
closed = 1;
nodes = (
(980,468,l),
(980,824,l),
(60,1194,l),
(60,882,l),
(692,646,l),
(60,410,l),
(60,98,l)
);
}
);
width = 1040;
},
{
layerId = "D0849346-794E-4F15-8942-BE6C34F6B6A6";
shapes = (
{
closed = 1;
nodes = (
(926,554,l),
(926,746,l),
(70,1118,l),
(70,950,l),
(772,650,l),
(70,352,l),
(70,184,l)
);
}
);
width = 996;
},
{
layerId = "A37310BC-51AC-4F96-8729-E7F4F8535551";
shapes = (
{
closed = 1;
nodes = (
(880,630,l),
(880,682,l),
(80,1054,l),
(80,1010,l),
(842,656,l),
(80,302,l),
(80,258,l)
);
}
);
width = 960;
}
);
leftKerningGroup = greater;
rightKerningGroup = greater;
unicode = 62;
}
{
glyphname = question;
layers = (
{
layerId = "7132A246-D2BE-45EF-90A2-0D7A42C907F4";
shapes = (
{
closed = 1;
nodes = (
(784,563,l),
(782,574,o),
(778,586,o),
(778,604,cs),
(778,713,o),
(1146,720,o),
(1146,1050,cs),
(1146,1300,o),
(912,1432,o),
(598,1432,cs),
(278,1432,o),
(76,1300,o),
(-26,1108,c),
(330,930,l),
(372,1014,o),
(452,1066,o),
(538,1066,cs),
(612,1066,o),
(672,1034,o),
(672,972,cs),
(672,831,o),
(368,802,o),
(368,616,cs),
(368,586,o),
(370,550,o),
(384,508,c)
);
},
{
closed = 1;
nodes = (
(740,-20,o),
(848,88,o),
(848,220,cs),
(848,354,o),
(740,456,o),
(584,456,cs),
(428,456,o),
(320,354,o),
(320,220,cs),
(320,88,o),
(428,-20,o),
(584,-20,cs)
);
}
);
width = 1212;
},
{
layerId = "D0849346-794E-4F15-8942-BE6C34F6B6A6";
shapes = (
{
closed = 1;
nodes = (
(619,455,l),
(608,484,o),
(598,510,o),
(598,534,c),
(598,729,o),
(1024,722,o),
(1024,1058,cs),
(1024,1284,o),
(834,1418,o),
(542,1418,cs),
(304,1418,o),
(126,1332,o),
(14,1186,c),
(182,1068,l),
(258,1168,o),
(370,1224,o),
(526,1224,cs),
(692,1224,o),
(794,1142,o),
(794,1022,cs),
(794,831,o),
(376,835,o),
(376,546,cs),
(376,508,o),
(390,464,o),
(416,410,c)
);
},
{
closed = 1;
nodes = (
(608,-12,o),
(668,52,o),
(668,130,cs),
(668,210,o),
(608,272,o),
(524,272,cs),
(440,272,o),
(380,210,o),
(380,130,cs),
(380,52,o),
(440,-12,o),
(524,-12,cs)
);
}
);
width = 1154;
},
{
layerId = "A37310BC-51AC-4F96-8729-E7F4F8535551";
shapes = (
{
closed = 1;
nodes = (
(436,380,l),
(420,414,o),
(414,450,o),
(414,478,cs),
(414,689,o),
(930,687,o),
(930,1072,cs),
(930,1270,o),
(764,1406,o),
(500,1406,cs),
(296,1406,o),
(144,1342,o),
(40,1226,c),
(68,1198,l),
(170,1312,o),
(308,1368,o),
(500,1368,cs),
(754,1368,o),
(890,1242,o),
(890,1070,cs),
(890,715,o),
(374,714,o),
(374,488,cs),
(374,452,o),
(380,412,o),
(402,366,c)
);
},
{
closed = 1;
nodes = (
(448,-6,o),
(472,18,o),
(472,46,cs),
(472,74,o),
(448,98,o),
(420,98,cs),
(392,98,o),
(368,74,o),
(368,46,cs),
(368,18,o),
(392,-6,o),
(420,-6,cs)
);
}
);
width = 1108;
}
);
leftKerningGroup = question;
rightKerningGroup = question;
unicode = 63;
}
{
glyphname = at;
layers = (
{
layerId = "7132A246-D2BE-45EF-90A2-0D7A42C907F4";
shapes = (
{
closed = 1;
nodes = (
(1282,982,l),
(1012,982,l),
(1012,900,l),
(1012,900,o),
(926,1006,o),
(782,1006,cs),
(546,1006,o),
(398,792,o),
(398,542,cs),
(398,266,o),
(604,86,o),
(812,86,cs),
(904,86,o),
(1002,124,o),
(1076,228,c),
(1080,214,ls),
(1110,110,o),
(1196,66,o),
(1316,66,cs),
(1538,66,o),
(1700,258,o),
(1700,552,cs),
(1700,1038,o),
(1346,1396,o),
(878,1396,cs),
(408,1396,o),
(30,1018,o),
(30,536,cs),
(30,62,o),
(386,-290,o),
(854,-290,cs),
(1010,-290,o),
(1208,-232,o),
(1324,-138,c),
(1222,34,l),
(1110,-54,o),
(966,-92,o),
(854,-92,cs),
(510,-92,o),
(246,178,o),
(246,536,cs),
(246,900,o),
(530,1198,o),
(878,1198,cs),
(1268,1198,o),
(1486,910,o),
(1486,546,cs),
(1486,368,o),
(1412,244,o),
(1342,244,cs),
(1306,244,o),
(1282,264,o),
(1282,332,cs)
);
},
{
closed = 1;
nodes = (
(938,758,o),
(994,664,o),
(994,550,cs),
(994,430,o),
(940,328,o),
(840,328,cs),
(748,328,o),
(694,434,o),
(694,552,cs),
(694,662,o),
(750,758,o),
(838,758,cs)
);
}
);
width = 1730;
},
{
layerId = "D0849346-794E-4F15-8942-BE6C34F6B6A6";
shapes = (
{
closed = 1;
nodes = (
(1428,996,l),
(1212,996,l),
(1212,864,l),
(1192,908,o),
(1072,1016,o),
(896,1016,cs),
(630,1016,o),
(456,802,o),
(456,538,cs),
(456,258,o),
(674,68,o),
(918,68,cs),
(1056,68,o),
(1180,128,o),
(1262,250,c),
(1266,208,l),
(1288,96,o),
(1376,44,o),
(1498,44,cs),
(1722,44,o),
(1880,240,o),
(1880,544,cs),
(1880,1042,o),
(1500,1404,o),
(986,1404,cs),
(470,1404,o),
(68,1026,o),
(68,534,cs),
(68,52,o),
(452,-308,o),
(960,-308,cs),
(1112,-308,o),
(1310,-254,o),
(1428,-170,c),
(1346,-26,l),
(1234,-106,o),
(1078,-144,o),
(960,-144,cs),
(552,-144,o),
(240,142,o),
(240,534,cs),
(240,932,o),
(570,1246,o),
(986,1246,cs),
(1430,1246,o),
(1708,938,o),
(1708,538,cs),
(1708,330,o),
(1618,186,o),
(1520,186,cs),
(1466,186,o),
(1428,218,o),
(1428,296,cs)
);
},
{
closed = 1;
nodes = (
(1096,820,o),
(1198,698,o),
(1198,546,cs),
(1198,388,o),
(1100,262,o),
(942,262,cs),
(790,262,o),
(690,392,o),
(690,548,cs),
(690,698,o),
(790,820,o),
(938,820,cs)
);
}
);
width = 1948;
},
{
layerId = "A37310BC-51AC-4F96-8729-E7F4F8535551";
shapes = (
{
closed = 1;
nodes = (
(1464,1050,l),
(1424,1050,l),
(1424,746,l),
(1350,932,o),
(1176,1054,o),
(958,1054,cs),
(666,1054,o),
(452,834,o),
(452,532,cs),
(452,232,o),
(666,12,o),
(958,12,cs),
(1176,12,o),
(1350,134,o),
(1424,320,c),
(1424,192,l),
(1424,56,o),
(1508,-32,o),
(1610,-32,cs),
(1794,-32,o),
(1912,184,o),
(1912,518,cs),
(1912,1052,o),
(1534,1442,o),
(1014,1442,cs),
(486,1442,o),
(100,1056,o),
(100,524,cs),
(100,14,o),
(474,-356,o),
(988,-356,cs),
(1102,-356,o),
(1260,-318,o),
(1362,-264,c),
(1346,-228,l),
(1252,-278,o),
(1100,-316,o),
(988,-316,cs),
(498,-316,o),
(140,38,o),
(140,524,cs),
(140,1032,o),
(508,1402,o),
(1014,1402,cs),
(1510,1402,o),
(1872,1030,o),
(1872,518,cs),
(1872,208,o),
(1770,8,o),
(1614,8,cs),
(1534,8,o),
(1464,80,o),
(1464,192,cs)
);
},
{
closed = 1;
nodes = (
(1228,1014,o),
(1424,810,o),
(1424,532,cs),
(1424,254,o),
(1228,52,o),
(958,52,cs),
(688,52,o),
(492,254,o),
(492,532,cs),
(492,810,o),
(688,1014,o),
(958,1014,cs)
);
}
);
width = 2012;
}
);
leftKerningGroup = O;
rightKerningGroup = O;
unicode = 64;
}
{
glyphname = A;
layers = (
{
anchors = (
{
name = bottom;
position = "{780, 0}";
},
{
name = ogonek;
position = "{1452, 0}";
},
{
name = top;
position = "{798, 1400}";
},
{
name = topleft;
position = "{256, 1400}";
}
);
layerId = "7132A246-D2BE-45EF-90A2-0D7A42C907F4";
shapes = (
{
closed = 1;
nodes = (
(-20,0,l),
(455,0,l),
(795,939,l),
(1122,0,l),
(1616,0,l),
(1046,1400,l),
(571,1400,l)
);
},
{
closed = 1;
nodes = (
(379,198,l),
(1182,198,l),
(1182,529,l),
(379,529,l)
);
}
);
width = 1596;
},
{
anchors = (
{
name = bottom;
position = "{730, 0}";
},
{
name = ogonek;
position = "{1474, 0}";
},
{
name = top;
position = "{738, 1398}";
},
{
name = topleft;
position = "{250, 1400}";
}
);
layerId = "D0849346-794E-4F15-8942-BE6C34F6B6A6";
shapes = (
{
closed = 1;
nodes = (
(2,0,l),
(248,0,l),
(734,1162,l),
(1222,0,l),
(1474,0,l),
(862,1400,l),
(620,1400,l)
);
},
{
closed = 1;
nodes = (
(310,324,l),
(1148,324,l),
(1148,524,l),
(310,524,l)
);
}
);
width = 1476;
},
{
anchors = (
{
name = bottom;
position = "{684, 0}";
},
{
name = ogonek;
position = "{1354, 0}";
},
{
name = top;
position = "{686, 1400}";
},
{
name = topleft;
position = "{210, 1400}";
}
);
layerId = "A37310BC-51AC-4F96-8729-E7F4F8535551";
shapes = (
{
closed = 1;
nodes = (
(20,0,l),
(68,0,l),
(683,1354,l),
(1308,0,l),
(1354,0,l),
(705,1400,l),
(661,1400,l)
);
},
{
closed = 1;
nodes = (
(250,427,l),
(1120,427,l),
(1120,467,l),
(250,467,l)
);
}
);
width = 1374;
}
);
leftKerningGroup = A;
rightKerningGroup = A;
unicode = 65;
}
{
glyphname = B;
layers = (
{
layerId = "3FDA15A3-2E5D-4DE0-8D90-0C5D946D3754";
shapes = (
{
closed = 1;
nodes = (
(100,1400,l),
(100,0,l),
(842,0,ls),
(1184,0,o),
(1406,154,o),
(1406,394,cs),
(1406,570,o),
(1296,708,o),
(1128,746,c),
(1272,790,o),
(1364,908,o),
(1364,1046,cs),
(1364,1260,o),
(1146,1400,o),
(808,1400,cs)
);
},
{
closed = 1;
nodes = (
(562,860,l),
(562,1060,l),
(782,1060,ls),
(846,1060,o),
(888,1022,o),
(888,962,cs),
(888,900,o),
(846,860,o),
(782,860,cs)
);
},
{
closed = 1;
nodes = (
(562,340,l),
(562,554,l),
(782,554,ls),
(868,554,o),
(924,514,o),
(924,452,cs),
(924,384,o),
(868,340,o),
(782,340,cs)
);
}
);
width = 1446;
},
{
layerId = "9BB73D9E-E1CF-483B-8FF3-2862F5B712F7";
shapes = (
{
closed = 1;
nodes = (
(184,1400,l),
(184,0,l),
(806,0,ls),
(1122,0,o),
(1316,144,o),
(1316,384,cs),
(1316,572,o),
(1204,706,o),
(1016,738,c),
(1168,774,o),
(1262,892,o),
(1262,1050,cs),
(1262,1268,o),
(1082,1400,o),
(792,1400,cs)
);
},
{
closed = 1;
nodes = (
(420,818,l),
(420,1198,l),
(780,1198,l),
(930,1200,o),
(1020,1132,o),
(1020,1012,cs),
(1020,888,o),
(930,818,o),
(780,818,cs)
);
},
{
closed = 1;
nodes = (
(420,202,l),
(420,616,l),
(780,616,l),
(964,618,o),
(1074,540,o),
(1074,412,cs),
(1074,276,o),
(964,200,o),
(780,202,c)
);
}
);
width = 1412;
},
{
layerId = "60C6F403-B830-40DC-BC91-C1CD2FDD7472";
shapes = (
{
closed = 1;
nodes = (
(256,1400,l),
(256,0,l),
(820,0,ls),
(1138,0,o),
(1320,136,o),
(1320,374,cs),
(1320,572,o),
(1192,702,o),
(970,730,c),
(1146,760,o),
(1246,878,o),
(1246,1054,cs),
(1246,1274,o),
(1090,1400,o),
(820,1400,cs)
);
},
{
closed = 1;
nodes = (
(296,746,l),
(296,1360,l),
(820,1360,ls),
(1066,1360,o),
(1206,1248,o),
(1206,1054,cs),
(1206,858,o),
(1066,746,o),
(820,746,cs)
);
},
{
closed = 1;
nodes = (
(296,40,l),
(296,706,l),
(820,706,ls),
(1114,706,o),
(1282,586,o),
(1282,376,cs),
(1282,162,o),
(1114,40,o),
(820,40,cs)
);
}
);
width = 1464;
}
);
leftKerningGroup = H;
rightKerningGroup = B;
unicode = 66;
}
{
glyphname = C;
layers = (
{
anchors = (
{
name = bottom;
position = "{734, 0}";
},
{
name = top;
position = "{786, 1400}";
}
);
layerId = "8F4E32AC-E022-4D39-97B2-6A8CA1DCECD9";
shapes = (
{
closed = 1;
nodes = (
(1380,1170,l),
(1236,1328,o),
(1002,1430,o),
(789,1430,cs),
(349,1430,o),
(30,1124,o),
(30,705,cs),
(30,280,o),
(341,-32,o),
(771,-32,cs),
(987,-32,o),
(1224,80,o),
(1380,252,c),
(1112,537,l),
(1020,437,o),
(895,373,o),
(795,373,cs),
(627,373,o),
(505,515,o),
(505,711,cs),
(505,905,o),
(627,1044,o),
(795,1044,cs),
(903,1044,o),
(1028,969,o),
(1112,853,c)
);
}
);
width = 1374;
},
{
anchors = (
{
name = bottom;
position = "{766, 0}";
},
{
name = top;
position = "{844, 1400}";
}
);
layerId = "A0A167AB-9D0E-40C0-91B8-4D2A22A7768E";
shapes = (
{
closed = 1;
nodes = (
(1336,1198,l),
(1200,1332,o),
(1002,1414,o),
(804,1414,cs),
(390,1414,o),
(68,1102,o),
(68,702,cs),
(68,300,o),
(386,-16,o),
(796,-16,cs),
(994,-16,o),
(1196,74,o),
(1338,214,c),
(1198,360,l),
(1092,256,o),
(948,192,o),
(808,192,cs),
(528,192,o),
(308,420,o),
(308,704,cs),
(308,990,o),
(528,1216,o),
(808,1216,cs),
(950,1216,o),
(1096,1148,o),
(1198,1036,c)
);
}
);
width = 1394;
},
{
anchors = (
{
name = bottom;
position = "{796, 0}";
},
{
name = top;
position = "{818, 1400}";
}
);
layerId = "4D1A9A15-4E4F-4ADE-8E9B-C4DB08FE4288";
shapes = (
{
closed = 1;
nodes = (
(1300,1226,l),
(1172,1340,o),
(1003,1408,o),
(819,1408,cs),
(425,1408,o),
(100,1090,o),
(100,701,cs),
(100,314,o),
(425,-6,o),
(819,-6,cs),
(1003,-6,o),
(1174,64,o),
(1302,178,c),
(1274,204,l),
(1154,96,o),
(993,32,o),
(819,32,cs),
(445,32,o),
(138,334,o),
(138,701,cs),
(138,1069,o),
(445,1370,o),
(819,1370,cs),
(993,1370,o),
(1154,1308,o),
(1274,1200,c)
);
}
);
width = 1412;
}
);
leftKerningGroup = O;
rightKerningGroup = C;
unicode = 67;
}
{
glyphname = D;
layers = (
{
layerId = "E8FC7CDB-EB64-4B8C-83EE-9B2B76976C4E";
shapes = (
{
closed = 1;
nodes = (
(100,1400,l),
(100,0,l),
(707,0,ls),
(1180,0,o),
(1486,276,o),
(1486,701,cs),
(1486,1126,o),
(1186,1400,o),
(725,1400,cs)
);
},
{
closed = 1;
nodes = (
(563,359,l),
(563,1040,l),
(715,1040,ls),
(895,1040,o),
(1012,905,o),
(1012,697,cs),
(1012,491,o),
(905,359,o),
(737,359,cs)
);
}
);
width = 1516;
},
{
layerId = "17E3EB7E-1F08-45A4-8E6B-D8F983509A13";
shapes = (
{
closed = 1;
nodes = (
(184,1400,l),
(184,0,l),
(752,0,ls),
(1176,0,o),
(1482,296,o),
(1482,700,cs),
(1482,1104,o),
(1178,1400,o),
(758,1400,cs)
);
},
{
closed = 1;
nodes = (
(420,202,l),
(420,1198,l),
(754,1198,ls),
(1030,1198,o),
(1244,990,o),
(1244,698,cs),
(1244,408,o),
(1036,202,o),
(764,202,cs)
);
}
);
width = 1550;
},
{
layerId = "59F18BB4-F2E3-4803-AEEB-FBD371085F85";
shapes = (
{
closed = 1;
nodes = (
(256,1400,l),
(256,0,l),
(807,0,ls),
(1202,0,o),
(1524,314,o),
(1524,699,cs),
(1524,1086,o),
(1202,1400,o),
(807,1400,cs)
);
},
{
closed = 1;
nodes = (
(296,40,l),
(296,1360,l),
(807,1360,ls),
(1180,1360,o),
(1484,1063,o),
(1484,699,cs),
(1484,336,o),
(1180,40,o),
(807,40,cs)
);
}
);
width = 1624;
}
);
leftKerningGroup = H;
rightKerningGroup = O;
unicode = 68;
}
{
glyphname = E;
layers = (
{
anchors = (
{
name = bottom;
position = "{700, 0}";
},
{
name = ogonek;
position = "{1302, 0}";
},
{
name = top;
position = "{694, 1400}";
},
{
name = topleft;
position = "{-32, 1400}";
}
);
layerId = "3FDA15A3-2E5D-4DE0-8D90-0C5D946D3754";
shapes = (
{
closed = 1;
nodes = (
(100,0,l),
(1302,0,l),
(1302,351,l),
(563,351,l),
(563,525,l),
(1218,525,l),
(1218,877,l),
(563,877,l),
(563,1048,l),
(1284,1048,l),
(1284,1400,l),
(100,1400,l)
);
}
);
width = 1378;
},
{
anchors = (
{
name = bottom;
position = "{696, 0}";
},
{
name = ogonek;
position = "{1208, 0}";
},
{
name = top;
position = "{702, 1400}";
},
{
name = topleft;
position = "{36, 1400}";
}
);
layerId = "9BB73D9E-E1CF-483B-8FF3-2862F5B712F7";
shapes = (
{
closed = 1;
nodes = (
(184,0,l),
(1208,0,l),
(1208,202,l),
(420,202,l),
(420,604,l),
(1104,604,l),
(1104,804,l),
(420,804,l),
(420,1198,l),
(1184,1198,l),
(1184,1400,l),
(184,1400,l)
);
}
);
width = 1312;
},
{
anchors = (
{
name = bottom;
position = "{708, 0}";
},
{
name = ogonek;
position = "{1160, 0}";
},
{
name = top;
position = "{702, 1400}";
},
{
name = topleft;
position = "{72, 1400}";
}
);
layerId = "60C6F403-B830-40DC-BC91-C1CD2FDD7472";
shapes = (
{
closed = 1;
nodes = (
(256,0,l),
(1160,0,l),
(1160,40,l),
(296,40,l),
(296,701,l),
(1039,701,l),
(1039,741,l),
(296,741,l),
(296,1360,l),
(1132,1360,l),
(1132,1400,l),
(256,1400,l)
);
}
);
width = 1290;
}
);
leftKerningGroup = H;
rightKerningGroup = E;
unicode = 69;
}
{
glyphname = F;
layers = (
{
layerId = "3FDA15A3-2E5D-4DE0-8D90-0C5D946D3754";
shapes = (
{
closed = 1;
nodes = (
(100,0,l),
(564,0,l),
(564,456,l),
(1184,456,l),
(1184,806,l),
(564,806,l),
(564,1048,l),
(1226,1048,l),
(1226,1400,l),
(100,1400,l)
);
}
);
width = 1260;
},
{
layerId = "9BB73D9E-E1CF-483B-8FF3-2862F5B712F7";
shapes = (
{
closed = 1;
nodes = (
(184,0,l),
(420,0,l),
(420,582,l),
(1056,582,l),
(1056,782,l),
(420,782,l),
(420,1198,l),
(1122,1198,l),
(1124,1400,l),
(184,1400,l)
);
}
);
width = 1150;
},
{
layerId = "60C6F403-B830-40DC-BC91-C1CD2FDD7472";
shapes = (
{
closed = 1;
nodes = (
(256,0,l),
(296,0,l),
(296,646,l),
(980,646,l),
(980,686,l),
(296,686,l),
(296,1360,l),
(1072,1360,l),
(1072,1400,l),
(256,1400,l)
);
}
);
width = 1092;
}
);
leftKerningGroup = H;
rightKerningGroup = F;
unicode = 70;
}
{
glyphname = G;
layers = (
{
anchors = (
{
name = bottom;
position = "{760, 0}";
},
{
name = top;
position = "{760, 1398}";
}
);
layerId = "530FD3FD-5444-46AA-B51A-11B2B68AE76D";
shapes = (
{
closed = 1;
nodes = (
(1258,178,l),
(1300,178,l),
(1300,720,l),
(660,720,l),
(660,680,l),
(1258,680,l)
);
},
{
closed = 1;
nodes = (
(1298,1224,l),
(1170,1338,o),
(1002,1406,o),
(818,1406,cs),
(424,1406,o),
(100,1088,o),
(100,702,cs),
(100,314,o),
(424,-6,o),
(818,-6,cs),
(1002,-6,o),
(1172,64,o),
(1300,178,c),
(1272,204,l),
(1152,96,o),
(992,32,o),
(818,32,cs),
(444,32,o),
(138,334,o),
(138,702,cs),
(138,1068,o),
(444,1368,o),
(818,1368,cs),
(992,1368,o),
(1152,1306,o),
(1272,1198,c)
);
}
);
width = 1520;
},
{
anchors = (
{
name = bottom;
position = "{792, 0}";
},
{
name = top;
position = "{820, 1402}";
}
);
layerId = "6D4C632D-5FF3-432A-8199-1F9B3F2CB990";
shapes = (
{
closed = 1;
nodes = (
(1004,152,l),
(1404,152,l),
(1404,832,l),
(724,832,l),
(724,512,l),
(1004,512,l)
);
},
{
closed = 1;
nodes = (
(1426,1212,l),
(1276,1346,o),
(1038,1432,o),
(820,1432,cs),
(362,1432,o),
(30,1124,o),
(30,702,cs),
(30,278,o),
(350,-32,o),
(790,-32,cs),
(990,-32,o),
(1248,46,o),
(1404,152,c),
(1142,478,l),
(1040,406,o),
(904,354,o),
(822,354,cs),
(640,354,o),
(506,500,o),
(506,702,cs),
(506,900,o),
(638,1046,o),
(818,1046,cs),
(934,1046,o),
(1070,986,o),
(1164,894,c)
);
}
);
width = 1476;
},
{
anchors = (
{
name = bottom;
position = "{774, 0}";
},
{
name = top;
position = "{774, 1400}";
}
);
layerId = "6B80B6C1-47AF-41BF-A29C-E15F80EDEA88";
shapes = (
{
closed = 1;
nodes = (
(1128,168,l),
(1348,168,l),
(1348,800,l),
(700,800,l),
(700,600,l),
(1128,600,l)
);
},
{
closed = 1;
nodes = (
(1356,1216,l),
(1218,1338,o),
(1018,1414,o),
(818,1414,cs),
(394,1414,o),
(68,1102,o),
(68,702,cs),
(68,300,o),
(390,-16,o),
(804,-16,cs),
(996,-16,o),
(1206,58,o),
(1348,168,c),
(1212,332,l),
(1100,240,o),
(950,184,o),
(820,184,cs),
(534,184,o),
(308,412,o),
(308,702,cs),
(308,988,o),
(532,1216,o),
(818,1216,cs),
(964,1216,o),
(1114,1156,o),
(1222,1054,c)
);
}
);
width = 1498;
}
);
leftKerningGroup = O;
rightKerningGroup = G;
unicode = 71;
}
{
glyphname = H;
layers = (
{
anchors = (
{
name = bottom;
position = "{802, 0}";
},
{
name = top;
position = "{796, 1398}";
}
);
layerId = "B026C813-5E74-43B8-9BDA-38360344913A";
shapes = (
{
closed = 1;
nodes = (
(256,0,l),
(296,0,l),
(296,687,l),
(1304,687,l),
(1304,0,l),
(1344,0,l),
(1344,1400,l),
(1304,1400,l),
(1304,727,l),
(296,727,l),
(296,1400,l),
(256,1400,l)
);
}
);
width = 1600;
},
{
anchors = (
{
name = bottom;
position = "{780, 0}";
},
{
name = top;
position = "{780, 1400}";
}
);
layerId = "ED22C04F-3B1D-41D7-8242-D57D8DACD8E1";
shapes = (
{
closed = 1;
nodes = (
(100,0,l),
(563,0,l),
(563,505,l),
(997,505,l),
(997,0,l),
(1460,0,l),
(1460,1400,l),
(997,1400,l),
(997,857,l),
(563,857,l),
(563,1400,l),
(100,1400,l)
);
}
);
width = 1560;
},
{
anchors = (
{
name = bottom;
position = "{790, 0}";
},
{
name = top;
position = "{800, 1398}";
}
);
layerId = "6620CA85-00CC-482E-8046-24C727E4DEBF";
shapes = (
{
closed = 1;
nodes = (
(184,0,l),
(420,0,l),
(420,586,l),
(1162,586,l),
(1162,0,l),
(1398,0,l),
(1398,1400,l),
(1162,1400,l),
(1162,786,l),
(420,786,l),
(420,1400,l),
(184,1400,l)
);
}
);
width = 1582;
}
);
leftKerningGroup = H;
rightKerningGroup = H;
unicode = 72;
}
{
glyphname = I;
layers = (
{
anchors = (
{
name = bottom;
position = "{332, 0}";
},
{
name = ogonek;
position = "{428, 0}";
},
{
name = top;
position = "{332, 1400}";
},
{
name = topleft;
position = "{-32, 1400}";
}
);
layerId = "E8FC7CDB-EB64-4B8C-83EE-9B2B76976C4E";
shapes = (
{
closed = 1;
nodes = (
(100,0,l),
(563,0,l),
(563,1400,l),
(100,1400,l)
);
}
);
width = 664;
},
{
anchors = (
{
name = bottom;
position = "{302, 0}";
},
{
name = ogonek;
position = "{420, 0}";
},
{
name = top;
position = "{300, 1398}";
},
{
name = topleft;
position = "{36, 1400}";
}
);
layerId = "17E3EB7E-1F08-45A4-8E6B-D8F983509A13";
shapes = (
{
closed = 1;
nodes = (
(184,0,l),
(420,0,l),
(420,1400,l),
(184,1400,l)
);
}
);
width = 604;
},
{
anchors = (
{
name = bottom;
position = "{276, 0}";
},
{
name = ogonek;
position = "{296, 0}";
},
{
name = top;
position = "{276, 1400}";
},
{
name = topleft;
position = "{72, 1400}";
}
);
layerId = "59F18BB4-F2E3-4803-AEEB-FBD371085F85";
shapes = (
{
closed = 1;
nodes = (
(256,0,l),
(296,0,l),
(296,1400,l),
(256,1400,l)
);
}
);
width = 552;
}
);
leftKerningGroup = H;
rightKerningGroup = H;
unicode = 73;
}
{
glyphname = J;
layers = (
{
layerId = "3E08A46C-BB86-4C4A-83AF-B3C64A14215C";
name = "#instance";
shapes = (
{
closed = 1;
nodes = (
(1056,1400,l),
(591,1400,l),
(591,483,ls),
(591,403,o),
(549,365,o),
(485,365,cs),
(415,365,o),
(304,413,o),
(194,523,c),
(-16,224,l),
(126,68,o),
(304,-20,o),
(529,-20,cs),
(851,-20,o),
(1056,160,o),
(1056,473,cs)
);
}
);
width = 1136;
},
{
layerId = "530FD3FD-5444-46AA-B51A-11B2B68AE76D";
shapes = (
{
closed = 1;
nodes = (
(699,1400,l),
(659,1400,l),
(659,395,l),
(659,164,o),
(551,40,o),
(354,40,c),
(228,40,o),
(116,104,o),
(34,224,c),
(6,196,l),
(94,70,o),
(218,0,o),
(354,0,c),
(577,0,o),
(699,140,o),
(699,395,c)
);
}
);
width = 920;
},
{
layerId = "6D4C632D-5FF3-432A-8199-1F9B3F2CB990";
shapes = (
{
closed = 1;
nodes = (
(1056,1400,l),
(591,1400,l),
(591,483,ls),
(591,403,o),
(549,365,o),
(485,365,cs),
(415,365,o),
(304,413,o),
(194,523,c),
(-16,224,l),
(126,68,o),
(304,-20,o),
(529,-20,cs),
(851,-20,o),
(1056,160,o),
(1056,473,cs)
);
}
);
width = 1136;
},
{
layerId = "6B80B6C1-47AF-41BF-A29C-E15F80EDEA88";
shapes = (
{
closed = 1;
nodes = (
(844,1400,l),
(606,1400,l),
(606,436,l),
(606,288,o),
(532,208,o),
(406,208,c),
(310,208,o),
(200,262,o),
(108,362,c),
(-4,190,l),
(100,64,o),
(240,-10,o),
(408,-10,c),
(678,-10,o),
(844,150,o),
(844,430,c)
);
}
);
width = 998;
}
);
leftKerningGroup = J;
rightKerningGroup = U;
unicode = 74;
}
{
glyphname = K;
layers = (
{
anchors = (
{
name = bottom;
position = "{670, 0}";
},
{
name = top;
position = "{670, 1400}";
}
);
layerId = "B026C813-5E74-43B8-9BDA-38360344913A";
shapes = (
{
closed = 1;
nodes = (
(256,0,l),
(296,0,l),
(296,383,l),
(1238,1400,l),
(1182,1400,l),
(296,441,l),
(296,1400,l),
(256,1400,l)
);
},
{
closed = 1;
nodes = (
(617,753,l),
(1228,0,l),
(1282,0,l),
(641,789,l)
);
}
);
width = 1342;
},
{
anchors = (
{
name = bottom;
position = "{744, 0}";
},
{
name = top;
position = "{744, 1400}";
}
);
layerId = "ED22C04F-3B1D-41D7-8242-D57D8DACD8E1";
shapes = (
{
closed = 1;
nodes = (
(100,0,l),
(563,0,l),
(563,339,l),
(1514,1400,l),
(981,1400,l),
(563,889,l),
(563,1400,l),
(100,1400,l)
);
},
{
closed = 1;
nodes = (
(673,523,l),
(991,0,l),
(1544,0,l),
(983,887,l)
);
}
);
width = 1544;
},
{
anchors = (
{
name = bottom;
position = "{706, 0}";
},
{
name = top;
position = "{706, 1400}";
}
);
layerId = "6620CA85-00CC-482E-8046-24C727E4DEBF";
shapes = (
{
closed = 1;
nodes = (
(184,0,l),
(420,0,l),
(420,362,l),
(1366,1400,l),
(1088,1400,l),
(420,648,l),
(420,1400,l),
(184,1400,l)
);
},
{
closed = 1;
nodes = (
(642,646,l),
(1118,0,l),
(1402,0,l),
(798,834,l)
);
}
);
width = 1436;
}
);
leftKerningGroup = H;
rightKerningGroup = K;
unicode = 75;
}
{
glyphname = L;
layers = (
{
anchors = (
{
name = bottom;
position = "{624, 0}";
},
{
name = center;
position = "{898, 878}";
},
{
name = top;
position = "{318, 1400}";
},
{
name = topright;
position = "{830, 1400}";
}
);
guides = (
{
angle = 90;
position = "{834, 0}";
}
);
layerId = "3E08A46C-BB86-4C4A-83AF-B3C64A14215C";
name = "#instance";
shapes = (
{
closed = 1;
nodes = (
(100,0,l),
(1146,0,l),
(1146,385,l),
(563,385,l),
(563,1400,l),
(100,1400,l)
);
}
);
width = 1166;
},
{
anchors = (
{
name = bottom;
position = "{590, 0}";
},
{
name = center;
position = "{764, 782}";
},
{
name = top;
position = "{296, 1400}";
},
{
name = topright;
position = "{884, 1400}";
}
);
guides = (
{
angle = 90;
position = "{923, 0}";
}
);
layerId = "530FD3FD-5444-46AA-B51A-11B2B68AE76D";
shapes = (
{
closed = 1;
nodes = (
(256,0,l),
(923,0,l),
(923,40,l),
(296,40,l),
(296,1400,l),
(256,1400,l)
);
}
);
width = 984;
},
{
anchors = (
{
name = bottom;
position = "{624, 0}";
},
{
name = center;
position = "{898, 878}";
},
{
name = top;
position = "{318, 1400}";
},
{
name = topright;
position = "{830, 1400}";
}
);
guides = (
{
angle = 90;
position = "{1146, 0}";
}
);
layerId = "6D4C632D-5FF3-432A-8199-1F9B3F2CB990";
shapes = (
{
closed = 1;
nodes = (
(100,0,l),
(1146,0,l),
(1146,385,l),
(563,385,l),
(563,1400,l),
(100,1400,l)
);
}
);
width = 1166;
},
{
anchors = (
{
name = bottom;
position = "{606, 0}";
},
{
name = center;
position = "{834, 800}";
},
{
name = top;
position = "{306, 1398}";
},
{
name = topright;
position = "{810, 1400}";
}
);
guides = (
{
angle = 90;
position = "{834, 0}";
}
);
layerId = "6B80B6C1-47AF-41BF-A29C-E15F80EDEA88";
shapes = (
{
closed = 1;
nodes = (
(184,0,l),
(1026,0,l),
(1026,202,l),
(420,202,l),
(420,1400,l),
(184,1400,l)
);
}
);
width = 1068;
}
);
leftKerningGroup = H;
rightKerningGroup = L;
unicode = 76;
}
{
glyphname = M;
layers = (
{
layerId = "3E08A46C-BB86-4C4A-83AF-B3C64A14215C";
name = "#instance";
shapes = (
{
closed = 1;
nodes = (
(100,0,l),
(505,0,l),
(505,767,l),
(787,136,l),
(1088,136,l),
(1370,767,l),
(1370,0,l),
(1775,0,l),
(1775,1400,l),
(1284,1400,l),
(939,669,l),
(591,1400,l),
(100,1400,l)
);
}
);
width = 1876;
},
{
layerId = "530FD3FD-5444-46AA-B51A-11B2B68AE76D";
shapes = (
{
closed = 1;
nodes = (
(256,0,l),
(296,0,l),
(296,1362,l),
(933,154,l),
(937,154,l),
(1572,1362,l),
(1574,0,l),
(1614,0,l),
(1614,1400,l),
(1544,1400,l),
(937,240,l),
(326,1400,l),
(256,1400,l)
);
}
);
width = 1870;
},
{
layerId = "6D4C632D-5FF3-432A-8199-1F9B3F2CB990";
shapes = (
{
closed = 1;
nodes = (
(100,0,l),
(505,0,l),
(505,767,l),
(787,136,l),
(1088,136,l),
(1370,767,l),
(1370,0,l),
(1775,0,l),
(1775,1400,l),
(1284,1400,l),
(939,669,l),
(591,1400,l),
(100,1400,l)
);
}
);
width = 1876;
},
{
layerId = "6B80B6C1-47AF-41BF-A29C-E15F80EDEA88";
shapes = (
{
closed = 1;
nodes = (
(184,0,l),
(402,0,l),
(402,1070,l),
(866,146,l),
(1016,146,l),
(1476,1070,l),
(1478,0,l),
(1696,0,l),
(1696,1400,l),
(1422,1400,l),
(942,450,l),
(458,1400,l),
(184,1400,l)
);
}
);
width = 1880;
}
);
leftKerningGroup = H;
rightKerningGroup = H;
unicode = 77;
}
{
glyphname = N;
layers = (
{
layerId = "E8FC7CDB-EB64-4B8C-83EE-9B2B76976C4E";
shapes = (
{
closed = 1;
nodes = (
(100,0,l),
(521,0,l),
(521,917,l),
(397,875,l),
(1072,0,l),
(1460,0,l),
(1460,1400,l),
(1040,1400,l),
(1040,479,l),
(1164,521,l),
(487,1400,l),
(100,1400,l)
);
}
);
width = 1560;
},
{
layerId = "17E3EB7E-1F08-45A4-8E6B-D8F983509A13";
shapes = (
{
closed = 1;
nodes = (
(184,0,l),
(420,0,l),
(420,1128,l),
(358,1108,l),
(1166,0,l),
(1398,0,l),
(1398,1400,l),
(1166,1400,l),
(1166,270,l),
(1226,290,l),
(416,1400,l),
(184,1400,l)
);
}
);
width = 1584;
},
{
layerId = "59F18BB4-F2E3-4803-AEEB-FBD371085F85";
shapes = (
{
closed = 1;
nodes = (
(256,0,l),
(296,0,l),
(296,1378,l),
(286,1374,l),
(1284,0,l),
(1344,0,l),
(1344,1400,l),
(1304,1400,l),
(1304,22,l),
(1314,26,l),
(316,1400,l),
(256,1400,l)
);
}
);
width = 1600;
}
);
leftKerningGroup = H;
rightKerningGroup = H;
unicode = 78;
}
{
glyphname = O;
layers = (
{
anchors = (
{
name = bottom;
position = "{798, 0}";
},
{
name = center;
position = "{798, 702}";
},
{
name = ogonek;
position = "{1288, 0}";
},
{
name = top;
position = "{798, 1400}";
},
{
name = topleft;
position = "{40, 1416}";
},
{
name = topright;
position = "{1124, 1400}";
}
);
guides = (
{
angle = 90;
position = "{955, 0}";
}
);
layerId = "7132A246-D2BE-45EF-90A2-0D7A42C907F4";
shapes = (
{
closed = 1;
nodes = (
(353,1430,o),
(30,1126,o),
(30,703,cs),
(30,278,o),
(353,-32,o),
(799,-32,cs),
(1244,-32,o),
(1568,280,o),
(1568,703,cs),
(1568,1124,o),
(1244,1430,o),
(799,1430,cs)
);
},
{
closed = 1;
nodes = (
(965,1044,o),
(1092,901,o),
(1092,701,cs),
(1092,501,o),
(965,353,o),
(805,353,cs),
(645,353,o),
(505,501,o),
(505,701,cs),
(505,901,o),
(643,1044,o),
(805,1044,cs)
);
}
);
width = 1598;
},
{
anchors = (
{
name = bottom;
position = "{810, 0}";
},
{
name = center;
position = "{810, 702}";
},
{
name = ogonek;
position = "{1212, 0}";
},
{
name = top;
position = "{810, 1400}";
},
{
name = topleft;
position = "{40, 1408}";
},
{
name = topright;
position = "{1152, 1400}";
}
);
guides = (
{
angle = 90;
position = "{940, 0}";
}
);
layerId = "D0849346-794E-4F15-8942-BE6C34F6B6A6";
shapes = (
{
closed = 1;
nodes = (
(392,1414,o),
(68,1104,o),
(68,702,cs),
(68,300,o),
(392,-16,o),
(810,-16,cs),
(1228,-16,o),
(1552,300,o),
(1552,702,cs),
(1552,1102,o),
(1228,1414,o),
(810,1414,cs)
);
},
{
closed = 1;
nodes = (
(1086,1214,o),
(1310,988,o),
(1310,702,cs),
(1310,414,o),
(1086,184,o),
(812,184,cs),
(538,184,o),
(308,414,o),
(308,702,cs),
(308,988,o),
(536,1214,o),
(812,1214,cs)
);
}
);
width = 1620;
},
{
anchors = (
{
name = bottom;
position = "{820, 0}";
},
{
name = center;
position = "{820, 702}";
},
{
name = ogonek;
position = "{1184, 0}";
},
{
name = top;
position = "{820, 1400}";
},
{
name = topleft;
position = "{40, 1408}";
},
{
name = topright;
position = "{1148, 1400}";
}
);
guides = (
{
angle = 90;
position = "{1158, 0}";
}
);
layerId = "A37310BC-51AC-4F96-8729-E7F4F8535551";
shapes = (
{
closed = 1;
nodes = (
(425,1408,o),
(100,1090,o),
(100,703,cs),
(100,314,o),
(425,-6,o),
(819,-6,cs),
(1214,-6,o),
(1538,314,o),
(1538,703,cs),
(1538,1090,o),
(1214,1408,o),
(819,1408,cs)
);
},
{
closed = 1;
nodes = (
(1192,1368,o),
(1498,1067,o),
(1498,703,cs),
(1498,336,o),
(1192,34,o),
(819,34,cs),
(447,34,o),
(140,336,o),
(140,703,cs),
(140,1067,o),
(447,1368,o),
(819,1368,cs)
);
}
);
width = 1638;
}
);
leftKerningGroup = O;
rightKerningGroup = O;
unicode = 79;
}
{
glyphname = P;
layers = (
{
layerId = "3FDA15A3-2E5D-4DE0-8D90-0C5D946D3754";
shapes = (
{
closed = 1;
nodes = (
(100,1400,l),
(100,0,l),
(563,0,l),
(563,565,l),
(361,363,l),
(757,363,ls),
(1120,363,o),
(1330,559,o),
(1330,899,cs),
(1330,1218,o),
(1120,1400,o),
(757,1400,cs)
);
},
{
closed = 1;
nodes = (
(361,715,l),
(563,513,l),
(563,1250,l),
(361,1048,l),
(733,1048,ls),
(833,1048,o),
(891,989,o),
(891,885,cs),
(891,777,o),
(833,715,o),
(733,715,cs)
);
}
);
width = 1370;
},
{
layerId = "9BB73D9E-E1CF-483B-8FF3-2862F5B712F7";
shapes = (
{
closed = 1;
nodes = (
(184,1400,l),
(184,0,l),
(420,0,l),
(420,530,l),
(316,426,l),
(742,426,ls),
(1094,426,o),
(1296,608,o),
(1296,924,cs),
(1296,1226,o),
(1094,1400,o),
(742,1400,cs)
);
},
{
closed = 1;
nodes = (
(316,628,l),
(420,524,l),
(420,1302,l),
(316,1198,l),
(732,1198,ls),
(948,1198,o),
(1070,1108,o),
(1070,918,cs),
(1070,722,o),
(948,628,o),
(732,628,cs)
);
}
);
width = 1346;
},
{
layerId = "60C6F403-B830-40DC-BC91-C1CD2FDD7472";
shapes = (
{
closed = 1;
nodes = (
(256,1400,l),
(256,0,l),
(296,0,l),
(296,499,l),
(278,481,l),
(731,481,ls),
(1071,481,o),
(1266,651,o),
(1266,945,cs),
(1266,1234,o),
(1071,1400,o),
(731,1400,cs)
);
},
{
closed = 1;
nodes = (
(278,521,l),
(296,503,l),
(296,1378,l),
(278,1360,l),
(731,1360,ls),
(1045,1360,o),
(1226,1210,o),
(1226,945,cs),
(1226,675,o),
(1045,521,o),
(731,521,cs)
);
}
);
width = 1326;
}
);
leftKerningGroup = H;
rightKerningGroup = P;
unicode = 80;
}
{
glyphname = Q;
layers = (
{
layerId = "44F31DE3-6275-4047-A512-8F1231668C9E";
associatedMasterId = "3FDA15A3-2E5D-4DE0-8D90-0C5D946D3754";
name = "Bold [170]";
shapes = (
{
closed = 1;
nodes = (
(590,-300,l),
(1010,-300,l),
(1010,278,l),
(590,278,l)
);
},
{
closed = 1;
nodes = (
(354,1432,o),
(30,1128,o),
(30,704,cs),
(30,278,o),
(354,-32,o),
(800,-32,cs),
(1246,-32,o),
(1570,280,o),
(1570,704,cs),
(1570,1126,o),
(1246,1432,o),
(800,1432,cs)
);
},
{
closed = 1;
nodes = (
(966,1046,o),
(1094,902,o),
(1094,702,cs),
(1094,502,o),
(966,354,o),
(806,354,cs),
(646,354,o),
(506,502,o),
(506,702,cs),
(506,902,o),
(644,1046,o),
(806,1046,cs)
);
}
);
width = 1600;
},
{
layerId = "3FDA15A3-2E5D-4DE0-8D90-0C5D946D3754";
shapes = (
{
closed = 1;
nodes = (
(354,1432,o),
(30,1128,o),
(30,704,cs),
(30,278,o),
(354,-32,o),
(800,-32,cs),
(1246,-32,o),
(1570,280,o),
(1570,704,cs),
(1570,1126,o),
(1246,1432,o),
(800,1432,cs)
);
},
{
closed = 1;
nodes = (
(966,1046,o),
(1094,902,o),
(1094,702,cs),
(1094,502,o),
(966,354,o),
(806,354,cs),
(646,354,o),
(506,502,o),
(506,702,cs),
(506,902,o),
(644,1046,o),
(806,1046,cs)
);
},
{
closed = 1;
nodes = (
(1354,-100,l),
(1570,148,l),
(942,740,l),
(728,492,l)
);
}
);
width = 1598;
},
{
layerId = "DBF8A4A9-426A-4B5A-B623-02BA070C9FAF";
associatedMasterId = "9BB73D9E-E1CF-483B-8FF3-2862F5B712F7";
name = "Regular [170]";
shapes = (
{
closed = 1;
nodes = (
(694,-280,l),
(926,-280,l),
(926,142,l),
(694,142,l)
);
},
{
closed = 1;
nodes = (
(392,1414,o),
(68,1104,o),
(68,702,cs),
(68,300,o),
(392,-16,o),
(810,-16,cs),
(1228,-16,o),
(1552,300,o),
(1552,702,cs),
(1552,1102,o),
(1228,1414,o),
(810,1414,cs)
);
},
{
closed = 1;
nodes = (
(1086,1214,o),
(1310,988,o),
(1310,702,cs),
(1310,414,o),
(1086,184,o),
(812,184,cs),
(538,184,o),
(308,414,o),
(308,702,cs),
(308,988,o),
(536,1214,o),
(812,1214,cs)
);
}
);
width = 1620;
},
{
layerId = "9BB73D9E-E1CF-483B-8FF3-2862F5B712F7";
shapes = (
{
closed = 1;
nodes = (
(392,1414,o),
(68,1104,o),
(68,702,cs),
(68,300,o),
(392,-16,o),
(810,-16,cs),
(1228,-16,o),
(1552,300,o),
(1552,702,cs),
(1552,1102,o),
(1228,1414,o),
(810,1414,cs)
);
},
{
closed = 1;
nodes = (
(1086,1214,o),
(1310,988,o),
(1310,702,cs),
(1310,414,o),
(1086,184,o),
(812,184,cs),
(538,184,o),
(308,414,o),
(308,702,cs),
(308,988,o),
(536,1214,o),
(812,1214,cs)
);
},
{
closed = 1;
nodes = (
(1426,-80,l),
(1563,67,l),
(955,639,l),
(820,492,l)
);
}
);
width = 1620;
},
{
layerId = "60C6F403-B830-40DC-BC91-C1CD2FDD7472";
shapes = (
{
closed = 1;
nodes = (
(424,1406,o),
(100,1088,o),
(100,702,cs),
(100,314,o),
(424,-6,o),
(818,-6,cs),
(1212,-6,o),
(1536,314,o),
(1536,702,cs),
(1536,1088,o),
(1212,1406,o),
(818,1406,cs)
);
},
{
closed = 1;
nodes = (
(1190,1366,o),
(1496,1066,o),
(1496,702,cs),
(1496,336,o),
(1190,34,o),
(818,34,cs),
(446,34,o),
(140,336,o),
(140,702,cs),
(140,1066,o),
(446,1366,o),
(818,1366,cs)
);
},
{
closed = 1;
nodes = (
(1486,-20,l),
(1514,6,l),
(918,568,l),
(890,542,l)
);
}
);
width = 1602;
}
);
leftKerningGroup = O;
rightKerningGroup = O;
unicode = 81;
}
{
glyphname = R;
layers = (
{
layerId = "3E08A46C-BB86-4C4A-83AF-B3C64A14215C";
name = "#instance";
shapes = (
{
closed = 1;
nodes = (
(100,1400,l),
(100,0,l),
(563,0,l),
(563,363,l),
(777,363,ls),
(1156,363,o),
(1374,559,o),
(1374,899,cs),
(1374,1218,o),
(1156,1400,o),
(777,1400,cs)
);
},
{
closed = 1;
nodes = (
(563,715,l),
(563,1048,l),
(777,1048,ls),
(877,1048,o),
(935,989,o),
(935,885,cs),
(935,777,o),
(877,715,o),
(777,715,cs)
);
},
{
closed = 1;
nodes = (
(905,0,l),
(1428,0,l),
(1106,529,l),
(659,529,l)
);
}
);
width = 1476;
},
{
layerId = "530FD3FD-5444-46AA-B51A-11B2B68AE76D";
shapes = (
{
closed = 1;
nodes = (
(256,1400,l),
(256,0,l),
(296,0,l),
(296,481,l),
(731,481,ls),
(1071,481,o),
(1266,651,o),
(1266,945,cs),
(1266,1234,o),
(1071,1400,o),
(731,1400,cs)
);
},
{
closed = 1;
nodes = (
(296,521,l),
(296,1360,l),
(731,1360,ls),
(1045,1360,o),
(1226,1210,o),
(1226,945,cs),
(1226,675,o),
(1045,521,o),
(731,521,cs)
);
},
{
closed = 1;
nodes = (
(1216,0,l),
(1266,0,l),
(895,509,l),
(845,509,l)
);
}
);
width = 1446;
},
{
layerId = "6D4C632D-5FF3-432A-8199-1F9B3F2CB990";
shapes = (
{
closed = 1;
nodes = (
(100,1400,l),
(100,0,l),
(563,0,l),
(563,363,l),
(777,363,ls),
(1156,363,o),
(1374,559,o),
(1374,899,cs),
(1374,1218,o),
(1156,1400,o),
(777,1400,cs)
);
},
{
closed = 1;
nodes = (
(563,715,l),
(563,1048,l),
(777,1048,ls),
(877,1048,o),
(935,989,o),
(935,885,cs),
(935,777,o),
(877,715,o),
(777,715,cs)
);
},
{
closed = 1;
nodes = (
(905,0,l),
(1428,0,l),
(1106,529,l),
(659,529,l)
);
}
);
width = 1476;
},
{
layerId = "6B80B6C1-47AF-41BF-A29C-E15F80EDEA88";
shapes = (
{
closed = 1;
nodes = (
(184,1400,l),
(184,0,l),
(420,0,l),
(420,426,l),
(752,426,ls),
(1110,426,o),
(1316,608,o),
(1316,924,cs),
(1316,1226,o),
(1110,1400,o),
(752,1400,cs)
);
},
{
closed = 1;
nodes = (
(420,628,l),
(420,1198,l),
(752,1198,ls),
(968,1198,o),
(1092,1108,o),
(1092,918,cs),
(1092,722,o),
(968,628,o),
(752,628,cs)
);
},
{
closed = 1;
nodes = (
(1072,0,l),
(1340,0,l),
(992,518,l),
(760,518,l)
);
}
);
width = 1446;
}
);
leftKerningGroup = H;
rightKerningGroup = R;
unicode = 82;
}
{
glyphname = S;
layers = (
{
anchors = (
{
name = bottom;
position = "{594, 0}";
},
{
name = top;
position = "{574, 1400}";
}
);
layerId = "530FD3FD-5444-46AA-B51A-11B2B68AE76D";
shapes = (
{
closed = 1;
nodes = (
(978,1306,l),
(874,1372,o),
(730,1408,o),
(604,1408,cs),
(410,1408,o),
(158,1330,o),
(158,1096,cs),
(158,580,o),
(996,826,o),
(996,338,cs),
(996,108,o),
(752,34,o),
(560,34,cs),
(398,34,o),
(222,100,o),
(110,220,c),
(82,192,l),
(202,68,o),
(388,-6,o),
(560,-6,cs),
(776,-6,o),
(1036,82,o),
(1036,338,cs),
(1036,866,o),
(198,620,o),
(198,1094,cs),
(198,1304,o),
(434,1368,o),
(604,1368,cs),
(722,1368,o),
(860,1338,o),
(958,1274,c)
);
}
);
width = 1188;
},
{
anchors = (
{
name = bottom;
position = "{688, 0}";
},
{
name = top;
position = "{716, 1400}";
}
);
layerId = "6D4C632D-5FF3-432A-8199-1F9B3F2CB990";
shapes = (
{
closed = 1;
nodes = (
(1316,1268,l),
(1158,1368,o),
(929,1436,o),
(707,1436,cs),
(343,1436,o),
(108,1258,o),
(108,975,cs),
(108,473,o),
(833,597,o),
(833,407,cs),
(833,353,o),
(789,330,o),
(721,330,cs),
(579,330,o),
(332,427,o),
(188,551,c),
(16,202,l),
(202,58,o),
(473,-26,o),
(717,-26,cs),
(1032,-26,o),
(1306,116,o),
(1306,431,cs),
(1306,947,o),
(581,833,o),
(581,1018,cs),
(581,1062,o),
(615,1080,o),
(667,1080,cs),
(789,1080,o),
(1006,997,o),
(1148,915,c)
);
}
);
width = 1326;
},
{
anchors = (
{
name = bottom;
position = "{632, 0}";
},
{
name = top;
position = "{638, 1400}";
}
);
layerId = "6B80B6C1-47AF-41BF-A29C-E15F80EDEA88";
shapes = (
{
closed = 1;
nodes = (
(1134,1274,l),
(992,1368,o),
(814,1418,o),
(644,1418,cs),
(404,1418,o),
(134,1310,o),
(134,1030,cs),
(134,526,o),
(890,706,o),
(890,380,cs),
(890,238,o),
(744,198,o),
(628,198,cs),
(454,198,o),
(278,288,o),
(154,404,c),
(52,210,l),
(206,68,o),
(414,-14,o),
(624,-14,cs),
(874,-14,o),
(1152,104,o),
(1152,392,cs),
(1152,900,o),
(398,730,o),
(398,1048,cs),
(398,1170,o),
(526,1204,o),
(626,1204,cs),
(768,1204,o),
(916,1150,o),
(1036,1076,c)
);
}
);
width = 1244;
}
);
leftKerningGroup = S;
rightKerningGroup = S;
unicode = 83;
}
{
glyphname = T;
layers = (
{
layerId = "E8FC7CDB-EB64-4B8C-83EE-9B2B76976C4E";
shapes = (
{
closed = 1;
nodes = (
(10,1034,l),
(407,1034,l),
(407,0,l),
(871,0,l),
(871,1034,l),
(1270,1034,l),
(1270,1400,l),
(10,1400,l)
);
}
);
width = 1280;
},
{
layerId = "17E3EB7E-1F08-45A4-8E6B-D8F983509A13";
shapes = (
{
closed = 1;
nodes = (
(18,1198,l),
(460,1198,l),
(460,0,l),
(696,0,l),
(696,1198,l),
(1140,1198,l),
(1140,1400,l),
(18,1400,l)
);
}
);
width = 1158;
},
{
layerId = "59F18BB4-F2E3-4803-AEEB-FBD371085F85";
shapes = (
{
closed = 1;
nodes = (
(26,1360,l),
(507,1360,l),
(507,0,l),
(547,0,l),
(547,1360,l),
(1027,1360,l),
(1027,1400,l),
(26,1400,l)
);
}
);
width = 1054;
}
);
leftKerningGroup = T;
rightKerningGroup = T;
unicode = 84;
}
{
glyphname = U;
layers = (
{
anchors = (
{
name = bottom;
position = "{740, 0}";
},
{
name = ogonek;
position = "{1216, 0}";
},
{
name = top;
position = "{740, 1400}";
},
{
name = topright;
position = "{1260, 1400}";
}
);
layerId = "E8FC7CDB-EB64-4B8C-83EE-9B2B76976C4E";
shapes = (
{
closed = 1;
nodes = (
(543,1400,l),
(80,1400,l),
(80,581,ls),
(80,210,o),
(345,-32,o),
(745,-32,cs),
(1142,-32,o),
(1400,210,o),
(1400,581,cs),
(1400,1400,l),
(937,1400,l),
(937,581,ls),
(937,441,o),
(853,353,o),
(747,353,cs),
(639,353,o),
(543,443,o),
(543,581,cs)
);
}
);
width = 1480;
},
{
anchors = (
{
name = bottom;
position = "{760, 0}";
},
{
name = ogonek;
position = "{1152, 0}";
},
{
name = top;
position = "{760, 1400}";
},
{
name = topright;
position = "{1302, 1400}";
}
);
layerId = "17E3EB7E-1F08-45A4-8E6B-D8F983509A13";
shapes = (
{
closed = 1;
nodes = (
(392,1400,l),
(156,1400,l),
(156,574,ls),
(156,208,o),
(386,-16,o),
(762,-16,cs),
(1134,-16,o),
(1362,208,o),
(1362,574,cs),
(1362,1400,l),
(1126,1400,l),
(1126,574,ls),
(1126,328,o),
(986,184,o),
(762,184,cs),
(536,184,o),
(392,330,o),
(392,574,cs)
);
}
);
width = 1518;
},
{
anchors = (
{
name = bottom;
position = "{776, 0}";
},
{
name = ogonek;
position = "{1134, 0}";
},
{
name = top;
position = "{776, 1400}";
},
{
name = topright;
position = "{1310, 1400}";
}
);
layerId = "59F18BB4-F2E3-4803-AEEB-FBD371085F85";
shapes = (
{
closed = 1;
nodes = (
(260,1400,l),
(220,1400,l),
(220,563,ls),
(220,200,o),
(423,-6,o),
(775,-6,cs),
(1128,-6,o),
(1330,200,o),
(1330,563,cs),
(1330,1400,l),
(1290,1400,l),
(1290,563,ls),
(1290,226,o),
(1102,34,o),
(775,34,cs),
(449,34,o),
(260,226,o),
(260,563,cs)
);
}
);
width = 1550;
}
);
leftKerningGroup = U;
rightKerningGroup = U;
unicode = 85;
}
{
glyphname = V;
layers = (
{
layerId = "3FDA15A3-2E5D-4DE0-8D90-0C5D946D3754";
shapes = (
{
closed = 1;
nodes = (
(522,0,l),
(1000,0,l),
(1536,1400,l),
(1062,1400,l),
(774,482,l),
(486,1400,l),
(-10,1400,l)
);
}
);
width = 1526;
},
{
layerId = "9BB73D9E-E1CF-483B-8FF3-2862F5B712F7";
shapes = (
{
closed = 1;
nodes = (
(564,0,l),
(808,0,l),
(1374,1400,l),
(1128,1400,l),
(692,248,l),
(260,1400,l),
(6,1400,l)
);
}
);
width = 1380;
},
{
layerId = "60C6F403-B830-40DC-BC91-C1CD2FDD7472";
shapes = (
{
closed = 1;
nodes = (
(604,0,l),
(648,0,l),
(1234,1400,l),
(1186,1400,l),
(626,46,l),
(66,1400,l),
(20,1400,l)
);
}
);
width = 1254;
}
);
leftKerningGroup = V;
rightKerningGroup = V;
unicode = 86;
}
{
glyphname = W;
layers = (
{
anchors = (
{
name = bottom;
position = "{1122, 0}";
},
{
name = top;
position = "{1122, 1402}";
}
);
layerId = "B19788BE-CC02-4ADD-9F5B-5932FD5AA09A";
associatedMasterId = "7132A246-D2BE-45EF-90A2-0D7A42C907F4";
name = "Nov 24 16, 19:29";
shapes = (
{
closed = 1;
nodes = (
(444,0,l),
(922,0,l),
(1122,838,l),
(1316,0,l),
(1794,0,l),
(2252,1402,l),
(1778,1402,l),
(1570,482,l),
(1358,1402,l),
(906,1402,l),
(698,482,l),
(486,1402,l),
(-10,1402,l)
);
}
);
width = 2242;
},
{
anchors = (
{
name = bottom;
position = "{1150, 0}";
},
{
name = top;
position = "{1150, 1400}";
}
);
layerId = "7132A246-D2BE-45EF-90A2-0D7A42C907F4";
shapes = (
{
closed = 1;
nodes = (
(459,0,l),
(935,0,l),
(1200,1032,l),
(1100,1032,l),
(1360,0,l),
(1835,0,l),
(2309,1400,l),
(1835,1400,l),
(1566,286,l),
(1662,286,l),
(1386,1400,l),
(935,1400,l),
(663,286,l),
(759,286,l),
(485,1400,l),
(-10,1400,l)
);
}
);
width = 2298;
},
{
anchors = (
{
name = bottom;
position = "{1036, 0}";
},
{
name = top;
position = "{1036, 1400}";
}
);
layerId = "531A34E0-C0D4-468E-BB6C-C746C1229891";
associatedMasterId = "D0849346-794E-4F15-8942-BE6C34F6B6A6";
name = "Nov 24 16, 19:29";
shapes = (
{
closed = 1;
nodes = (
(470,0,l),
(714,0,l),
(1050,1110,l),
(1382,0,l),
(1624,0,l),
(2092,1400,l),
(1848,1400,l),
(1510,248,l),
(1170,1400,l),
(938,1400,l),
(600,248,l),
(260,1400,l),
(6,1400,l)
);
}
);
width = 2072;
},
{
anchors = (
{
name = bottom;
position = "{1064, 0}";
},
{
name = top;
position = "{1064, 1400}";
}
);
layerId = "D0849346-794E-4F15-8942-BE6C34F6B6A6";
shapes = (
{
closed = 1;
nodes = (
(478,0,l),
(720,0,l),
(1094,1208,l),
(1034,1210,l),
(1402,0,l),
(1646,0,l),
(2120,1400,l),
(1876,1400,l),
(1502,148,l),
(1562,148,l),
(1184,1400,l),
(952,1400,l),
(576,148,l),
(636,148,l),
(260,1400,l),
(6,1400,l)
);
}
);
width = 2126;
},
{
anchors = (
{
name = bottom;
position = "{990, 0}";
},
{
name = top;
position = "{990, 1400}";
}
);
layerId = "A37310BC-51AC-4F96-8729-E7F4F8535551";
shapes = (
{
closed = 1;
nodes = (
(495,0,l),
(537,0,l),
(995,1362,l),
(983,1362,l),
(1440,0,l),
(1482,0,l),
(1957,1400,l),
(1911,1400,l),
(1456,28,l),
(1468,28,l),
(1011,1400,l),
(965,1400,l),
(511,28,l),
(523,28,l),
(66,1400,l),
(20,1400,l)
);
}
);
width = 1976;
}
);
leftKerningGroup = V;
rightKerningGroup = V;
unicode = 87;
}
{
glyphname = X;
layers = (
{
layerId = "3E08A46C-BB86-4C4A-83AF-B3C64A14215C";
name = "#instance";
shapes = (
{
closed = 1;
nodes = (
(482,710,l),
(-10,0,l),
(532,0,l),
(762,362,l),
(998,0,l),
(1554,0,l),
(1058,732,l),
(1512,1400,l),
(966,1400,l),
(762,1070,l),
(560,1400,l),
(20,1400,l)
);
}
);
width = 1544;
},
{
layerId = "597E5423-42AA-4BDB-A82B-ABFF44542A10";
associatedMasterId = "530FD3FD-5444-46AA-B51A-11B2B68AE76D";
name = "Light Mar 13 12, 18:48";
shapes = (
{
closed = 1;
nodes = (
(70,0,l),
(118,0,l),
(1126,1398,l),
(1078,1398,l)
);
},
{
closed = 1;
nodes = (
(1116,0,l),
(1164,0,l),
(156,1398,l),
(108,1398,l)
);
}
);
width = 1234;
},
{
layerId = "530FD3FD-5444-46AA-B51A-11B2B68AE76D";
shapes = (
{
closed = 1;
nodes = (
(588,726,l),
(66,0,l),
(114,0,l),
(612,692,l),
(1114,0,l),
(1162,0,l),
(636,726,l),
(1124,1400,l),
(1076,1400,l),
(612,760,l),
(152,1400,l),
(104,1400,l)
);
}
);
width = 1248;
},
{
layerId = "6D4C632D-5FF3-432A-8199-1F9B3F2CB990";
shapes = (
{
closed = 1;
nodes = (
(482,710,l),
(-10,0,l),
(532,0,l),
(762,362,l),
(998,0,l),
(1554,0,l),
(1058,732,l),
(1512,1400,l),
(966,1400,l),
(762,1070,l),
(560,1400,l),
(20,1400,l)
);
}
);
width = 1544;
},
{
layerId = "6B80B6C1-47AF-41BF-A29C-E15F80EDEA88";
shapes = (
{
closed = 1;
nodes = (
(540,718,l),
(30,0,l),
(306,0,l),
(682,540,l),
(1060,0,l),
(1342,0,l),
(832,728,l),
(1302,1400,l),
(1026,1400,l),
(682,902,l),
(340,1400,l),
(66,1400,l)
);
}
);
width = 1384;
}
);
leftKerningGroup = X;
rightKerningGroup = X;
unicode = 88;
}
{
glyphname = Y;
layers = (
{
layerId = "3E08A46C-BB86-4C4A-83AF-B3C64A14215C";
name = "#instance";
shapes = (
{
closed = 1;
nodes = (
(693,40,l),
(749,40,l),
(1456,1400,l),
(995,1400,l),
(723,861,l),
(441,1400,l),
(-20,1400,l)
);
},
{
closed = 1;
nodes = (
(491,0,l),
(955,0,l),
(955,633,l),
(491,633,l)
);
}
);
width = 1436;
},
{
layerId = "530FD3FD-5444-46AA-B51A-11B2B68AE76D";
shapes = (
{
closed = 1;
nodes = (
(605,517,l),
(617,517,l),
(1194,1400,l),
(1146,1400,l),
(611,579,l),
(68,1400,l),
(20,1400,l)
);
},
{
closed = 1;
nodes = (
(591,0,l),
(631,0,l),
(631,555,l),
(591,555,l)
);
}
);
width = 1214;
},
{
layerId = "6D4C632D-5FF3-432A-8199-1F9B3F2CB990";
shapes = (
{
closed = 1;
nodes = (
(693,40,l),
(749,40,l),
(1456,1400,l),
(995,1400,l),
(723,861,l),
(441,1400,l),
(-20,1400,l)
);
},
{
closed = 1;
nodes = (
(491,0,l),
(955,0,l),
(955,633,l),
(491,633,l)
);
}
);
width = 1436;
},
{
layerId = "6B80B6C1-47AF-41BF-A29C-E15F80EDEA88";
shapes = (
{
closed = 1;
nodes = (
(622,296,l),
(656,296,l),
(1272,1400,l),
(1032,1400,l),
(640,708,l),
(240,1400,l),
(2,1400,l)
);
},
{
closed = 1;
nodes = (
(524,0,l),
(758,0,l),
(758,590,l),
(524,590,l)
);
}
);
width = 1274;
}
);
leftKerningGroup = Y;
rightKerningGroup = Y;
unicode = 89;
}
{
glyphname = Z;
layers = (
{
layerId = "E8FC7CDB-EB64-4B8C-83EE-9B2B76976C4E";
shapes = (
{
closed = 1;
nodes = (
(64,1044,l),
(693,1044,l),
(40,290,l),
(40,0,l),
(1324,0,l),
(1324,355,l),
(657,355,l),
(1310,1110,l),
(1310,1400,l),
(64,1400,l)
);
}
);
width = 1364;
},
{
layerId = "17E3EB7E-1F08-45A4-8E6B-D8F983509A13";
shapes = (
{
closed = 1;
nodes = (
(100,1198,l),
(928,1198,l),
(74,160,l),
(74,0,l),
(1256,0,l),
(1256,202,l),
(394,202,l),
(1246,1240,l),
(1246,1400,l),
(100,1400,l)
);
}
);
width = 1332;
},
{
layerId = "59F18BB4-F2E3-4803-AEEB-FBD371085F85";
shapes = (
{
closed = 1;
nodes = (
(132,1360,l),
(1152,1360,l),
(104,50,l),
(104,0,l),
(1198,0,l),
(1198,40,l),
(144,40,l),
(1192,1350,l),
(1192,1400,l),
(132,1400,l)
);
}
);
width = 1302;
}
);
leftKerningGroup = Z;
rightKerningGroup = Z;
unicode = 90;
}
{
glyphname = bracketleft;
layers = (
{
layerId = "3FDA15A3-2E5D-4DE0-8D90-0C5D946D3754";
shapes = (
{
closed = 1;
nodes = (
(108,-248,l),
(742,-248,l),
(742,84,l),
(508,84,l),
(508,1152,l),
(742,1152,l),
(742,1484,l),
(108,1484,l)
);
}
);
width = 762;
},
{
layerId = "9BB73D9E-E1CF-483B-8FF3-2862F5B712F7";
shapes = (
{
closed = 1;
nodes = (
(164,-248,l),
(618,-248,l),
(618,-74,l),
(370,-74,l),
(370,1310,l),
(618,1310,l),
(618,1484,l),
(164,1484,l)
);
}
);
width = 658;
},
{
layerId = "60C6F403-B830-40DC-BC91-C1CD2FDD7472";
shapes = (
{
closed = 1;
nodes = (
(216,-248,l),
(514,-248,l),
(514,-208,l),
(256,-208,l),
(256,1444,l),
(514,1444,l),
(514,1484,l),
(216,1484,l)
);
}
);
width = 568;
}
);
leftKerningGroup = bracketleft;
rightKerningGroup = braceleft;
unicode = 91;
}
{
glyphname = bracketright;
layers = (
{
layerId = "E8FC7CDB-EB64-4B8C-83EE-9B2B76976C4E";
shapes = (
{
closed = 1;
nodes = (
(654,-248,l),
(20,-248,l),
(20,84,l),
(254,84,l),
(254,1152,l),
(20,1152,l),
(20,1484,l),
(654,1484,l)
);
}
);
width = 762;
},
{
layerId = "17E3EB7E-1F08-45A4-8E6B-D8F983509A13";
shapes = (
{
closed = 1;
nodes = (
(494,-248,l),
(40,-248,l),
(40,-74,l),
(288,-74,l),
(288,1310,l),
(40,1310,l),
(40,1484,l),
(494,1484,l)
);
}
);
width = 658;
},
{
layerId = "59F18BB4-F2E3-4803-AEEB-FBD371085F85";
shapes = (
{
closed = 1;
nodes = (
(352,-248,l),
(54,-248,l),
(54,-208,l),
(312,-208,l),
(312,1444,l),
(54,1444,l),
(54,1484,l),
(352,1484,l)
);
}
);
width = 568;
}
);
leftKerningGroup = braceright;
rightKerningGroup = bracketright;
unicode = 93;
}
{
glyphname = asciicircum;
layers = (
{
layerId = "3E08A46C-BB86-4C4A-83AF-B3C64A14215C";
name = "#instance";
shapes = (
{
closed = 1;
nodes = (
(788,1400,l),
(431,1400,l),
(61,640,l),
(373,640,l),
(610,1163,l),
(846,640,l),
(1158,640,l)
);
}
);
width = 1216;
},
{
layerId = "530FD3FD-5444-46AA-B51A-11B2B68AE76D";
shapes = (
{
closed = 1;
nodes = (
(504,1400,l),
(452,1400,l),
(80,600,l),
(124,600,l),
(478,1362,l),
(832,600,l),
(876,600,l)
);
}
);
width = 956;
},
{
layerId = "6D4C632D-5FF3-432A-8199-1F9B3F2CB990";
shapes = (
{
closed = 1;
nodes = (
(788,1400,l),
(431,1400,l),
(61,640,l),
(373,640,l),
(610,1163,l),
(846,640,l),
(1158,640,l)
);
}
);
width = 1216;
},
{
layerId = "6B80B6C1-47AF-41BF-A29C-E15F80EDEA88";
shapes = (
{
closed = 1;
nodes = (
(634,1400,l),
(442,1400,l),
(70,612,l),
(238,612,l),
(538,1258,l),
(836,612,l),
(1004,612,l)
);
}
);
width = 1074;
}
);
leftKerningGroup = asciicircum;
rightKerningGroup = asciicircum;
unicode = 94;
}
{
glyphname = underscore;
layers = (
{
layerId = "8F4E32AC-E022-4D39-97B2-6A8CA1DCECD9";
shapes = (
{
closed = 1;
nodes = (
(0,-408,l),
(1198,-408,l),
(1198,-168,l),
(0,-168,l)
);
}
);
width = 1198;
},
{
layerId = "A0A167AB-9D0E-40C0-91B8-4D2A22A7768E";
shapes = (
{
closed = 1;
nodes = (
(0,-408,l),
(1132,-408,l),
(1132,-276,l),
(0,-276,l)
);
}
);
width = 1132;
},
{
layerId = "4D1A9A15-4E4F-4ADE-8E9B-C4DB08FE4288";
shapes = (
{
closed = 1;
nodes = (
(0,-408,l),
(1074,-408,l),
(1074,-368,l),
(0,-368,l)
);
}
);
width = 1074;
}
);
leftKerningGroup = underscore;
rightKerningGroup = underscore;
unicode = 95;
}
{
glyphname = a;
layers = (
{
anchors = (
{
name = bottom;
position = "{570, 0}";
},
{
name = ogonek;
position = "{938, 0}";
},
{
name = top;
position = "{566, 1034}";
}
);
layerId = "530FD3FD-5444-46AA-B51A-11B2B68AE76D";
shapes = (
{
closed = 1;
nodes = (
(916,524,l),
(916,564,l),
(510,564,ls),
(274,564,o),
(126,466,o),
(126,298,cs),
(126,126,o),
(262,0,o),
(462,0,cs),
(676,0,o),
(848,94,o),
(934,312,c),
(898,328,l),
(816,122,o),
(666,40,o),
(464,40,cs),
(282,40,o),
(166,146,o),
(166,298,cs),
(166,442,o),
(290,524,o),
(510,524,cs)
);
},
{
closed = 1;
nodes = (
(898,0,l),
(938,0,l),
(934,690,l),
(932,900,o),
(804,1034,o),
(566,1034,cs),
(420,1034,o),
(296,974,o),
(180,882,c),
(204,850,l),
(316,938,o),
(428,994,o),
(566,994,cs),
(784,994,o),
(892,880,o),
(894,690,c)
);
}
);
width = 1124;
},
{
anchors = (
{
name = bottom;
position = "{570, 0}";
},
{
name = ogonek;
position = "{1032, 0}";
},
{
name = top;
position = "{636, 1094}";
}
);
layerId = "6D4C632D-5FF3-432A-8199-1F9B3F2CB990";
shapes = (
{
closed = 1;
nodes = (
(742,450,l),
(742,658,l),
(454,658,ls),
(176,658,o),
(30,540,o),
(30,324,cs),
(30,116,o),
(164,-20,o),
(396,-20,cs),
(582,-20,o),
(704,68,o),
(756,218,c),
(704,350,l),
(668,296,o),
(610,266,o),
(552,266,cs),
(488,266,o),
(452,302,o),
(452,362,cs),
(452,420,o),
(486,450,o),
(548,450,cs)
);
},
{
closed = 1;
nodes = (
(704,0,l),
(1146,0,l),
(1146,708,ls),
(1146,966,o),
(958,1114,o),
(642,1114,cs),
(480,1114,o),
(288,1076,o),
(102,1008,c),
(202,708,l),
(326,754,o),
(452,778,o),
(534,778,cs),
(646,778,o),
(704,732,o),
(704,654,c)
);
}
);
width = 1226;
},
{
anchors = (
{
name = bottom;
position = "{570, 0}";
},
{
name = ogonek;
position = "{1034, 0}";
},
{
name = top;
position = "{597, 1062}";
}
);
layerId = "6B80B6C1-47AF-41BF-A29C-E15F80EDEA88";
shapes = (
{
closed = 1;
nodes = (
(836,474,l),
(836,638,l),
(484,638,ls),
(228,638,o),
(82,512,o),
(82,320,cs),
(82,134,o),
(226,-10,o),
(456,-10,cs),
(646,-10,o),
(786,60,o),
(852,198,c),
(808,392,l),
(804,264,o),
(674,166,o),
(504,166,cs),
(376,166,o),
(298,230,o),
(298,328,cs),
(298,432,o),
(368,474,o),
(518,474,cs)
);
},
{
closed = 1;
nodes = (
(808,0,l),
(1034,0,l),
(1032,698,ls),
(1030,930,o),
(876,1070,o),
(602,1070,cs),
(400,1070,o),
(292,1022,o),
(144,932,c),
(238,784,l),
(344,856,o),
(450,894,o),
(552,894,cs),
(720,894,o),
(806,812,o),
(806,674,c)
);
}
);
width = 1172;
}
);
leftKerningGroup = a;
rightKerningGroup = n;
unicode = 97;
}
{
glyphname = c;
layers = (
{
anchors = (
{
name = bottom;
position = "{580, 0}";
},
{
name = top;
position = "{596, 1094}";
}
);
layerId = "7132A246-D2BE-45EF-90A2-0D7A42C907F4";
shapes = (
{
closed = 1;
nodes = (
(1126,794,l),
(1036,994,o),
(846,1110,o),
(608,1110,cs),
(258,1110,o),
(30,886,o),
(30,542,cs),
(30,204,o),
(256,-16,o),
(604,-16,cs),
(854,-16,o),
(1046,96,o),
(1126,290,c),
(762,458,l),
(738,376,o),
(692,340,o),
(628,340,cs),
(540,340,o),
(484,420,o),
(484,544,cs),
(484,666,o),
(540,746,o),
(628,746,cs),
(692,746,o),
(740,708,o),
(768,642,c)
);
}
);
width = 1122;
},
{
anchors = (
{
name = bottom;
position = "{578, 0}";
},
{
name = top;
position = "{608, 1062}";
}
);
layerId = "D0849346-794E-4F15-8942-BE6C34F6B6A6";
shapes = (
{
closed = 1;
nodes = (
(1046,906,l),
(948,1010,o),
(798,1070,o),
(606,1070,cs),
(290,1070,o),
(70,850,o),
(70,530,cs),
(70,210,o),
(290,-8,o),
(606,-8,cs),
(808,-8,o),
(962,62,o),
(1058,182,c),
(930,308,l),
(858,222,o),
(750,178,o),
(616,178,cs),
(432,178,o),
(300,320,o),
(300,530,cs),
(300,738,o),
(432,880,o),
(616,880,cs),
(744,880,o),
(846,834,o),
(920,758,c)
);
}
);
width = 1128;
},
{
anchors = (
{
name = bottom;
position = "{578, 0}";
},
{
name = top;
position = "{558, 1034}";
}
);
layerId = "A37310BC-51AC-4F96-8729-E7F4F8535551";
shapes = (
{
closed = 1;
nodes = (
(958,896,l),
(868,982,o),
(744,1034,o),
(606,1034,cs),
(318,1034,o),
(104,818,o),
(104,518,cs),
(104,216,o),
(318,0,o),
(606,0,cs),
(758,0,o),
(890,60,o),
(980,162,c),
(954,190,l),
(870,94,o),
(748,40,o),
(606,40,cs),
(338,40,o),
(142,236,o),
(142,518,cs),
(142,798,o),
(338,994,o),
(606,994,cs),
(736,994,o),
(846,946,o),
(932,868,c)
);
}
);
width = 1114;
}
);
leftKerningGroup = o;
rightKerningGroup = c;
unicode = 99;
}
{
glyphname = d;
layers = (
{
anchors = (
{
name = bottom;
position = "{660, 0}";
},
{
name = topright;
position = "{1316, 1484}";
},
{
name = top;
position = "{1097, 1484}";
}
);
layerId = "B026C813-5E74-43B8-9BDA-38360344913A";
shapes = (
{
closed = 1;
nodes = (
(318,1038,o),
(104,818,o),
(104,516,cs),
(104,216,o),
(318,-4,o),
(610,-4,cs),
(902,-4,o),
(1116,216,o),
(1116,516,c),
(1116,818,o),
(902,1038,o),
(610,1038,cs)
);
},
{
closed = 1;
nodes = (
(880,998,o),
(1076,794,o),
(1076,516,cs),
(1076,238,o),
(880,36,o),
(610,36,cs),
(340,36,o),
(144,238,o),
(144,516,cs),
(144,794,o),
(340,998,o),
(610,998,cs)
);
},
{
closed = 1;
nodes = (
(1076,0,l),
(1116,0,l),
(1116,1484,l),
(1076,1484,l)
);
}
);
width = 1320;
},
{
anchors = (
{
name = bottom;
position = "{708, 0}";
},
{
name = topright;
position = "{1400, 1484}";
},
{
name = top;
position = "{1025, 1487}";
}
);
layerId = "ED22C04F-3B1D-41D7-8242-D57D8DACD8E1";
shapes = (
{
closed = 1;
nodes = (
(222,1110,o),
(30,892,o),
(30,554,cs),
(30,208,o),
(228,-16,o),
(532,-16,cs),
(784,-16,o),
(946,208,o),
(946,552,c),
(946,890,o),
(778,1110,o),
(520,1110,cs)
);
},
{
closed = 1;
nodes = (
(746,754,o),
(810,670,o),
(810,542,cs),
(810,414,o),
(746,330,o),
(648,330,cs),
(548,330,o),
(484,414,o),
(484,542,cs),
(484,670,o),
(548,754,o),
(648,754,cs)
);
},
{
closed = 1;
nodes = (
(810,0,l),
(1260,0,l),
(1260,1484,l),
(810,1484,l)
);
}
);
width = 1380;
},
{
anchors = (
{
name = bottom;
position = "{714, 0}";
},
{
name = topright;
position = "{1334, 1484}";
},
{
name = top;
position = "{1058, 1484}";
}
);
layerId = "6620CA85-00CC-482E-8046-24C727E4DEBF";
shapes = (
{
closed = 1;
nodes = (
(276,1072,o),
(70,854,o),
(70,534,cs),
(70,212,o),
(274,-10,o),
(580,-10,cs),
(872,-10,o),
(1040,194,o),
(1038,532,c),
(1040,868,o),
(870,1072,o),
(576,1072,cs)
);
},
{
closed = 1;
nodes = (
(820,886,o),
(954,738,o),
(954,528,cs),
(954,320,o),
(820,172,o),
(628,172,cs),
(434,172,o),
(302,320,o),
(300,528,cs),
(302,736,o),
(436,886,o),
(628,886,cs)
);
},
{
closed = 1;
nodes = (
(954,0,l),
(1184,0,l),
(1184,1484,l),
(954,1484,l)
);
}
);
width = 1364;
}
);
leftKerningGroup = o;
rightKerningGroup = l;
unicode = 100;
}
{
glyphname = e;
layers = (
{
anchors = (
{
name = bottom;
position = "{614, 0}";
},
{
name = ogonek;
position = "{1070, 0}";
},
{
name = top;
position = "{606, 1094}";
}
);
layerId = "8F4E32AC-E022-4D39-97B2-6A8CA1DCECD9";
shapes = (
{
closed = 1;
nodes = (
(408,654,l),
(408,446,l),
(1196,446,l),
(1220,850,o),
(996,1110,o),
(614,1110,cs),
(262,1110,o),
(30,888,o),
(30,542,cs),
(30,204,o),
(252,-16,o),
(626,-16,cs),
(838,-16,o),
(1006,56,o),
(1122,184,c),
(888,414,l),
(820,350,o),
(742,316,o),
(666,316,cs),
(544,316,o),
(466,404,o),
(466,568,cs),
(466,704,o),
(518,810,o),
(618,810,cs),
(696,810,o),
(752,744,o),
(746,654,c)
);
}
);
width = 1228;
},
{
anchors = (
{
name = bottom;
position = "{600, 0}";
},
{
name = ogonek;
position = "{972, 0}";
},
{
name = top;
position = "{596, 1060}";
}
);
layerId = "A0A167AB-9D0E-40C0-91B8-4D2A22A7768E";
shapes = (
{
closed = 1;
nodes = (
(256,608,l),
(256,444,l),
(1106,444,l),
(1134,828,o),
(982,1070,o),
(608,1070,c),
(292,1068,o),
(70,850,o),
(70,530,cs),
(70,210,o),
(286,-8,o),
(614,-8,cs),
(798,-8,o),
(950,58,o),
(1054,172,c),
(932,294,l),
(854,212,o),
(748,168,o),
(632,168,cs),
(432,168,o),
(292,314,o),
(292,542,cs),
(292,754,o),
(420,894,o),
(610,894,cs),
(784,894,o),
(898,786,o),
(906,608,c)
);
}
);
width = 1176;
},
{
anchors = (
{
name = bottom;
position = "{590, 0}";
},
{
name = ogonek;
position = "{922, 0}";
},
{
name = top;
position = "{590, 1034}";
}
);
layerId = "4D1A9A15-4E4F-4ADE-8E9B-C4DB08FE4288";
shapes = (
{
closed = 1;
nodes = (
(128,558,l),
(128,518,l),
(1082,518,l),
(1082,818,o),
(890,1034,o),
(602,1034,cs),
(316,1034,o),
(104,818,o),
(104,518,cs),
(104,216,o),
(316,0,o),
(602,0,cs),
(762,0,o),
(902,60,o),
(996,162,c),
(968,190,l),
(882,94,o),
(752,40,o),
(602,40,cs),
(336,40,o),
(144,236,o),
(144,518,cs),
(144,798,o),
(336,994,o),
(602,994,cs),
(858,994,o),
(1024,816,o),
(1042,558,c)
);
}
);
width = 1178;
}
);
leftKerningGroup = o;
rightKerningGroup = e;
unicode = 101;
}
{
glyphname = f;
layers = (
{
anchors = (
{
name = top;
position = "{584, 1560}";
}
);
layerId = "8F4E32AC-E022-4D39-97B2-6A8CA1DCECD9";
shapes = (
{
closed = 1;
nodes = (
(190,0,l),
(638,0,l),
(638,1124,ls),
(638,1182,o),
(678,1218,o),
(742,1216,c),
(774,1216,o),
(812,1206,o),
(854,1194,c),
(898,1526,l),
(820,1550,o),
(728,1564,o),
(644,1564,cs),
(368,1564,o),
(190,1420,o),
(190,1192,cs)
);
},
{
closed = 1;
nodes = (
(40,810,l),
(850,810,l),
(850,1094,l),
(40,1094,l)
);
}
);
width = 888;
},
{
anchors = (
{
name = top;
position = "{491, 1532}";
}
);
layerId = "A0A167AB-9D0E-40C0-91B8-4D2A22A7768E";
shapes = (
{
closed = 1;
nodes = (
(214,0,l),
(442,0,l),
(442,1194,ls),
(442,1298,o),
(508,1342,o),
(586,1342,cs),
(634,1342,o),
(682,1324,o),
(720,1308,c),
(768,1484,l),
(712,1512,o),
(644,1532,o),
(580,1532,cs),
(396,1532,o),
(214,1416,o),
(214,1166,cs)
);
},
{
closed = 1;
nodes = (
(74,898,l),
(720,898,l),
(720,1062,l),
(74,1062,l)
);
}
);
width = 780;
},
{
anchors = (
{
name = top;
position = "{446, 1524}";
}
);
layerId = "4D1A9A15-4E4F-4ADE-8E9B-C4DB08FE4288";
shapes = (
{
closed = 1;
nodes = (
(234,0,l),
(274,0,l),
(274,1200,ls),
(274,1364,o),
(384,1484,o),
(526,1484,cs),
(576,1484,o),
(626,1468,o),
(670,1442,c),
(692,1476,l),
(642,1504,o),
(582,1524,o),
(526,1524,cs),
(364,1524,o),
(234,1384,o),
(234,1200,cs)
);
},
{
closed = 1;
nodes = (
(104,994,l),
(610,994,l),
(610,1034,l),
(104,1034,l)
);
}
);
width = 700;
}
);
leftKerningGroup = f;
rightKerningGroup = f;
unicode = 102;
}
{
glyphname = g;
layers = (
{
anchors = (
{
name = top;
position = "{622, 1094}";
}
);
layerId = "3FDA15A3-2E5D-4DE0-8D90-0C5D946D3754";
shapes = (
{
closed = 1;
nodes = (
(1202,1094,l),
(754,1094,l),
(754,78,ls),
(754,-6,o),
(682,-60,o),
(550,-60,cs),
(444,-60,o),
(312,-24,o),
(216,36,c),
(74,-266,l),
(188,-342,o),
(380,-408,o),
(590,-408,cs),
(952,-408,o),
(1202,-214,o),
(1202,90,cs)
);
},
{
closed = 1;
nodes = (
(214,1110,o),
(30,908,o),
(30,594,cs),
(30,272,o),
(222,66,o),
(480,66,cs),
(736,66,o),
(880,272,o),
(880,592,c),
(880,906,o),
(730,1110,o),
(472,1110,cs)
);
},
{
closed = 1;
nodes = (
(694,780,o),
(754,702,o),
(754,582,cs),
(754,464,o),
(694,386,o),
(602,386,cs),
(510,386,o),
(450,464,o),
(450,582,cs),
(450,702,o),
(510,780,o),
(602,780,cs)
);
}
);
width = 1308;
},
{
anchors = (
{
name = top;
position = "{612, 1062}";
}
);
layerId = "9BB73D9E-E1CF-483B-8FF3-2862F5B712F7";
shapes = (
{
closed = 1;
nodes = (
(1130,1062,l),
(902,1062,l),
(902,100,l),
(902,-92,o),
(770,-214,o),
(568,-214,cs),
(438,-214,o),
(334,-172,o),
(234,-96,c),
(136,-254,l),
(266,-342,o),
(412,-394,o),
(578,-394,cs),
(912,-394,o),
(1130,-202,o),
(1130,106,c)
);
},
{
closed = 1;
nodes = (
(260,1068,o),
(70,862,o),
(70,564,cs),
(70,260,o),
(262,50,o),
(550,50,cs),
(826,50,o),
(984,242,o),
(982,562,c),
(984,880,o),
(822,1072,o),
(542,1070,cs)
);
},
{
closed = 1;
nodes = (
(776,894,o),
(902,756,o),
(902,558,cs),
(902,362,o),
(776,222,o),
(596,222,cs),
(412,222,o),
(288,362,o),
(286,558,cs),
(288,754,o),
(414,894,o),
(596,894,cs)
);
}
);
width = 1280;
},
{
anchors = (
{
name = top;
position = "{594, 1034}";
}
);
layerId = "60C6F403-B830-40DC-BC91-C1CD2FDD7472";
shapes = (
{
closed = 1;
nodes = (
(1072,1034,l),
(1032,1034,l),
(1032,116,ls),
(1032,-168,o),
(854,-348,o),
(580,-348,cs),
(424,-348,o),
(302,-290,o),
(192,-180,c),
(164,-208,l),
(284,-326,o),
(414,-388,o),
(580,-388,cs),
(878,-388,o),
(1072,-192,o),
(1072,116,cs)
);
},
{
closed = 1;
nodes = (
(308,1034,o),
(104,824,o),
(104,534,cs),
(104,248,o),
(308,38,o),
(586,38,cs),
(866,38,o),
(1070,248,o),
(1070,534,c),
(1070,824,o),
(866,1034,o),
(586,1034,cs)
);
},
{
closed = 1;
nodes = (
(844,996,o),
(1032,800,o),
(1032,534,cs),
(1032,270,o),
(844,76,o),
(586,76,cs),
(328,76,o),
(142,270,o),
(142,534,cs),
(142,800,o),
(328,996,o),
(586,996,cs)
);
}
);
width = 1260;
}
);
leftKerningGroup = o;
rightKerningGroup = u;
unicode = 103;
}
{
glyphname = h;
layers = (
{
anchors = (
{
name = bottom;
position = "{708, 0}";
},
{
name = top;
position = "{332, 1484}";
},
{
name = topright;
position = "{630, 1094}";
}
);
layerId = "8F4E32AC-E022-4D39-97B2-6A8CA1DCECD9";
shapes = (
{
closed = 1;
nodes = (
(844,0,l),
(1294,0,l),
(1294,698,ls),
(1294,950,o),
(1132,1114,o),
(902,1114,cs),
(632,1114,o),
(470,890,o),
(470,542,c),
(570,542,l),
(570,648,o),
(626,718,o),
(714,718,cs),
(792,718,o),
(844,660,o),
(844,568,cs)
);
},
{
closed = 1;
nodes = (
(120,0,l),
(570,0,l),
(570,1484,l),
(120,1484,l)
);
}
);
width = 1374;
},
{
anchors = (
{
name = bottom;
position = "{690, 0}";
},
{
name = top;
position = "{292, 1484}";
},
{
name = topright;
position = "{522, 1068}";
}
);
layerId = "A0A167AB-9D0E-40C0-91B8-4D2A22A7768E";
shapes = (
{
closed = 1;
nodes = (
(970,0,l),
(1200,0,l),
(1200,660,l),
(1200,914,o),
(1052,1070,o),
(804,1070,c),
(522,1068,o),
(346,916,o),
(346,522,c),
(410,522,l),
(410,716,o),
(524,864,o),
(714,866,c),
(874,866,o),
(970,766,o),
(970,600,c)
);
},
{
closed = 1;
nodes = (
(180,0,l),
(410,0,l),
(410,1484,l),
(180,1484,l)
);
}
);
width = 1338;
},
{
anchors = (
{
name = bottom;
position = "{646, 0}";
},
{
name = top;
position = "{226, 1484}";
},
{
name = topright;
position = "{420, 1034}";
}
);
layerId = "4D1A9A15-4E4F-4ADE-8E9B-C4DB08FE4288";
shapes = (
{
closed = 1;
nodes = (
(1048,0,l),
(1088,0,l),
(1088,626,l),
(1088,882,o),
(938,1034,o),
(682,1034,c),
(384,1028,o),
(208,832,o),
(208,506,c),
(244,506,l),
(244,806,o),
(406,988,o),
(682,994,c),
(912,994,o),
(1048,858,o),
(1048,626,c)
);
},
{
closed = 1;
nodes = (
(204,0,l),
(244,0,l),
(244,1484,l),
(204,1484,l)
);
}
);
width = 1274;
}
);
leftKerningGroup = l;
rightKerningGroup = n;
unicode = 104;
}
{
glyphname = k;
rightMetricsKey = "=32";
layers = (
{
layerId = "E8FC7CDB-EB64-4B8C-83EE-9B2B76976C4E";
shapes = (
{
closed = 1;
nodes = (
(120,0,l),
(570,0,l),
(570,1484,l),
(120,1484,l)
);
},
{
closed = 1;
nodes = (
(550,788,l),
(550,266,l),
(1332,1094,l),
(824,1094,l)
);
},
{
closed = 1;
nodes = (
(574,448,l),
(792,0,l),
(1326,0,l),
(906,720,l)
);
}
);
width = 1324;
},
{
layerId = "17E3EB7E-1F08-45A4-8E6B-D8F983509A13";
shapes = (
{
closed = 1;
nodes = (
(180,0,l),
(410,0,l),
(410,1484,l),
(180,1484,l)
);
},
{
closed = 1;
nodes = (
(392,556,l),
(392,282,l),
(1144,1062,l),
(880,1062,l)
);
},
{
closed = 1;
nodes = (
(558,546,l),
(902,0,l),
(1174,0,l),
(728,684,l)
);
}
);
width = 1190;
},
{
layerId = "59F18BB4-F2E3-4803-AEEB-FBD371085F85";
shapes = (
{
closed = 1;
nodes = (
(214,0,l),
(254,0,l),
(254,1484,l),
(214,1484,l)
);
},
{
closed = 1;
nodes = (
(240,356,l),
(240,294,l),
(968,1034,l),
(912,1034,l)
);
},
{
closed = 1;
nodes = (
(528,628,l),
(980,0,l),
(1028,0,l),
(560,652,l)
);
}
);
width = 1060;
}
);
leftKerningGroup = l;
rightKerningGroup = k;
unicode = 107;
}
{
glyphname = l;
layers = (
{
anchors = (
{
name = bottom;
position = "{454, 0}";
},
{
name = center;
position = "{806, 796}";
},
{
name = top;
position = "{316, 1484}";
},
{
name = topright;
position = "{680, 1486}";
}
);
layerId = "3FDA15A3-2E5D-4DE0-8D90-0C5D946D3754";
shapes = (
{
closed = 1;
nodes = (
(540,1484,l),
(90,1484,l),
(90,454,ls),
(90,124,o),
(308,-22,o),
(546,-22,cs),
(616,-22,o),
(690,-8,o),
(758,16,c),
(732,390,l),
(698,374,o),
(664,364,o),
(632,364,cs),
(580,364,o),
(540,392,o),
(540,464,cs)
);
}
);
width = 748;
},
{
anchors = (
{
name = bottom;
position = "{394, 0}";
},
{
name = center;
position = "{600, 796}";
},
{
name = top;
position = "{266, 1484}";
},
{
name = topright;
position = "{530, 1484}";
}
);
layerId = "9BB73D9E-E1CF-483B-8FF3-2862F5B712F7";
shapes = (
{
closed = 1;
nodes = (
(380,1484,l),
(152,1484,l),
(152,288,ls),
(152,94,o),
(268,-10,o),
(416,-10,cs),
(480,-10,o),
(548,10,o),
(616,48,c),
(584,222,l),
(544,200,o),
(510,188,o),
(478,188,cs),
(418,188,o),
(380,228,o),
(380,314,cs)
);
}
);
width = 618;
},
{
anchors = (
{
name = bottom;
position = "{350, 0}";
},
{
name = center;
position = "{500, 796}";
},
{
name = top;
position = "{224, 1484}";
},
{
name = topright;
position = "{442, 1484}";
}
);
layerId = "60C6F403-B830-40DC-BC91-C1CD2FDD7472";
shapes = (
{
closed = 1;
nodes = (
(242,1484,l),
(204,1484,l),
(204,180,ls),
(204,60,o),
(256,0,o),
(350,0,cs),
(396,0,o),
(448,26,o),
(494,74,c),
(468,102,l),
(430,62,o),
(388,40,o),
(350,40,cs),
(280,40,o),
(242,86,o),
(242,180,cs)
);
}
);
width = 518;
}
);
leftKerningGroup = l;
rightKerningGroup = l;
unicode = 108;
}
{
glyphname = m;
layers = (
{
anchors = (
{
name = bottom;
position = "{1048, 0}";
}
);
layerId = "7132A246-D2BE-45EF-90A2-0D7A42C907F4";
shapes = (
{
closed = 1;
nodes = (
(822,0,l),
(1272,0,l),
(1272,698,ls),
(1272,950,o),
(1112,1114,o),
(886,1114,cs),
(620,1114,o),
(460,890,o),
(460,542,c),
(560,542,l),
(560,648,o),
(614,718,o),
(698,718,cs),
(772,718,o),
(822,660,o),
(822,568,cs)
);
},
{
closed = 1;
nodes = (
(1534,0,l),
(1984,0,l),
(1984,698,ls),
(1984,950,o),
(1824,1114,o),
(1598,1114,cs),
(1332,1114,o),
(1172,890,o),
(1172,542,c),
(1272,542,l),
(1272,648,o),
(1326,718,o),
(1410,718,cs),
(1484,718,o),
(1534,660,o),
(1534,568,cs)
);
},
{
closed = 1;
nodes = (
(110,0,l),
(560,0,l),
(560,1094,l),
(110,1094,l)
);
}
);
width = 2064;
},
{
anchors = (
{
name = bottom;
position = "{1060, 0}";
}
);
layerId = "D0849346-794E-4F15-8942-BE6C34F6B6A6";
shapes = (
{
closed = 1;
nodes = (
(944,0,l),
(1174,0,l),
(1174,660,ls),
(1174,914,o),
(1028,1070,o),
(784,1070,c),
(508,1068,o),
(334,916,o),
(334,524,c),
(398,524,l),
(398,716,o),
(510,862,o),
(694,868,c),
(850,868,o),
(944,768,o),
(944,600,cs)
);
},
{
closed = 1;
nodes = (
(1718,0,l),
(1948,0,l),
(1948,660,ls),
(1948,914,o),
(1802,1070,o),
(1558,1070,c),
(1282,1068,o),
(1108,916,o),
(1108,524,c),
(1174,524,l),
(1174,716,o),
(1284,862,o),
(1466,868,c),
(1622,868,o),
(1718,768,o),
(1718,600,cs)
);
},
{
closed = 1;
nodes = (
(170,0,l),
(398,0,l),
(398,1062,l),
(170,1062,l)
);
}
);
width = 2086;
},
{
anchors = (
{
name = bottom;
position = "{1064, 0}";
}
);
layerId = "A37310BC-51AC-4F96-8729-E7F4F8535551";
shapes = (
{
closed = 1;
nodes = (
(1044,0,l),
(1084,0,l),
(1084,626,l),
(1084,882,o),
(936,1034,o),
(688,1034,c),
(396,1028,o),
(224,832,o),
(224,506,c),
(260,506,l),
(260,806,o),
(418,988,o),
(686,994,c),
(910,994,o),
(1044,858,o),
(1044,626,c)
);
},
{
closed = 1;
nodes = (
(1866,0,l),
(1906,0,l),
(1906,626,l),
(1906,882,o),
(1760,1034,o),
(1510,1034,c),
(1220,1028,o),
(1048,832,o),
(1048,506,c),
(1084,506,l),
(1084,806,o),
(1240,988,o),
(1510,994,c),
(1734,994,o),
(1866,858,o),
(1866,626,c)
);
},
{
closed = 1;
nodes = (
(220,0,l),
(260,0,l),
(260,1034,l),
(220,1034,l)
);
}
);
width = 2092;
}
);
leftKerningGroup = n;
rightKerningGroup = n;
unicode = 109;
}
{
glyphname = n;
layers = (
{
anchors = (
{
name = bottom;
position = "{694, 0}";
},
{
name = top;
position = "{720, 1094}";
}
);
layerId = "8F4E32AC-E022-4D39-97B2-6A8CA1DCECD9";
shapes = (
{
closed = 1;
nodes = (
(834,0,l),
(1284,0,l),
(1284,698,ls),
(1284,950,o),
(1122,1114,o),
(892,1114,cs),
(622,1114,o),
(460,890,o),
(460,542,c),
(560,542,l),
(560,648,o),
(616,718,o),
(704,718,cs),
(782,718,o),
(834,660,o),
(834,568,cs)
);
},
{
closed = 1;
nodes = (
(110,0,l),
(560,0,l),
(560,1094,l),
(110,1094,l)
);
}
);
width = 1364;
},
{
anchors = (
{
name = bottom;
position = "{672, 0}";
},
{
name = top;
position = "{692, 1062}";
}
);
layerId = "A0A167AB-9D0E-40C0-91B8-4D2A22A7768E";
shapes = (
{
closed = 1;
nodes = (
(958,0,l),
(1188,0,l),
(1188,660,ls),
(1188,914,o),
(1040,1070,o),
(792,1070,c),
(510,1068,o),
(334,916,o),
(334,522,c),
(398,522,l),
(398,716,o),
(512,864,o),
(702,866,cs),
(862,866,o),
(958,766,o),
(958,600,cs)
);
},
{
closed = 1;
nodes = (
(170,0,l),
(400,0,l),
(400,1062,l),
(170,1062,l)
);
}
);
width = 1326;
},
{
anchors = (
{
name = bottom;
position = "{650, 0}";
},
{
name = top;
position = "{684, 1034}";
}
);
layerId = "4D1A9A15-4E4F-4ADE-8E9B-C4DB08FE4288";
shapes = (
{
closed = 1;
nodes = (
(1062,0,l),
(1102,0,l),
(1102,626,ls),
(1102,882,o),
(952,1034,o),
(696,1034,c),
(398,1028,o),
(222,832,o),
(222,506,c),
(258,506,l),
(258,806,o),
(420,988,o),
(696,994,c),
(926,994,o),
(1062,858,o),
(1062,626,cs)
);
},
{
closed = 1;
nodes = (
(220,0,l),
(260,0,l),
(260,1034,l),
(220,1034,l)
);
}
);
width = 1288;
}
);
leftKerningGroup = n;
rightKerningGroup = n;
unicode = 110;
}
{
glyphname = o;
layers = (
{
anchors = (
{
name = top;
position = "{606, 1034}";
}
);
layerId = "4E3E417E-6532-4367-8A93-409442249D68";
associatedMasterId = "B026C813-5E74-43B8-9BDA-38360344913A";
name = "Light Aug 9 16, 18:42";
shapes = (
{
closed = 1;
nodes = (
(318,1034,o),
(104,818,o),
(104,518,cs),
(104,216,o),
(318,0,o),
(606,0,cs),
(894,0,o),
(1108,216,o),
(1108,518,cs),
(1108,818,o),
(894,1034,o),
(606,1034,cs)
);
},
{
closed = 1;
nodes = (
(874,994,o),
(1068,798,o),
(1068,518,cs),
(1068,236,o),
(874,40,o),
(606,40,cs),
(338,40,o),
(144,236,o),
(144,518,cs),
(144,798,o),
(338,994,o),
(606,994,cs)
);
},
{
closed = 1;
nodes = (
(318,1034,o),
(104,818,o),
(104,518,cs),
(104,216,o),
(318,0,o),
(606,0,cs),
(894,0,o),
(1108,216,o),
(1108,518,cs),
(1108,818,o),
(894,1034,o),
(606,1034,cs)
);
},
{
closed = 1;
nodes = (
(874,994,o),
(1068,798,o),
(1068,518,cs),
(1068,236,o),
(874,40,o),
(606,40,cs),
(338,40,o),
(144,236,o),
(144,518,cs),
(144,798,o),
(338,994,o),
(606,994,cs)
);
},
{
closed = 1;
nodes = (
(678,992,l),
(724,992,o),
(816,1016,o),
(866,1072,cs),
(914,1124,o),
(924,1182,o),
(926,1230,c),
(884,1230,l),
(884,1182,o),
(866,1132,o),
(828,1090,cs),
(794,1054,o),
(728,1034,o),
(678,1034,c)
);
}
);
width = 1212;
},
{
anchors = (
{
name = bottom;
position = "{606, 0}";
},
{
name = center;
position = "{606, 518}";
},
{
name = ogonek;
position = "{910, 0}";
},
{
name = top;
position = "{606, 1034}";
},
{
name = topright;
position = "{868, 1036}";
}
);
layerId = "B026C813-5E74-43B8-9BDA-38360344913A";
shapes = (
{
closed = 1;
nodes = (
(318,1034,o),
(104,818,o),
(104,518,cs),
(104,216,o),
(318,0,o),
(606,0,cs),
(894,0,o),
(1108,216,o),
(1108,518,cs),
(1108,818,o),
(894,1034,o),
(606,1034,cs)
);
},
{
closed = 1;
nodes = (
(874,994,o),
(1068,798,o),
(1068,518,cs),
(1068,236,o),
(874,40,o),
(606,40,cs),
(338,40,o),
(144,236,o),
(144,518,cs),
(144,798,o),
(338,994,o),
(606,994,cs)
);
}
);
width = 1212;
},
{
anchors = (
{
name = top;
position = "{648, 1094}";
}
);
layerId = "E4144DBA-43FA-4973-AE75-F0F76A81B24F";
associatedMasterId = "ED22C04F-3B1D-41D7-8242-D57D8DACD8E1";
name = "Bold Aug 9 16, 18:43";
shapes = (
{
closed = 1;
nodes = (
(272,1110,o),
(30,890,o),
(30,548,cs),
(30,206,o),
(272,-16,o),
(648,-16,cs),
(1024,-16,o),
(1266,206,o),
(1266,548,cs),
(1266,890,o),
(1024,1110,o),
(648,1110,cs)
);
},
{
closed = 1;
nodes = (
(748,754,o),
(812,670,o),
(812,542,cs),
(812,414,o),
(748,330,o),
(648,330,cs),
(548,330,o),
(484,414,o),
(484,542,cs),
(484,670,o),
(548,754,o),
(648,754,cs)
);
},
{
closed = 1;
nodes = (
(272,1110,o),
(30,890,o),
(30,548,cs),
(30,206,o),
(272,-16,o),
(648,-16,cs),
(1024,-16,o),
(1266,206,o),
(1266,548,cs),
(1266,890,o),
(1024,1110,o),
(648,1110,cs)
);
},
{
closed = 1;
nodes = (
(748,754,o),
(812,670,o),
(812,542,cs),
(812,414,o),
(748,330,o),
(648,330,cs),
(548,330,o),
(484,414,o),
(484,542,cs),
(484,670,o),
(548,754,o),
(648,754,cs)
);
},
{
closed = 1;
nodes = (
(776,758,l),
(924,758,o),
(1094,826,o),
(1184,952,cs),
(1252,1048,o),
(1284,1174,o),
(1284,1240,c),
(982,1240,l),
(982,1192,o),
(962,1142,o),
(924,1100,cs),
(892,1062,o),
(836,1044,o),
(776,1044,c)
);
}
);
width = 1296;
},
{
anchors = (
{
name = bottom;
position = "{648, 0}";
},
{
name = center;
position = "{648, 548}";
},
{
name = ogonek;
position = "{1094, 0}";
},
{
name = top;
position = "{648, 1094}";
},
{
name = topright;
position = "{928, 1094}";
}
);
layerId = "ED22C04F-3B1D-41D7-8242-D57D8DACD8E1";
shapes = (
{
closed = 1;
nodes = (
(272,1110,o),
(30,890,o),
(30,548,cs),
(30,206,o),
(272,-16,o),
(648,-16,cs),
(1024,-16,o),
(1266,206,o),
(1266,548,cs),
(1266,890,o),
(1024,1110,o),
(648,1110,cs)
);
},
{
closed = 1;
nodes = (
(748,754,o),
(812,670,o),
(812,542,cs),
(812,414,o),
(748,330,o),
(648,330,cs),
(548,330,o),
(484,414,o),
(484,542,cs),
(484,670,o),
(548,754,o),
(648,754,cs)
);
}
);
width = 1296;
},
{
anchors = (
{
name = bottom;
position = "{626, 0}";
},
{
name = center;
position = "{626, 532}";
},
{
name = ogonek;
position = "{976, 0}";
},
{
name = top;
position = "{626, 1062}";
},
{
name = topright;
position = "{928, 1060}";
}
);
layerId = "6620CA85-00CC-482E-8046-24C727E4DEBF";
shapes = (
{
closed = 1;
nodes = (
(296,1070,o),
(70,852,o),
(70,532,cs),
(70,212,o),
(296,-8,o),
(626,-8,cs),
(954,-8,o),
(1180,212,o),
(1180,532,cs),
(1180,852,o),
(954,1070,o),
(626,1070,cs)
);
},
{
closed = 1;
nodes = (
(816,884,o),
(950,738,o),
(950,530,cs),
(950,318,o),
(816,174,o),
(626,174,cs),
(434,174,o),
(300,318,o),
(300,530,cs),
(300,738,o),
(434,884,o),
(626,884,cs)
);
}
);
width = 1250;
}
);
leftKerningGroup = o;
rightKerningGroup = o;
unicode = 111;
}
{
glyphname = p;
rightMetricsKey = "=104";
layers = (
{
layerId = "8F4E32AC-E022-4D39-97B2-6A8CA1DCECD9";
shapes = (
{
closed = 1;
nodes = (
(596,1110,o),
(434,886,o),
(434,542,c),
(434,204,o),
(602,-16,o),
(860,-16,cs),
(1158,-16,o),
(1350,202,o),
(1350,540,cs),
(1350,886,o),
(1152,1110,o),
(848,1110,cs)
);
},
{
closed = 1;
nodes = (
(832,764,o),
(896,680,o),
(896,552,cs),
(896,424,o),
(832,340,o),
(732,340,cs),
(634,340,o),
(570,424,o),
(570,552,cs),
(570,680,o),
(634,764,o),
(732,764,cs)
);
},
{
closed = 1;
nodes = (
(120,-388,l),
(570,-388,l),
(570,1094,l),
(120,1094,l)
);
}
);
width = 1380;
},
{
layerId = "A0A167AB-9D0E-40C0-91B8-4D2A22A7768E";
shapes = (
{
closed = 1;
nodes = (
(496,1070,o),
(324,870,o),
(326,528,c),
(324,194,o),
(494,-8,o),
(786,-8,cs),
(1090,-8,o),
(1290,210,o),
(1290,528,cs),
(1290,850,o),
(1084,1070,o),
(782,1070,cs)
);
},
{
closed = 1;
nodes = (
(924,888,o),
(1058,738,o),
(1058,534,cs),
(1058,326,o),
(924,178,o),
(734,178,cs),
(544,178,o),
(410,324,o),
(410,534,cs),
(410,740,o),
(544,888,o),
(734,888,cs)
);
},
{
closed = 1;
nodes = (
(180,-388,l),
(410,-388,l),
(410,1062,l),
(180,1062,l)
);
}
);
width = 1360;
},
{
layerId = "4D1A9A15-4E4F-4ADE-8E9B-C4DB08FE4288";
shapes = (
{
closed = 1;
nodes = (
(416,1034,o),
(204,816,o),
(204,516,c),
(204,218,o),
(416,0,o),
(706,0,cs),
(996,0,o),
(1208,218,o),
(1208,516,cs),
(1208,816,o),
(996,1034,o),
(706,1034,cs)
);
},
{
closed = 1;
nodes = (
(974,994,o),
(1168,792,o),
(1168,516,cs),
(1168,240,o),
(974,40,o),
(706,40,cs),
(438,40,o),
(244,240,o),
(244,516,cs),
(244,792,o),
(438,994,o),
(706,994,cs)
);
},
{
closed = 1;
nodes = (
(204,-388,l),
(244,-388,l),
(244,1034,l),
(204,1034,l)
);
}
);
width = 1312;
}
);
leftKerningGroup = n;
rightKerningGroup = o;
unicode = 112;
}
{
glyphname = q;
layers = (
{
layerId = "E8FC7CDB-EB64-4B8C-83EE-9B2B76976C4E";
shapes = (
{
closed = 1;
nodes = (
(222,1110,o),
(30,892,o),
(30,554,cs),
(30,208,o),
(228,-16,o),
(532,-16,cs),
(784,-16,o),
(946,208,o),
(946,552,c),
(946,890,o),
(778,1110,o),
(520,1110,cs)
);
},
{
closed = 1;
nodes = (
(746,754,o),
(810,670,o),
(810,542,cs),
(810,414,o),
(746,330,o),
(648,330,cs),
(548,330,o),
(484,414,o),
(484,542,cs),
(484,670,o),
(548,754,o),
(648,754,cs)
);
},
{
closed = 1;
nodes = (
(810,-388,l),
(1260,-388,l),
(1260,1094,l),
(810,1094,l)
);
}
);
width = 1380;
},
{
layerId = "17E3EB7E-1F08-45A4-8E6B-D8F983509A13";
shapes = (
{
closed = 1;
nodes = (
(276,1072,o),
(70,854,o),
(70,534,cs),
(70,212,o),
(274,-10,o),
(580,-10,cs),
(872,-10,o),
(1040,194,o),
(1038,532,c),
(1040,868,o),
(870,1072,o),
(576,1072,cs)
);
},
{
closed = 1;
nodes = (
(820,886,o),
(954,738,o),
(954,528,cs),
(954,320,o),
(820,172,o),
(628,172,cs),
(434,172,o),
(302,320,o),
(300,528,cs),
(302,736,o),
(436,886,o),
(628,886,cs)
);
},
{
closed = 1;
nodes = (
(954,-388,l),
(1184,-388,l),
(1184,1062,l),
(954,1062,l)
);
}
);
width = 1364;
},
{
layerId = "59F18BB4-F2E3-4803-AEEB-FBD371085F85";
shapes = (
{
closed = 1;
nodes = (
(318,1038,o),
(104,818,o),
(104,516,cs),
(104,216,o),
(318,-4,o),
(610,-4,cs),
(902,-4,o),
(1116,216,o),
(1116,516,c),
(1116,818,o),
(902,1038,o),
(610,1038,cs)
);
},
{
closed = 1;
nodes = (
(880,998,o),
(1076,794,o),
(1076,516,cs),
(1076,238,o),
(880,36,o),
(610,36,cs),
(340,36,o),
(144,238,o),
(144,516,cs),
(144,794,o),
(340,998,o),
(610,998,cs)
);
},
{
closed = 1;
nodes = (
(1076,-388,l),
(1116,-388,l),
(1116,1034,l),
(1076,1034,l)
);
}
);
width = 1312;
}
);
leftKerningGroup = o;
rightKerningGroup = u;
unicode = 113;
}
{
glyphname = r;
layers = (
{
anchors = (
{
name = bottom;
position = "{240, 0}";
},
{
name = top;
position = "{432, 1034}";
}
);
layerId = "B026C813-5E74-43B8-9BDA-38360344913A";
shapes = (
{
closed = 1;
nodes = (
(656,1034,l),
(382,1028,o),
(222,832,o),
(222,506,c),
(258,506,l),
(258,806,o),
(404,988,o),
(656,994,c)
);
},
{
closed = 1;
nodes = (
(220,0,l),
(260,0,l),
(260,1034,l),
(220,1034,l)
);
}
);
width = 676;
},
{
anchors = (
{
name = bottom;
position = "{336, 0}";
},
{
name = top;
position = "{490, 1094}";
}
);
layerId = "ED22C04F-3B1D-41D7-8242-D57D8DACD8E1";
shapes = (
{
closed = 1;
nodes = (
(894,1114,l),
(630,1114,o),
(460,890,o),
(460,542,c),
(560,522,l),
(560,666,o),
(692,738,o),
(894,708,c)
);
},
{
closed = 1;
nodes = (
(110,0,l),
(560,0,l),
(560,1094,l),
(110,1094,l)
);
}
);
width = 914;
},
{
anchors = (
{
name = bottom;
position = "{280, 0}";
},
{
name = top;
position = "{478, 1062}";
}
);
layerId = "6620CA85-00CC-482E-8046-24C727E4DEBF";
shapes = (
{
closed = 1;
nodes = (
(768,1070,l),
(498,1068,o),
(334,878,o),
(334,522,c),
(398,514,l),
(398,722,o),
(538,872,o),
(768,862,c)
);
},
{
closed = 1;
nodes = (
(170,0,l),
(400,0,l),
(400,1062,l),
(170,1062,l)
);
}
);
width = 788;
}
);
leftKerningGroup = n;
rightKerningGroup = r;
unicode = 114;
}
{
glyphname = s;
layers = (
{
layerId = "3E08A46C-BB86-4C4A-83AF-B3C64A14215C";
name = "#instance";
shapes = (
{
closed = 1;
nodes = (
(1066,976,l),
(902,1068,o),
(732,1114,o),
(558,1114,cs),
(266,1114,o),
(76,966,o),
(76,736,cs),
(76,366,o),
(632,408,o),
(632,312,cs),
(632,292,o),
(606,280,o),
(564,280,cs),
(442,280,o),
(306,326,o),
(160,416,c),
(24,136,l),
(176,32,o),
(356,-20,o),
(558,-20,cs),
(860,-20,o),
(1054,126,o),
(1054,352,cs),
(1054,720,o),
(486,680,o),
(486,782,cs),
(486,804,o),
(510,818,o),
(548,818,cs),
(632,818,o),
(756,778,o),
(918,698,c)
);
}
);
width = 1104;
},
{
layerId = "530FD3FD-5444-46AA-B51A-11B2B68AE76D";
shapes = (
{
closed = 1;
nodes = (
(720,960,l),
(644,1004,o),
(554,1034,o),
(444,1034,cs),
(266,1034,o),
(116,956,o),
(116,786,cs),
(116,438,o),
(750,576,o),
(738,258,cs),
(732,108,o),
(592,40,o),
(430,40,cs),
(294,40,o),
(174,88,o),
(86,174,c),
(60,144,l),
(152,52,o),
(286,0,o),
(430,0,cs),
(610,0,o),
(778,82,o),
(778,268,cs),
(778,628,o),
(156,480,o),
(156,790,cs),
(156,930,o),
(284,994,o),
(446,994,cs),
(548,994,o),
(634,968,o),
(700,926,c)
);
}
);
width = 854;
},
{
layerId = "32A1A14C-E756-4141-8DCD-97F939B03941";
associatedMasterId = "6D4C632D-5FF3-432A-8199-1F9B3F2CB990";
name = "Bold (215)";
shapes = (
{
closed = 1;
nodes = (
(1630,974,l),
(1484,1060,o),
(738,1114,o),
(558,1114,cs),
(266,1114,o),
(92,974,o),
(92,742,cs),
(92,346,o),
(602,396,o),
(602,318,cs),
(602,308,o),
(598,296,o),
(564,296,cs),
(492,296,o),
(302,354,o),
(178,432,c),
(26,158,l),
(152,42,o),
(364,-20,o),
(550,-20,cs),
(844,-20,o),
(832,238,o),
(1014,352,cs),
(1614,730,o),
(496,694,o),
(496,776,cs),
(496,790,o),
(506,800,o),
(532,800,cs),
(576,800,o),
(1330,770,o),
(1486,700,c)
);
}
);
width = 1088;
},
{
layerId = "EEEDAAC3-120F-4590-80D2-16678F0B0E01";
associatedMasterId = "6D4C632D-5FF3-432A-8199-1F9B3F2CB990";
name = "Bold (0)";
shapes = (
{
closed = 1;
nodes = (
(1030,974,l),
(884,1060,o),
(738,1114,o),
(558,1114,cs),
(266,1114,o),
(92,974,o),
(92,742,cs),
(92,346,o),
(602,396,o),
(602,318,cs),
(602,308,o),
(598,296,o),
(564,296,cs),
(492,296,o),
(302,354,o),
(178,432,c),
(26,158,l),
(152,42,o),
(364,-20,o),
(550,-20,cs),
(844,-20,o),
(1014,136,o),
(1014,352,cs),
(1014,730,o),
(496,694,o),
(496,776,cs),
(496,790,o),
(506,800,o),
(532,800,cs),
(576,800,o),
(730,770,o),
(886,700,c)
);
}
);
width = 1088;
},
{
layerId = "6D4C632D-5FF3-432A-8199-1F9B3F2CB990";
shapes = (
{
closed = 1;
nodes = (
(1066,976,l),
(902,1068,o),
(732,1114,o),
(558,1114,cs),
(266,1114,o),
(76,966,o),
(76,736,cs),
(76,366,o),
(632,408,o),
(632,312,cs),
(632,292,o),
(606,280,o),
(564,280,cs),
(442,280,o),
(306,326,o),
(160,416,c),
(24,136,l),
(176,32,o),
(356,-20,o),
(558,-20,cs),
(860,-20,o),
(1054,126,o),
(1054,352,cs),
(1054,720,o),
(486,680,o),
(486,782,cs),
(486,804,o),
(510,818,o),
(548,818,cs),
(632,818,o),
(756,778,o),
(918,698,c)
);
}
);
width = 1104;
},
{
layerId = "6B80B6C1-47AF-41BF-A29C-E15F80EDEA88";
shapes = (
{
closed = 1;
nodes = (
(860,966,l),
(764,1032,o),
(622,1072,o),
(488,1072,cs),
(284,1072,o),
(96,984,o),
(96,768,c),
(94,384,o),
(654,510,o),
(654,284,c),
(654,200,o),
(578,164,o),
(480,164,cs),
(364,164,o),
(216,214,o),
(124,296,c),
(42,140,l),
(148,44,o),
(314,-8,o),
(470,-8,cs),
(684,-8,o),
(878,88,o),
(878,304,c),
(880,692,o),
(314,582,o),
(314,784,c),
(314,864,o),
(380,896,o),
(470,896,cs),
(564,896,o),
(682,860,o),
(776,804,c)
);
}
);
width = 940;
}
);
leftKerningGroup = s;
rightKerningGroup = s;
unicode = 115;
}
{
glyphname = t;
layers = (
{
layerId = "E8FC7CDB-EB64-4B8C-83EE-9B2B76976C4E";
shapes = (
{
closed = 1;
nodes = (
(614,1340,l),
(166,1340,l),
(166,352,l),
(166,124,o),
(328,-22,o),
(578,-20,c),
(694,-20,o),
(818,6,o),
(890,48,c),
(814,356,l),
(772,340,o),
(728,328,o),
(702,328,c),
(648,326,o),
(614,362,o),
(614,420,c)
);
},
{
closed = 1;
nodes = (
(16,810,l),
(870,810,l),
(870,1094,l),
(16,1094,l)
);
}
);
width = 920;
},
{
layerId = "17E3EB7E-1F08-45A4-8E6B-D8F983509A13";
shapes = (
{
closed = 1;
nodes = (
(440,1314,l),
(212,1314,l),
(212,296,ls),
(212,78,o),
(350,-10,o),
(510,-10,cs),
(600,-10,o),
(688,18,o),
(772,70,c),
(714,236,l),
(652,204,o),
(602,188,o),
(554,188,cs),
(482,188,o),
(440,222,o),
(440,336,cs)
);
},
{
closed = 1;
nodes = (
(62,898,l),
(754,898,l),
(754,1062,l),
(62,1062,l)
);
}
);
width = 814;
},
{
layerId = "59F18BB4-F2E3-4803-AEEB-FBD371085F85";
shapes = (
{
closed = 1;
nodes = (
(292,1260,l),
(252,1260,l),
(252,284,ls),
(252,96,o),
(328,-2,o),
(472,0,cs),
(546,2,o),
(616,28,o),
(676,74,c),
(652,106,l),
(600,64,o),
(536,42,o),
(472,40,cs),
(354,38,o),
(292,124,o),
(292,284,cs)
);
},
{
closed = 1;
nodes = (
(100,994,l),
(656,994,l),
(656,1034,l),
(100,1034,l)
);
}
);
width = 724;
}
);
leftKerningGroup = t;
rightKerningGroup = t;
unicode = 116;
}
{
glyphname = u;
layers = (
{
layerId = "05FFE7D0-FEFF-410A-9B83-C227A8EE9A6C";
associatedMasterId = "E8FC7CDB-EB64-4B8C-83EE-9B2B76976C4E";
name = "Bold Aug 9 16, 18:46";
shapes = (
{
closed = 1;
nodes = (
(530,1094,l),
(80,1094,l),
(80,396,ls),
(80,144,o),
(238,-20,o),
(462,-20,cs),
(726,-20,o),
(884,204,o),
(884,552,c),
(784,552,l),
(784,446,o),
(732,376,o),
(650,376,cs),
(578,376,o),
(530,434,o),
(530,526,cs)
);
},
{
closed = 1;
nodes = (
(784,0,l),
(1234,0,l),
(1234,1094,l),
(784,1094,l)
);
},
{
closed = 1;
nodes = (
(1234,0,l),
(1234,1094,l),
(784,1094,l),
(784,0,l)
);
},
{
closed = 1;
nodes = (
(726,-20,o),
(884,204,o),
(884,552,c),
(784,552,l),
(784,446,o),
(732,376,o),
(650,376,cs),
(578,376,o),
(530,434,o),
(530,526,cs),
(530,1094,l),
(80,1094,l),
(80,396,ls),
(80,144,o),
(238,-20,o),
(462,-20,cs)
);
},
{
closed = 1;
nodes = (
(1002,758,l),
(1150,758,o),
(1320,826,o),
(1410,952,cs),
(1478,1048,o),
(1510,1174,o),
(1510,1240,c),
(1208,1240,l),
(1208,1192,o),
(1188,1142,o),
(1150,1100,cs),
(1118,1062,o),
(1062,1044,o),
(1002,1044,c)
);
}
);
width = 1344;
},
{
layerId = "E8FC7CDB-EB64-4B8C-83EE-9B2B76976C4E";
shapes = (
{
closed = 1;
nodes = (
(530,1094,l),
(80,1094,l),
(80,396,ls),
(80,144,o),
(238,-20,o),
(462,-20,cs),
(726,-20,o),
(884,204,o),
(884,552,c),
(784,552,l),
(784,446,o),
(732,376,o),
(650,376,cs),
(578,376,o),
(530,434,o),
(530,526,cs)
);
},
{
closed = 1;
nodes = (
(784,0,l),
(1234,0,l),
(1234,1094,l),
(784,1094,l)
);
}
);
width = 1344;
},
{
layerId = "558759A1-D1B6-4072-90D0-746A3B972819";
associatedMasterId = "17E3EB7E-1F08-45A4-8E6B-D8F983509A13";
name = "Regular Aug 9 16, 18:45";
shapes = (
{
closed = 1;
nodes = (
(366,1062,l),
(136,1062,l),
(136,402,l),
(136,148,o),
(282,-8,o),
(526,-8,c),
(798,-6,o),
(968,148,o),
(968,540,c),
(906,540,l),
(906,348,o),
(798,200,o),
(614,196,c),
(460,196,o),
(366,296,o),
(366,462,c)
);
},
{
closed = 1;
nodes = (
(906,0,l),
(1136,0,l),
(1136,1062,l),
(906,1062,l)
);
},
{
closed = 1;
nodes = (
(1136,0,l),
(1136,1062,l),
(906,1062,l),
(906,0,l)
);
},
{
closed = 1;
nodes = (
(798,-6,o),
(968,148,o),
(968,540,c),
(906,540,l),
(906,348,o),
(798,200,o),
(614,196,c),
(460,196,o),
(366,296,o),
(366,462,c),
(366,1062,l),
(136,1062,l),
(136,402,l),
(136,148,o),
(282,-8,o),
(526,-8,c)
);
},
{
closed = 1;
nodes = (
(990,870,l),
(1106,870,o),
(1204,918,o),
(1274,996,cs),
(1320,1048,o),
(1372,1154,o),
(1372,1220,c),
(1196,1220,l),
(1196,1170,o),
(1178,1122,o),
(1140,1078,cs),
(1106,1042,o),
(1050,1022,o),
(990,1022,c)
);
}
);
width = 1306;
},
{
layerId = "17E3EB7E-1F08-45A4-8E6B-D8F983509A13";
shapes = (
{
closed = 1;
nodes = (
(366,1062,l),
(136,1062,l),
(136,402,ls),
(136,148,o),
(282,-8,o),
(526,-8,c),
(798,-6,o),
(968,148,o),
(968,540,c),
(906,540,l),
(906,348,o),
(798,200,o),
(614,196,cs),
(460,196,o),
(366,296,o),
(366,462,cs)
);
},
{
closed = 1;
nodes = (
(906,0,l),
(1136,0,l),
(1136,1062,l),
(906,1062,l)
);
}
);
width = 1306;
},
{
layerId = "59F18BB4-F2E3-4803-AEEB-FBD371085F85";
shapes = (
{
closed = 1;
nodes = (
(224,1034,l),
(184,1034,l),
(184,408,ls),
(184,152,o),
(332,0,o),
(584,0,c),
(876,6,o),
(1048,202,o),
(1048,528,c),
(1014,528,l),
(1014,228,o),
(854,46,o),
(584,40,c),
(358,40,o),
(224,176,o),
(224,408,cs)
);
},
{
closed = 1;
nodes = (
(1014,0,l),
(1054,0,l),
(1054,1034,l),
(1014,1034,l)
);
}
);
width = 1274;
}
);
leftKerningGroup = u;
rightKerningGroup = u;
unicode = 117;
}
{
glyphname = v;
layers = (
{
layerId = "7132A246-D2BE-45EF-90A2-0D7A42C907F4";
shapes = (
{
closed = 1;
nodes = (
(380,0,l),
(840,0,l),
(1244,1094,l),
(794,1094,l),
(616,408,l),
(442,1094,l),
(-20,1094,l)
);
}
);
width = 1224;
},
{
layerId = "D0849346-794E-4F15-8942-BE6C34F6B6A6";
shapes = (
{
closed = 1;
nodes = (
(414,0,l),
(652,0,l),
(1060,1062,l),
(830,1062,l),
(538,212,l),
(242,1062,l),
(2,1062,l)
);
}
);
width = 1050;
},
{
layerId = "A37310BC-51AC-4F96-8729-E7F4F8535551";
shapes = (
{
closed = 1;
nodes = (
(444,0,l),
(488,0,l),
(912,1034,l),
(864,1034,l),
(466,46,l),
(66,1034,l),
(20,1034,l)
);
}
);
width = 912;
}
);
leftKerningGroup = v;
rightKerningGroup = v;
unicode = 118;
}
{
glyphname = w;
layers = (
{
anchors = (
{
name = top;
position = "{818, 1034}";
}
);
layerId = "B026C813-5E74-43B8-9BDA-38360344913A";
shapes = (
{
closed = 1;
nodes = (
(414,0,l),
(458,0,l),
(830,978,l),
(1198,0,l),
(1242,0,l),
(1636,1034,l),
(1590,1034,l),
(1222,46,l),
(852,1034,l),
(804,1034,l),
(438,46,l),
(68,1034,l),
(20,1034,l)
);
}
);
width = 1636;
},
{
anchors = (
{
name = top;
position = "{978, 1094}";
}
);
layerId = "ED22C04F-3B1D-41D7-8242-D57D8DACD8E1";
shapes = (
{
closed = 1;
nodes = (
(376,0,l),
(816,0,l),
(978,576,l),
(1134,0,l),
(1574,0,l),
(1974,1094,l),
(1540,1094,l),
(1368,442,l),
(1194,1094,l),
(778,1094,l),
(610,442,l),
(436,1094,l),
(-20,1094,l)
);
}
);
width = 1954;
},
{
anchors = (
{
name = top;
position = "{902, 1062}";
}
);
layerId = "6620CA85-00CC-482E-8046-24C727E4DEBF";
shapes = (
{
closed = 1;
nodes = (
(394,0,l),
(630,0,l),
(900,804,l),
(1170,0,l),
(1408,0,l),
(1796,1062,l),
(1562,1062,l),
(1290,212,l),
(1020,1062,l),
(782,1062,l),
(514,212,l),
(238,1062,l),
(2,1062,l)
);
}
);
width = 1786;
}
);
leftKerningGroup = v;
rightKerningGroup = v;
unicode = 119;
}
{
glyphname = x;
layers = (
{
anchors = (
{
name = top;
position = "{654, 1094}";
}
);
layerId = "E8FC7CDB-EB64-4B8C-83EE-9B2B76976C4E";
shapes = (
{
closed = 1;
nodes = (
(352,560,l),
(-10,0,l),
(484,0,l),
(654,284,l),
(800,0,l),
(1318,0,l),
(954,562,l),
(1294,1094,l),
(802,1094,l),
(654,838,l),
(528,1094,l),
(12,1094,l)
);
}
);
width = 1308;
},
{
anchors = (
{
name = top;
position = "{551, 1062}";
}
);
layerId = "17E3EB7E-1F08-45A4-8E6B-D8F983509A13";
shapes = (
{
closed = 1;
nodes = (
(404,544,l),
(28,0,l),
(284,0,l),
(556,398,l),
(810,0,l),
(1074,0,l),
(708,544,l),
(1050,1062,l),
(798,1062,l),
(556,690,l),
(318,1062,l),
(54,1062,l)
);
}
);
width = 1108;
},
{
anchors = (
{
name = top;
position = "{485, 1034}";
}
);
layerId = "59F18BB4-F2E3-4803-AEEB-FBD371085F85";
shapes = (
{
closed = 1;
nodes = (
(460,536,l),
(62,0,l),
(112,0,l),
(484,502,l),
(858,0,l),
(908,0,l),
(510,536,l),
(880,1034,l),
(832,1034,l),
(486,568,l),
(140,1034,l),
(92,1034,l)
);
}
);
width = 978;
}
);
leftKerningGroup = x;
rightKerningGroup = x;
unicode = 120;
}
{
glyphname = y;
layers = (
{
anchors = (
{
name = bottom;
position = "{1052, 0}";
},
{
name = top;
position = "{624, 1094}";
}
);
layerId = "7132A246-D2BE-45EF-90A2-0D7A42C907F4";
shapes = (
{
closed = 1;
nodes = (
(1268,1094,l),
(820,1094,l),
(642,470,l),
(426,1094,l),
(-36,1094,l),
(418,34,l),
(402,8,l),
(380,-30,o),
(346,-48,o),
(294,-48,cs),
(240,-48,o),
(196,-28,o),
(148,16,c),
(-40,-280,l),
(78,-368,o),
(194,-408,o),
(338,-408,cs),
(572,-408,o),
(726,-304,o),
(818,-76,cs)
);
}
);
width = 1248;
},
{
anchors = (
{
name = bottom;
position = "{832, 0}";
},
{
name = top;
position = "{536, 1062}";
}
);
layerId = "D0849346-794E-4F15-8942-BE6C34F6B6A6";
shapes = (
{
closed = 1;
nodes = (
(1072,1062,l),
(842,1062,l),
(546,242,l),
(228,1062,l),
(-10,1062,l),
(430,14,l),
(394,-70,ls),
(358,-152,o),
(302,-192,o),
(232,-192,cs),
(184,-192,o),
(144,-176,o),
(94,-140,c),
(-4,-310,l),
(70,-370,o),
(146,-398,o),
(242,-398,cs),
(402,-398,o),
(522,-314,o),
(588,-150,cs)
);
}
);
width = 1062;
},
{
anchors = (
{
name = bottom;
position = "{672, 0}";
},
{
name = top;
position = "{466, 1034}";
}
);
layerId = "A37310BC-51AC-4F96-8729-E7F4F8535551";
shapes = (
{
closed = 1;
nodes = (
(912,1034,l),
(864,1034,l),
(468,46,l),
(66,1034,l),
(20,1034,l),
(448,-4,l),
(396,-136,ls),
(342,-272,o),
(256,-348,o),
(154,-348,cs),
(94,-348,o),
(36,-332,o),
(-8,-302,c),
(-26,-336,l),
(22,-370,o),
(86,-388,o),
(158,-388,cs),
(268,-388,o),
(364,-304,o),
(428,-150,cs)
);
}
);
width = 912;
}
);
leftKerningGroup = v;
rightKerningGroup = v;
unicode = 121;
}
{
glyphname = z;
layers = (
{
anchors = (
{
name = bottom;
position = "{572, 0}";
},
{
name = top;
position = "{568, 1094}";
}
);
layerId = "7132A246-D2BE-45EF-90A2-0D7A42C907F4";
shapes = (
{
closed = 1;
nodes = (
(70,758,l),
(506,758,l),
(50,262,l),
(50,0,l),
(1094,0,l),
(1094,336,l),
(618,336,l),
(1074,832,l),
(1074,1094,l),
(70,1094,l)
);
}
);
width = 1136;
},
{
anchors = (
{
name = bottom;
position = "{544, 0}";
},
{
name = top;
position = "{546, 1062}";
}
);
layerId = "D0849346-794E-4F15-8942-BE6C34F6B6A6";
shapes = (
{
closed = 1;
nodes = (
(108,886,l),
(698,884,l),
(90,148,l),
(90,0,l),
(1000,-2,l),
(1000,176,l),
(374,176,l),
(982,912,l),
(982,1060,l),
(108,1062,l)
);
}
);
width = 1074;
},
{
anchors = (
{
name = bottom;
position = "{522, 0}";
},
{
name = top;
position = "{510, 1034}";
}
);
layerId = "A37310BC-51AC-4F96-8729-E7F4F8535551";
shapes = (
{
closed = 1;
nodes = (
(142,994,l),
(864,992,l),
(124,50,l),
(124,0,l),
(918,-2,l),
(918,38,l),
(164,40,l),
(904,982,l),
(904,1032,l),
(142,1034,l)
);
}
);
width = 1020;
}
);
leftKerningGroup = z;
rightKerningGroup = z;
unicode = 122;
}
{
glyphname = braceleft;
layers = (
{
layerId = "3FDA15A3-2E5D-4DE0-8D90-0C5D946D3754";
shapes = (
{
closed = 1;
nodes = (
(18,788,l),
(18,448,l),
(108,448,l),
(270,602,l),
(496,622,o),
(570,692,o),
(570,886,cs),
(570,1040,ls),
(570,1128,o),
(598,1158,o),
(732,1158,c),
(732,1488,l),
(556,1488,ls),
(266,1488,o),
(170,1412,o),
(170,1182,cs),
(170,856,ls),
(170,804,o),
(154,788,o),
(108,788,cs)
);
},
{
closed = 1;
nodes = (
(108,788,l),
(18,788,l),
(18,448,l),
(108,448,ls),
(154,448,o),
(170,432,o),
(170,380,cs),
(170,54,ls),
(170,-176,o),
(266,-252,o),
(556,-252,cs),
(732,-252,l),
(732,78,l),
(598,78,o),
(570,108,o),
(570,196,cs),
(570,350,ls),
(570,544,o),
(496,614,o),
(270,634,c)
);
}
);
width = 754;
},
{
layerId = "9BB73D9E-E1CF-483B-8FF3-2862F5B712F7";
shapes = (
{
closed = 1;
nodes = (
(90,706,l),
(90,528,l),
(152,528,l),
(258,608,ls),
(370,692,o),
(446,686,o),
(446,828,cs),
(446,1170,ls),
(446,1270,o),
(494,1312,o),
(636,1312,c),
(636,1486,l),
(550,1486,ls),
(326,1486,o),
(238,1416,o),
(238,1234,cs),
(238,816,ls),
(238,738,o),
(212,706,o),
(152,706,cs)
);
},
{
closed = 1;
nodes = (
(152,706,l),
(90,706,l),
(90,528,l),
(152,528,ls),
(212,528,o),
(238,496,o),
(238,418,cs),
(238,0,ls),
(238,-182,o),
(326,-252,o),
(550,-252,cs),
(636,-252,l),
(636,-78,l),
(494,-78,o),
(446,-36,o),
(446,64,cs),
(446,404,ls),
(446,548,o),
(370,542,o),
(258,626,cs)
);
}
);
width = 690;
},
{
layerId = "60C6F403-B830-40DC-BC91-C1CD2FDD7472";
shapes = (
{
closed = 1;
nodes = (
(148,636,l),
(148,596,l),
(186,596,l),
(244,612,ls),
(310,630,o),
(336,680,o),
(336,780,cs),
(336,1280,ls),
(336,1392,o),
(404,1444,o),
(552,1444,c),
(552,1484,l),
(542,1484,ls),
(374,1484,o),
(296,1420,o),
(296,1280,cs),
(296,780,ls),
(296,682,o),
(260,636,o),
(186,636,cs)
);
},
{
closed = 1;
nodes = (
(186,636,l),
(148,636,l),
(148,596,l),
(186,596,ls),
(260,596,o),
(296,550,o),
(296,452,cs),
(296,-48,ls),
(296,-188,o),
(374,-252,o),
(542,-252,cs),
(552,-252,l),
(552,-212,l),
(404,-212,o),
(336,-160,o),
(336,-48,cs),
(336,452,ls),
(336,552,o),
(310,602,o),
(244,620,cs)
);
}
);
width = 634;
}
);
leftKerningGroup = braceleft;
rightKerningGroup = braceleft;
unicode = 123;
}
{
glyphname = bar;
layers = (
{
layerId = "B026C813-5E74-43B8-9BDA-38360344913A";
shapes = (
{
closed = 1;
nodes = (
(200,-258,l),
(240,-258,l),
(240,1648,l),
(200,1648,l)
);
}
);
width = 440;
},
{
layerId = "ED22C04F-3B1D-41D7-8242-D57D8DACD8E1";
shapes = (
{
closed = 1;
nodes = (
(160,-206,l),
(492,-206,l),
(492,1592,l),
(160,1592,l)
);
}
);
width = 652;
},
{
layerId = "6620CA85-00CC-482E-8046-24C727E4DEBF";
shapes = (
{
closed = 1;
nodes = (
(182,-234,l),
(356,-234,l),
(356,1622,l),
(182,1622,l)
);
}
);
width = 538;
}
);
leftKerningGroup = bar;
rightKerningGroup = bar;
unicode = 124;
}
{
glyphname = braceright;
layers = (
{
layerId = "3E08A46C-BB86-4C4A-83AF-B3C64A14215C";
name = "#instance";
shapes = (
{
closed = 1;
nodes = (
(736,788,l),
(736,448,l),
(646,448,l),
(484,602,l),
(258,622,o),
(184,692,o),
(184,886,cs),
(184,1040,ls),
(184,1128,o),
(156,1158,o),
(22,1158,c),
(22,1488,l),
(198,1488,ls),
(488,1488,o),
(584,1412,o),
(584,1182,cs),
(584,856,ls),
(584,804,o),
(600,788,o),
(646,788,cs)
);
},
{
closed = 1;
nodes = (
(646,788,l),
(736,788,l),
(736,448,l),
(646,448,ls),
(600,448,o),
(584,432,o),
(584,380,cs),
(584,54,ls),
(584,-176,o),
(488,-252,o),
(198,-252,cs),
(22,-252,l),
(22,78,l),
(156,78,o),
(184,108,o),
(184,196,cs),
(184,350,ls),
(184,544,o),
(258,614,o),
(484,634,c)
);
}
);
width = 754;
},
{
layerId = "530FD3FD-5444-46AA-B51A-11B2B68AE76D";
shapes = (
{
closed = 1;
nodes = (
(486,636,l),
(486,596,l),
(448,596,l),
(390,612,ls),
(324,630,o),
(298,680,o),
(298,780,cs),
(298,1280,ls),
(298,1392,o),
(230,1444,o),
(82,1444,c),
(82,1484,l),
(92,1484,ls),
(260,1484,o),
(338,1420,o),
(338,1280,cs),
(338,780,ls),
(338,682,o),
(374,636,o),
(448,636,cs)
);
},
{
closed = 1;
nodes = (
(448,636,l),
(486,636,l),
(486,596,l),
(448,596,ls),
(374,596,o),
(338,550,o),
(338,452,cs),
(338,-48,ls),
(338,-188,o),
(260,-252,o),
(92,-252,cs),
(82,-252,l),
(82,-212,l),
(230,-212,o),
(298,-160,o),
(298,-48,cs),
(298,452,ls),
(298,552,o),
(324,602,o),
(390,620,cs)
);
}
);
width = 634;
},
{
layerId = "6D4C632D-5FF3-432A-8199-1F9B3F2CB990";
shapes = (
{
closed = 1;
nodes = (
(736,788,l),
(736,448,l),
(646,448,l),
(484,602,l),
(258,622,o),
(184,692,o),
(184,886,cs),
(184,1040,ls),
(184,1128,o),
(156,1158,o),
(22,1158,c),
(22,1488,l),
(198,1488,ls),
(488,1488,o),
(584,1412,o),
(584,1182,cs),
(584,856,ls),
(584,804,o),
(600,788,o),
(646,788,cs)
);
},
{
closed = 1;
nodes = (
(646,788,l),
(736,788,l),
(736,448,l),
(646,448,ls),
(600,448,o),
(584,432,o),
(584,380,cs),
(584,54,ls),
(584,-176,o),
(488,-252,o),
(198,-252,cs),
(22,-252,l),
(22,78,l),
(156,78,o),
(184,108,o),
(184,196,cs),
(184,350,ls),
(184,544,o),
(258,614,o),
(484,634,c)
);
}
);
width = 754;
},
{
layerId = "6B80B6C1-47AF-41BF-A29C-E15F80EDEA88";
shapes = (
{
closed = 1;
nodes = (
(600,706,l),
(600,528,l),
(538,528,l),
(432,608,ls),
(320,692,o),
(244,686,o),
(244,828,cs),
(244,1170,ls),
(244,1270,o),
(196,1312,o),
(54,1312,c),
(54,1486,l),
(140,1486,ls),
(364,1486,o),
(452,1416,o),
(452,1234,cs),
(452,816,ls),
(452,738,o),
(478,706,o),
(538,706,cs)
);
},
{
closed = 1;
nodes = (
(538,706,l),
(600,706,l),
(600,528,l),
(538,528,ls),
(478,528,o),
(452,496,o),
(452,418,cs),
(452,0,ls),
(452,-182,o),
(364,-252,o),
(140,-252,cs),
(54,-252,l),
(54,-78,l),
(196,-78,o),
(244,-36,o),
(244,64,cs),
(244,404,ls),
(244,548,o),
(320,542,o),
(432,626,cs)
);
}
);
width = 690;
}
);
leftKerningGroup = braceright;
rightKerningGroup = braceright;
unicode = 125;
}
{
glyphname = asciitilde;
layers = (
{
layerId = "3E08A46C-BB86-4C4A-83AF-B3C64A14215C";
name = "#instance";
shapes = (
{
closed = 1;
nodes = (
(650,854,l),
(650,798,o),
(634,772,o),
(598,772,cs),
(546,772,o),
(488,860,o),
(350,860,cs),
(176,860,o),
(94,732,o),
(94,458,c),
(392,458,l),
(392,514,o),
(408,540,o),
(444,540,cs),
(496,540,o),
(554,452,o),
(692,452,cs),
(866,452,o),
(946,580,o),
(946,854,c)
);
}
);
width = 1040;
},
{
layerId = "530FD3FD-5444-46AA-B51A-11B2B68AE76D";
shapes = (
{
closed = 1;
nodes = (
(756,700,l),
(756,624,o),
(720,580,o),
(656,580,cs),
(550,580,o),
(424,720,o),
(306,720,cs),
(218,720,o),
(166,660,o),
(166,560,c),
(206,560,l),
(206,636,o),
(242,680,o),
(306,680,cs),
(414,680,o),
(522,540,o),
(656,540,cs),
(744,540,o),
(796,600,o),
(796,700,c)
);
}
);
width = 960;
},
{
layerId = "6D4C632D-5FF3-432A-8199-1F9B3F2CB990";
shapes = (
{
closed = 1;
nodes = (
(650,854,l),
(650,798,o),
(634,772,o),
(598,772,c),
(546,772,o),
(488,860,o),
(350,860,c),
(176,860,o),
(94,732,o),
(94,458,c),
(392,458,l),
(392,514,o),
(408,540,o),
(444,540,c),
(496,540,o),
(554,452,o),
(692,452,c),
(866,452,o),
(946,580,o),
(946,854,c)
);
}
);
width = 1040;
},
{
layerId = "6B80B6C1-47AF-41BF-A29C-E15F80EDEA88";
shapes = (
{
closed = 1;
nodes = (
(708,772,l),
(708,704,o),
(680,668,o),
(630,668,cs),
(548,668,o),
(454,784,o),
(326,784,cs),
(198,784,o),
(132,694,o),
(132,512,c),
(292,512,l),
(292,580,o),
(318,616,o),
(370,616,cs),
(452,616,o),
(536,500,o),
(672,500,cs),
(800,500,o),
(866,590,o),
(866,772,c)
);
}
);
width = 996;
}
);
leftKerningGroup = hyphen;
rightKerningGroup = hyphen;
unicode = 126;
}
{
glyphname = exclamdown;
widthMetricsKey = "=420";
layers = (
{
layerId = "7132A246-D2BE-45EF-90A2-0D7A42C907F4";
shapes = (
{
closed = 1;
nodes = (
(508,30,l),
(428,546,l),
(160,546,l),
(80,30,l),
(80,-338,l),
(508,-338,l)
);
},
{
closed = 1;
nodes = (
(420,669,o),
(504,752,o),
(504,872,cs),
(504,994,o),
(420,1078,o),
(300,1078,cs),
(179,1078,o),
(95,994,o),
(95,872,cs),
(95,752,o),
(179,669,o),
(300,669,cs)
);
}
);
width = 588;
},
{
layerId = "D0849346-794E-4F15-8942-BE6C34F6B6A6";
shapes = (
{
closed = 1;
nodes = (
(318,24,l),
(280,622,l),
(136,622,l),
(98,24,l),
(98,-338,l),
(318,-338,l)
);
},
{
closed = 1;
nodes = (
(282,826,o),
(336,878,o),
(336,952,cs),
(336,1026,o),
(282,1080,o),
(210,1080,cs),
(138,1080,o),
(84,1026,o),
(84,952,cs),
(84,878,o),
(138,826,o),
(210,826,cs)
);
}
);
width = 420;
},
{
layerId = "A37310BC-51AC-4F96-8729-E7F4F8535551";
shapes = (
{
closed = 1;
nodes = (
(212,22,l),
(212,686,l),
(172,686,l),
(172,22,l),
(172,-338,l),
(212,-338,l)
);
},
{
closed = 1;
nodes = (
(220,972,o),
(244,996,o),
(244,1024,cs),
(244,1052,o),
(220,1076,o),
(192,1076,cs),
(164,1076,o),
(140,1052,o),
(140,1024,cs),
(140,996,o),
(164,972,o),
(192,972,cs)
);
}
);
width = 384;
}
);
leftKerningGroup = exclamdown;
rightKerningGroup = exclamdown;
unicode = 161;
}
{
glyphname = cent;
layers = (
{
hints = (
{
origin = (0,3);
target = (0,2);
type = Stem;
}
);
layerId = "8F4E32AC-E022-4D39-97B2-6A8CA1DCECD9";
shapes = (
{
closed = 1;
nodes = (
(458,918,l),
(790,918,l),
(790,1428,l),
(458,1428,l)
);
},
{
closed = 1;
nodes = (
(458,-330,l),
(790,-330,l),
(790,196,l),
(458,196,l)
);
},
{
alignment = -1;
ref = c;
}
);
width = 1200;
},
{
hints = (
{
origin = (0,3);
target = (0,2);
type = Stem;
}
);
layerId = "A0A167AB-9D0E-40C0-91B8-4D2A22A7768E";
shapes = (
{
closed = 1;
nodes = (
(524,976,l),
(698,976,l),
(698,1364,l),
(524,1364,l)
);
},
{
closed = 1;
nodes = (
(524,-280,l),
(698,-280,l),
(698,100,l),
(524,100,l)
);
},
{
alignment = -1;
ref = c;
}
);
width = 1200;
},
{
hints = (
{
origin = (0,3);
target = (0,2);
type = Stem;
}
);
layerId = "4D1A9A15-4E4F-4ADE-8E9B-C4DB08FE4288";
shapes = (
{
closed = 1;
nodes = (
(588,1012,l),
(628,1012,l),
(628,1308,l),
(588,1308,l)
);
},
{
closed = 1;
nodes = (
(588,-278,l),
(628,-278,l),
(628,22,l),
(588,22,l)
);
},
{
alignment = -1;
ref = c;
}
);
width = 1200;
}
);
leftKerningGroup = o;
rightKerningGroup = c;
unicode = 162;
}
{
glyphname = sterling;
layers = (
{
layerId = "8F4E32AC-E022-4D39-97B2-6A8CA1DCECD9";
shapes = (
{
closed = 1;
nodes = (
(40,606,l),
(964,606,l),
(964,746,l),
(40,746,l)
);
},
{
closed = 1;
nodes = (
(370,1422,o),
(180,1242,o),
(180,928,cs),
(180,144,l),
(382,346,l),
(40,346,l),
(40,0,l),
(1122,0,l),
(1122,346,l),
(444,346,l),
(646,144,l),
(646,918,ls),
(646,998,o),
(682,1036,o),
(752,1036,cs),
(820,1036,o),
(898,996,o),
(984,918,c),
(1152,1258,l),
(1036,1364,o),
(872,1422,o),
(702,1422,cs)
);
}
);
width = 1152;
},
{
layerId = "A0A167AB-9D0E-40C0-91B8-4D2A22A7768E";
shapes = (
{
closed = 1;
nodes = (
(74,644,l),
(828,644,l),
(828,764,l),
(74,764,l)
);
},
{
closed = 1;
nodes = (
(394,1410,o),
(240,1250,o),
(240,968,cs),
(240,78,l),
(344,182,l),
(74,182,l),
(74,0,l),
(1036,0,l),
(1036,182,l),
(372,182,l),
(476,78,l),
(476,964,ls),
(476,1126,o),
(552,1210,o),
(690,1210,cs),
(788,1210,o),
(884,1156,o),
(968,1056,c),
(1062,1228,l),
(960,1344,o),
(818,1410,o),
(666,1410,cs)
);
}
);
width = 1094;
},
{
layerId = "4D1A9A15-4E4F-4ADE-8E9B-C4DB08FE4288";
shapes = (
{
closed = 1;
nodes = (
(104,660,l),
(714,660,l),
(714,700,l),
(104,700,l)
);
},
{
closed = 1;
nodes = (
(414,1400,o),
(292,1260,o),
(292,1006,cs),
(292,22,l),
(310,40,l),
(104,40,l),
(104,0,l),
(966,0,l),
(966,40,l),
(314,40,l),
(332,22,l),
(332,1006,ls),
(332,1236,o),
(440,1360,o),
(636,1360,cs),
(764,1360,o),
(876,1296,o),
(958,1176,c),
(986,1204,l),
(898,1330,o),
(774,1400,o),
(636,1400,cs)
);
}
);
width = 1066;
}
);
leftKerningGroup = lira;
rightKerningGroup = F.ss01;
unicode = 163;
}
{
glyphname = currency;
layers = (
{
layerId = "3E08A46C-BB86-4C4A-83AF-B3C64A14215C";
name = "#instance";
shapes = (
{
closed = 1;
nodes = (
(416,1166,o),
(174,930,o),
(174,638,cs),
(174,350,o),
(416,114,o),
(710,114,cs),
(1008,114,o),
(1250,350,o),
(1250,638,cs),
(1250,930,o),
(1008,1166,o),
(710,1166,cs)
);
},
{
closed = 1;
nodes = (
(908,984,o),
(1068,828,o),
(1068,638,cs),
(1068,450,o),
(908,296,o),
(710,296,cs),
(516,296,o),
(358,450,o),
(358,638,cs),
(358,828,o),
(516,984,o),
(710,984,cs)
);
},
{
closed = 1;
nodes = (
(70,1146,l),
(298,916,l),
(430,1048,l),
(200,1276,l)
);
},
{
closed = 1;
nodes = (
(70,124,l),
(200,-6,l),
(430,222,l),
(298,354,l)
);
},
{
closed = 1;
nodes = (
(992,1048,l),
(1124,916,l),
(1352,1146,l),
(1222,1276,l)
);
},
{
closed = 1;
nodes = (
(992,222,l),
(1222,-6,l),
(1352,124,l),
(1124,354,l)
);
}
);
width = 1422;
},
{
layerId = "530FD3FD-5444-46AA-B51A-11B2B68AE76D";
shapes = (
{
closed = 1;
nodes = (
(418,1178,o),
(166,932,o),
(166,632,cs),
(166,336,o),
(418,92,o),
(726,92,cs),
(1038,92,o),
(1292,336,o),
(1292,632,cs),
(1292,932,o),
(1038,1178,o),
(726,1178,cs)
);
},
{
closed = 1;
nodes = (
(1016,1138,o),
(1252,910,o),
(1252,632,cs),
(1252,358,o),
(1016,132,o),
(726,132,cs),
(440,132,o),
(206,358,o),
(206,632,cs),
(206,910,o),
(440,1138,o),
(726,1138,cs)
);
},
{
closed = 1;
nodes = (
(104,1230,l),
(344,988,l),
(374,1016,l),
(132,1258,l)
);
},
{
closed = 1;
nodes = (
(104,40,l),
(132,12,l),
(374,254,l),
(344,282,l)
);
},
{
closed = 1;
nodes = (
(1078,1016,l),
(1108,988,l),
(1348,1230,l),
(1320,1258,l)
);
},
{
closed = 1;
nodes = (
(1078,254,l),
(1320,12,l),
(1348,40,l),
(1108,282,l)
);
}
);
width = 1452;
},
{
layerId = "6D4C632D-5FF3-432A-8199-1F9B3F2CB990";
shapes = (
{
closed = 1;
nodes = (
(412,1154,o),
(184,926,o),
(184,646,cs),
(184,366,o),
(412,138,o),
(692,138,cs),
(972,138,o),
(1200,366,o),
(1200,646,cs),
(1200,926,o),
(974,1154,o),
(692,1154,cs)
);
},
{
closed = 1;
nodes = (
(780,806,o),
(852,734,o),
(852,646,cs),
(852,558,o),
(780,488,o),
(692,488,cs),
(604,488,o),
(534,558,o),
(534,646,cs),
(534,734,o),
(604,806,o),
(692,806,cs)
);
},
{
closed = 1;
nodes = (
(30,1048,l),
(244,834,l),
(494,1084,l),
(280,1298,l)
);
},
{
closed = 1;
nodes = (
(30,222,l),
(280,-28,l),
(494,186,l),
(244,436,l)
);
},
{
closed = 1;
nodes = (
(892,1084,l),
(1142,834,l),
(1356,1048,l),
(1106,1298,l)
);
},
{
closed = 1;
nodes = (
(892,186,l),
(1106,-28,l),
(1356,222,l),
(1142,436,l)
);
}
);
width = 1386;
},
{
layerId = "6B80B6C1-47AF-41BF-A29C-E15F80EDEA88";
shapes = (
{
closed = 1;
nodes = (
(416,1166,o),
(174,930,o),
(174,638,cs),
(174,350,o),
(416,114,o),
(710,114,cs),
(1008,114,o),
(1250,350,o),
(1250,638,cs),
(1250,930,o),
(1008,1166,o),
(710,1166,cs)
);
},
{
closed = 1;
nodes = (
(908,984,o),
(1068,828,o),
(1068,638,cs),
(1068,450,o),
(908,296,o),
(710,296,cs),
(516,296,o),
(358,450,o),
(358,638,cs),
(358,828,o),
(516,984,o),
(710,984,cs)
);
},
{
closed = 1;
nodes = (
(70,1146,l),
(298,916,l),
(430,1048,l),
(200,1276,l)
);
},
{
closed = 1;
nodes = (
(70,124,l),
(200,-6,l),
(430,222,l),
(298,354,l)
);
},
{
closed = 1;
nodes = (
(992,1048,l),
(1124,916,l),
(1352,1146,l),
(1222,1276,l)
);
},
{
closed = 1;
nodes = (
(992,222,l),
(1222,-6,l),
(1352,124,l),
(1124,354,l)
);
}
);
width = 1422;
}
);
leftKerningGroup = currency;
rightKerningGroup = currency;
unicode = 164;
}
{
glyphname = yen;
layers = (
{
layerId = "3E08A46C-BB86-4C4A-83AF-B3C64A14215C";
name = "#instance";
shapes = (
{
closed = 1;
nodes = (
(622,296,l),
(654,296,l),
(1270,1400,l),
(1030,1400,l),
(638,708,l),
(238,1400,l),
(0,1400,l)
);
},
{
closed = 1;
nodes = (
(522,0,l),
(758,0,l),
(758,590,l),
(522,590,l)
);
},
{
closed = 1;
nodes = (
(122,474,l),
(1158,474,l),
(1158,594,l),
(122,594,l)
);
},
{
closed = 1;
nodes = (
(122,234,l),
(1158,234,l),
(1158,354,l),
(122,354,l)
);
}
);
width = 1270;
},
{
layerId = "530FD3FD-5444-46AA-B51A-11B2B68AE76D";
shapes = (
{
closed = 1;
nodes = (
(604,516,l),
(616,516,l),
(1194,1400,l),
(1146,1400,l),
(610,578,l),
(68,1400,l),
(20,1400,l)
);
},
{
closed = 1;
nodes = (
(590,0,l),
(630,0,l),
(630,554,l),
(590,554,l)
);
},
{
closed = 1;
nodes = (
(150,516,l),
(1072,516,l),
(1072,556,l),
(150,556,l)
);
},
{
closed = 1;
nodes = (
(150,296,l),
(1072,296,l),
(1072,336,l),
(150,336,l)
);
}
);
width = 1214;
},
{
layerId = "6D4C632D-5FF3-432A-8199-1F9B3F2CB990";
shapes = (
{
closed = 1;
nodes = (
(714,40,l),
(768,40,l),
(1476,1400,l),
(1014,1400,l),
(742,860,l),
(462,1400,l),
(0,1400,l)
);
},
{
closed = 1;
nodes = (
(512,0,l),
(974,0,l),
(974,634,l),
(512,634,l)
);
},
{
closed = 1;
nodes = (
(142,550,l),
(1336,550,l),
(1336,690,l),
(142,690,l)
);
},
{
closed = 1;
nodes = (
(142,320,l),
(1336,320,l),
(1336,460,l),
(142,460,l)
);
}
);
width = 1476;
},
{
layerId = "6B80B6C1-47AF-41BF-A29C-E15F80EDEA88";
shapes = (
{
closed = 1;
nodes = (
(622,296,l),
(654,296,l),
(1270,1400,l),
(1030,1400,l),
(638,708,l),
(238,1400,l),
(0,1400,l)
);
},
{
closed = 1;
nodes = (
(522,0,l),
(758,0,l),
(758,590,l),
(522,590,l)
);
},
{
closed = 1;
nodes = (
(122,474,l),
(1158,474,l),
(1158,594,l),
(122,594,l)
);
},
{
closed = 1;
nodes = (
(122,234,l),
(1158,234,l),
(1158,354,l),
(122,354,l)
);
}
);
width = 1270;
}
);
leftKerningGroup = yen;
rightKerningGroup = yen;
unicode = 165;
}
{
glyphname = brokenbar;
layers = (
{
layerId = "7132A246-D2BE-45EF-90A2-0D7A42C907F4";
shapes = (
{
closed = 1;
nodes = (
(160,914,l),
(492,914,l),
(492,1592,l),
(160,1592,l)
);
},
{
closed = 1;
nodes = (
(160,-206,l),
(492,-206,l),
(492,472,l),
(160,472,l)
);
}
);
width = 652;
},
{
layerId = "D0849346-794E-4F15-8942-BE6C34F6B6A6";
shapes = (
{
closed = 1;
nodes = (
(182,930,l),
(356,930,l),
(356,1622,l),
(182,1622,l)
);
},
{
closed = 1;
nodes = (
(182,-234,l),
(356,-234,l),
(356,460,l),
(182,460,l)
);
}
);
width = 538;
},
{
layerId = "A37310BC-51AC-4F96-8729-E7F4F8535551";
shapes = (
{
closed = 1;
nodes = (
(200,942,l),
(240,942,l),
(240,1648,l),
(200,1648,l)
);
},
{
closed = 1;
nodes = (
(200,-258,l),
(240,-258,l),
(240,448,l),
(200,448,l)
);
}
);
width = 440;
}
);
leftKerningGroup = brokenbar;
rightKerningGroup = brokenbar;
unicode = 166;
}
{
glyphname = section;
layers = (
{
layerId = "7132A246-D2BE-45EF-90A2-0D7A42C907F4";
shapes = (
{
closed = 1;
nodes = (
(1114,1250,l),
(944,1342,o),
(770,1388,o),
(606,1388,cs),
(314,1388,o),
(134,1242,o),
(134,1038,cs),
(134,970,o),
(148,918,o),
(226,862,c),
(110,800,o),
(44,708,o),
(44,586,cs),
(44,236,o),
(622,246,o),
(622,150,cs),
(622,132,o),
(602,120,o),
(546,120,cs),
(438,120,o),
(296,166,o),
(146,256,c),
(24,-24,l),
(180,-128,o),
(372,-180,o),
(556,-180,cs),
(860,-180,o),
(1044,-38,o),
(1044,164,cs),
(1044,256,o),
(1012,292,o),
(952,342,c),
(1068,404,o),
(1134,496,o),
(1134,616,cs),
(1134,966,o),
(544,956,o),
(544,1060,cs),
(544,1078,o),
(564,1092,o),
(610,1092,cs),
(686,1092,o),
(814,1052,o),
(980,972,c)
);
},
{
closed = 1;
nodes = (
(634,658,o),
(714,632,o),
(714,594,cs),
(714,570,o),
(680,554,o),
(608,554,cs),
(520,554,o),
(452,578,o),
(452,616,cs),
(452,642,o),
(482,658,o),
(548,658,cs)
);
}
);
width = 1172;
},
{
layerId = "D0849346-794E-4F15-8942-BE6C34F6B6A6";
shapes = (
{
closed = 1;
nodes = (
(896,1284,l),
(776,1354,o),
(648,1388,o),
(518,1388,cs),
(280,1388,o),
(126,1270,o),
(126,1104,cs),
(126,996,o),
(176,930,o),
(328,868,c),
(178,834,o),
(84,742,o),
(84,616,cs),
(84,250,o),
(688,352,o),
(688,118,cs),
(688,44,o),
(602,-16,o),
(478,-16,cs),
(356,-16,o),
(226,32,o),
(112,120,c),
(42,-18,l),
(162,-116,o),
(322,-170,o),
(484,-170,cs),
(730,-170,o),
(894,-46,o),
(894,124,cs),
(894,240,o),
(840,302,o),
(720,354,c),
(840,388,o),
(936,496,o),
(936,612,cs),
(936,986,o),
(326,876,o),
(326,1112,cs),
(326,1186,o),
(402,1236,o),
(520,1236,cs),
(610,1236,o),
(716,1206,o),
(824,1146,c)
);
},
{
closed = 1;
nodes = (
(628,758,o),
(732,694,o),
(732,598,cs),
(732,520,o),
(666,464,o),
(538,464,cs),
(396,464,o),
(284,532,o),
(284,630,cs),
(284,708,o),
(356,758,o),
(484,758,cs)
);
}
);
width = 998;
},
{
layerId = "A37310BC-51AC-4F96-8729-E7F4F8535551";
shapes = (
{
closed = 1;
nodes = (
(730,1310,l),
(650,1362,o),
(556,1388,o),
(452,1388,cs),
(258,1388,o),
(122,1298,o),
(122,1142,cs),
(122,1022,o),
(204,936,o),
(412,872,c),
(230,858,o),
(118,774,o),
(118,628,cs),
(118,280,o),
(744,412,o),
(744,108,cs),
(744,-40,o),
(598,-120,o),
(428,-120,cs),
(296,-120,o),
(176,-72,o),
(88,14,c),
(60,-14,l),
(144,-100,o),
(276,-160,o),
(432,-160,cs),
(632,-160,o),
(782,-60,o),
(782,106,cs),
(782,222,o),
(708,310,o),
(542,364,c),
(650,376,o),
(786,468,o),
(786,628,cs),
(786,972,o),
(160,838,o),
(160,1144,cs),
(160,1276,o),
(278,1348,o),
(452,1348,cs),
(554,1348,o),
(642,1324,o),
(706,1280,c)
);
},
{
closed = 1;
nodes = (
(638,834,o),
(748,746,o),
(748,620,cs),
(748,486,o),
(626,394,o),
(480,394,cs),
(314,394,o),
(156,512,o),
(156,642,cs),
(156,756,o),
(274,834,o),
(450,834,cs)
);
}
);
width = 862;
}
);
leftKerningGroup = section;
rightKerningGroup = section;
unicode = 167;
}
{
glyphname = copyright;
layers = (
{
layerId = "3FDA15A3-2E5D-4DE0-8D90-0C5D946D3754";
shapes = (
{
closed = 1;
nodes = (
(988,904,l),
(924,974,o),
(818,1020,o),
(722,1020,cs),
(524,1020,o),
(380,884,o),
(380,698,cs),
(380,510,o),
(520,374,o),
(714,374,cs),
(812,374,o),
(918,422,o),
(988,500,c),
(868,628,l),
(826,584,o),
(770,556,o),
(726,556,cs),
(650,556,o),
(594,616,o),
(594,702,cs),
(594,786,o),
(650,846,o),
(726,846,cs),
(774,846,o),
(830,812,o),
(868,760,c)
);
},
{
closed = 1;
nodes = (
(326,1378,o),
(30,1066,o),
(30,696,cs),
(30,326,o),
(324,18,o),
(704,18,cs),
(1086,18,o),
(1384,330,o),
(1384,700,cs),
(1384,1072,o),
(1088,1378,o),
(708,1378,cs)
);
},
{
closed = 1;
nodes = (
(976,1178,o),
(1184,962,o),
(1184,700,cs),
(1184,438,o),
(976,218,o),
(704,218,cs),
(436,218,o),
(230,434,o),
(230,696,cs),
(230,958,o),
(438,1178,o),
(708,1178,cs)
);
}
);
width = 1414;
},
{
layerId = "9BB73D9E-E1CF-483B-8FF3-2862F5B712F7";
shapes = (
{
closed = 1;
nodes = (
(1018,936,l),
(950,1002,o),
(852,1042,o),
(756,1042,cs),
(554,1042,o),
(396,892,o),
(396,698,cs),
(396,502,o),
(552,350,o),
(752,350,cs),
(850,350,o),
(948,394,o),
(1018,462,c),
(948,536,l),
(896,486,o),
(824,456,o),
(758,456,cs),
(622,456,o),
(516,564,o),
(516,700,cs),
(516,834,o),
(622,940,o),
(758,940,cs),
(828,940,o),
(896,908,o),
(948,856,c)
);
},
{
closed = 1;
nodes = (
(364,1378,o),
(68,1066,o),
(68,696,cs),
(68,326,o),
(362,18,o),
(742,18,cs),
(1124,18,o),
(1422,330,o),
(1422,700,cs),
(1422,1072,o),
(1126,1378,o),
(746,1378,cs)
);
},
{
closed = 1;
nodes = (
(1064,1264,o),
(1308,1010,o),
(1308,700,cs),
(1308,390,o),
(1062,132,o),
(742,132,cs),
(424,132,o),
(182,386,o),
(182,696,cs),
(182,1006,o),
(426,1264,o),
(746,1264,cs)
);
}
);
width = 1490;
},
{
layerId = "60C6F403-B830-40DC-BC91-C1CD2FDD7472";
shapes = (
{
closed = 1;
nodes = (
(1042,964,l),
(974,1024,o),
(882,1062,o),
(786,1062,cs),
(578,1062,o),
(410,898,o),
(410,698,cs),
(410,496,o),
(578,332,o),
(784,332,cs),
(882,332,o),
(974,370,o),
(1042,432,c),
(1016,458,l),
(954,404,o),
(872,372,o),
(786,372,cs),
(600,372,o),
(450,518,o),
(450,698,cs),
(450,876,o),
(600,1022,o),
(786,1022,cs),
(874,1022,o),
(954,990,o),
(1016,936,c)
);
},
{
closed = 1;
nodes = (
(396,1378,o),
(100,1066,o),
(100,696,cs),
(100,326,o),
(394,18,o),
(774,18,cs),
(1156,18,o),
(1454,330,o),
(1454,700,cs),
(1454,1072,o),
(1158,1378,o),
(778,1378,cs)
);
},
{
closed = 1;
nodes = (
(1138,1338,o),
(1414,1052,o),
(1414,700,cs),
(1414,350,o),
(1136,58,o),
(774,58,cs),
(414,58,o),
(140,346,o),
(140,696,cs),
(140,1046,o),
(416,1338,o),
(778,1338,cs)
);
}
);
width = 1554;
}
);
leftKerningGroup = O;
rightKerningGroup = O;
unicode = 169;
}
{
glyphname = ordfeminine;
layers = (
{
layerId = "7132A246-D2BE-45EF-90A2-0D7A42C907F4";
shapes = (
{
closed = 1;
nodes = (
(474,1024,l),
(474,1158,l),
(294,1158,l),
(116,1156,o),
(22,1086,o),
(22,954,cs),
(22,828,o),
(108,744,o),
(256,744,cs),
(374,744,o),
(450,798,o),
(482,884,c),
(448,970,l),
(426,944,o),
(394,930,o),
(362,930,cs),
(326,930,o),
(308,948,o),
(308,978,cs),
(308,1008,o),
(326,1024,o),
(358,1024,cs)
);
},
{
closed = 1;
nodes = (
(448,758,l),
(746,758,l),
(746,1184,l),
(748,1342,o),
(624,1430,o),
(418,1430,cs),
(316,1430,o),
(190,1408,o),
(68,1370,c),
(136,1176,l),
(216,1200,o),
(296,1214,o),
(346,1214,cs),
(414,1214,o),
(448,1190,o),
(448,1148,cs)
);
}
);
width = 800;
},
{
layerId = "D0849346-794E-4F15-8942-BE6C34F6B6A6";
shapes = (
{
closed = 1;
nodes = (
(530,1068,l),
(530,1158,l),
(316,1158,ls),
(156,1158,o),
(66,1092,o),
(66,978,cs),
(66,866,o),
(148,788,o),
(282,788,cs),
(408,788,o),
(496,842,o),
(540,946,c),
(512,996,l),
(476,922,o),
(414,892,o),
(336,892,cs),
(264,892,o),
(218,932,o),
(218,990,cs),
(218,1048,o),
(266,1068,o),
(348,1068,cs)
);
},
{
closed = 1;
nodes = (
(512,794,l),
(670,794,l),
(670,1206,ls),
(670,1346,o),
(570,1430,o),
(396,1430,cs),
(300,1430,o),
(200,1400,o),
(104,1356,c),
(144,1248,l),
(220,1286,o),
(292,1310,o),
(358,1310,cs),
(460,1310,o),
(510,1264,o),
(510,1188,cs)
);
}
);
width = 770;
},
{
layerId = "A37310BC-51AC-4F96-8729-E7F4F8535551";
shapes = (
{
closed = 1;
nodes = (
(578,1120,l),
(578,1158,l),
(336,1158,ls),
(192,1158,o),
(102,1100,o),
(102,1000,cs),
(102,898,o),
(184,826,o),
(306,826,cs),
(436,826,o),
(536,880,o),
(588,1002,c),
(566,1018,l),
(518,904,o),
(430,860,o),
(314,860,cs),
(210,860,o),
(142,918,o),
(142,1002,cs),
(142,1082,o),
(214,1120,o),
(340,1120,cs)
);
},
{
closed = 1;
nodes = (
(566,826,l),
(606,826,l),
(604,1226,ls),
(604,1350,o),
(522,1430,o),
(376,1430,cs),
(286,1430,o),
(208,1396,o),
(134,1344,c),
(152,1312,l),
(222,1362,o),
(290,1392,o),
(370,1392,cs),
(498,1392,o),
(564,1330,o),
(564,1224,cs)
);
}
);
width = 744;
}
);
leftKerningGroup = asterisk;
rightKerningGroup = asterisk;
unicode = 170;
}
{
glyphname = logicalnot;
layers = (
{
layerId = "B026C813-5E74-43B8-9BDA-38360344913A";
shapes = (
{
closed = 1;
nodes = (
(80,680,l),
(880,680,l),
(880,720,l),
(80,720,l)
);
},
{
closed = 1;
nodes = (
(840,320,l),
(880,320,l),
(880,720,l),
(840,720,l)
);
}
);
width = 1068;
},
{
layerId = "ED22C04F-3B1D-41D7-8242-D57D8DACD8E1";
shapes = (
{
closed = 1;
nodes = (
(60,618,l),
(1080,618,l),
(1080,898,l),
(60,898,l)
);
},
{
closed = 1;
nodes = (
(760,258,l),
(1080,258,l),
(1080,898,l),
(760,898,l)
);
}
);
width = 1190;
},
{
layerId = "6620CA85-00CC-482E-8046-24C727E4DEBF";
shapes = (
{
closed = 1;
nodes = (
(70,652,l),
(972,652,l),
(972,802,l),
(70,802,l)
);
},
{
closed = 1;
nodes = (
(804,292,l),
(972,292,l),
(972,802,l),
(804,802,l)
);
}
);
width = 1122;
}
);
leftKerningGroup = hyphen;
rightKerningGroup = logicalnot;
unicode = 172;
}
{
glyphname = registered;
layers = (
{
layerId = "B026C813-5E74-43B8-9BDA-38360344913A";
shapes = (
{
closed = 1;
nodes = (
(396,1378,o),
(100,1066,o),
(100,696,cs),
(100,326,o),
(394,18,o),
(774,18,cs),
(1156,18,o),
(1454,330,o),
(1454,700,cs),
(1454,1072,o),
(1158,1378,o),
(778,1378,cs)
);
},
{
closed = 1;
nodes = (
(1138,1338,o),
(1414,1052,o),
(1414,700,cs),
(1414,350,o),
(1136,58,o),
(774,58,cs),
(414,58,o),
(140,346,o),
(140,696,cs),
(140,1046,o),
(416,1338,o),
(778,1338,cs)
);
},
{
closed = 1;
nodes = (
(522,1086,l),
(522,336,l),
(562,336,l),
(562,588,l),
(784,588,ls),
(970,588,o),
(1074,682,o),
(1074,842,cs),
(1074,998,o),
(970,1086,o),
(784,1086,cs)
);
},
{
closed = 1;
nodes = (
(562,628,l),
(562,1046,l),
(784,1046,ls),
(942,1046,o),
(1034,976,o),
(1034,842,cs),
(1034,706,o),
(942,628,o),
(784,628,cs)
);
},
{
closed = 1;
nodes = (
(1028,336,l),
(1078,336,l),
(880,610,l),
(832,610,l)
);
}
);
width = 1554;
},
{
layerId = "ED22C04F-3B1D-41D7-8242-D57D8DACD8E1";
shapes = (
{
closed = 1;
nodes = (
(326,1378,o),
(30,1066,o),
(30,696,cs),
(30,326,o),
(324,18,o),
(704,18,cs),
(1086,18,o),
(1384,330,o),
(1384,700,cs),
(1384,1072,o),
(1088,1378,o),
(708,1378,cs)
);
},
{
closed = 1;
nodes = (
(976,1178,o),
(1184,962,o),
(1184,700,cs),
(1184,438,o),
(976,218,o),
(704,218,cs),
(436,218,o),
(230,434,o),
(230,696,cs),
(230,958,o),
(438,1178,o),
(708,1178,cs)
);
},
{
closed = 1;
nodes = (
(448,1024,l),
(448,422,l),
(648,422,l),
(648,578,l),
(730,578,ls),
(894,578,o),
(988,662,o),
(988,810,cs),
(988,946,o),
(894,1024,o),
(730,1024,cs)
);
},
{
closed = 1;
nodes = (
(648,730,l),
(648,874,l),
(730,874,ls),
(774,874,o),
(798,848,o),
(798,802,cs),
(798,756,o),
(774,730,o),
(730,730,cs)
);
},
{
closed = 1;
nodes = (
(786,422,l),
(1012,422,l),
(872,650,l),
(680,650,l)
);
}
);
width = 1414;
},
{
layerId = "6620CA85-00CC-482E-8046-24C727E4DEBF";
shapes = (
{
closed = 1;
nodes = (
(364,1378,o),
(68,1066,o),
(68,696,cs),
(68,326,o),
(362,18,o),
(742,18,cs),
(1124,18,o),
(1422,330,o),
(1422,700,cs),
(1422,1072,o),
(1126,1378,o),
(746,1378,cs)
);
},
{
closed = 1;
nodes = (
(1064,1264,o),
(1308,1010,o),
(1308,700,cs),
(1308,390,o),
(1062,132,o),
(742,132,cs),
(424,132,o),
(182,386,o),
(182,696,cs),
(182,1006,o),
(426,1264,o),
(746,1264,cs)
);
},
{
closed = 1;
nodes = (
(488,1058,l),
(488,376,l),
(602,376,l),
(602,584,l),
(760,584,ls),
(936,584,o),
(1034,674,o),
(1034,826,cs),
(1034,974,o),
(936,1058,o),
(760,1058,cs)
);
},
{
closed = 1;
nodes = (
(602,676,l),
(602,966,l),
(760,966,ls),
(864,966,o),
(926,916,o),
(926,824,cs),
(926,730,o),
(864,676,o),
(760,676,cs)
);
},
{
closed = 1;
nodes = (
(916,376,l),
(1048,376,l),
(876,628,l),
(762,628,l)
);
}
);
width = 1490;
}
);
leftKerningGroup = O;
rightKerningGroup = O;
unicode = 174;
}
{
glyphname = degree;
layers = (
{
layerId = "3FDA15A3-2E5D-4DE0-8D90-0C5D946D3754";
shapes = (
{
closed = 1;
nodes = (
(280,1648,o),
(172,1540,o),
(172,1406,cs),
(172,1272,o),
(280,1164,o),
(414,1164,cs),
(548,1164,o),
(656,1272,o),
(656,1406,cs),
(656,1540,o),
(548,1648,o),
(414,1648,cs)
);
},
{
closed = 1;
nodes = (
(456,1482,o),
(490,1448,o),
(490,1406,cs),
(490,1364,o),
(456,1330,o),
(414,1330,cs),
(372,1330,o),
(338,1364,o),
(338,1406,cs),
(338,1448,o),
(372,1482,o),
(414,1482,cs)
);
}
);
width = 800;
},
{
layerId = "9BB73D9E-E1CF-483B-8FF3-2862F5B712F7";
shapes = (
{
closed = 1;
nodes = (
(266,1618,o),
(162,1514,o),
(162,1388,cs),
(162,1264,o),
(268,1160,o),
(394,1160,cs),
(522,1160,o),
(626,1264,o),
(626,1388,cs),
(626,1514,o),
(522,1618,o),
(394,1618,cs)
);
},
{
closed = 1;
nodes = (
(468,1520,o),
(528,1460,o),
(528,1388,cs),
(528,1318,o),
(468,1258,o),
(394,1258,cs),
(320,1258,o),
(260,1318,o),
(260,1388,cs),
(260,1460,o),
(320,1520,o),
(394,1520,cs)
);
}
);
width = 692;
},
{
layerId = "60C6F403-B830-40DC-BC91-C1CD2FDD7472";
shapes = (
{
closed = 1;
nodes = (
(256,1592,o),
(152,1490,o),
(152,1374,cs),
(152,1258,o),
(256,1158,o),
(376,1158,cs),
(498,1158,o),
(602,1258,o),
(602,1374,cs),
(602,1490,o),
(498,1592,o),
(376,1592,cs)
);
},
{
closed = 1;
nodes = (
(478,1552,o),
(562,1470,o),
(562,1374,cs),
(562,1278,o),
(478,1198,o),
(376,1198,cs),
(276,1198,o),
(192,1278,o),
(192,1374,cs),
(192,1470,o),
(276,1552,o),
(376,1552,cs)
);
}
);
width = 600;
}
);
leftKerningGroup = degree;
rightKerningGroup = degree;
unicode = 176;
}
{
glyphname = paragraph;
layers = (
{
layerId = "B026C813-5E74-43B8-9BDA-38360344913A";
shapes = (
{
closed = 1;
nodes = (
(414,-224,l),
(454,-224,l),
(454,1444,l),
(818,1444,l),
(818,-224,l),
(858,-224,l),
(858,1484,l),
(406,1484,l),
(124,1484,o),
(14,1320,o),
(14,1152,cs),
(14,1028,o),
(80,834,o),
(338,834,cs),
(362,834,o),
(386,836,o),
(414,838,c)
);
}
);
width = 1114;
},
{
layerId = "ED22C04F-3B1D-41D7-8242-D57D8DACD8E1";
shapes = (
{
closed = 1;
nodes = (
(456,-210,l),
(788,-210,l),
(788,1236,l),
(932,1236,l),
(932,-210,l),
(1264,-210,l),
(1264,1484,l),
(498,1484,ls),
(122,1484,o),
(-20,1258,o),
(-20,1026,cs),
(-20,854,o),
(68,586,o),
(412,586,cs),
(426,586,o),
(442,586,o),
(456,586,c)
);
}
);
width = 1364;
},
{
layerId = "6620CA85-00CC-482E-8046-24C727E4DEBF";
shapes = (
{
closed = 1;
nodes = (
(434,-218,l),
(608,-218,l),
(608,1348,l),
(870,1348,l),
(870,-218,l),
(1046,-218,l),
(1046,1484,l),
(448,1484,l),
(124,1484,o),
(-2,1292,o),
(-2,1094,cs),
(-2,948,o),
(74,720,o),
(372,720,cs),
(392,720,o),
(412,720,o),
(434,722,c)
);
}
);
width = 1230;
}
);
leftKerningGroup = paragraph;
rightKerningGroup = H;
unicode = 182;
}
{
glyphname = ordmasculine;
layers = (
{
layerId = "8F4E32AC-E022-4D39-97B2-6A8CA1DCECD9";
shapes = (
{
closed = 1;
nodes = (
(178,1430,o),
(24,1298,o),
(24,1090,cs),
(24,884,o),
(178,750,o),
(418,750,cs),
(660,750,o),
(814,884,o),
(814,1090,cs),
(814,1298,o),
(660,1430,o),
(418,1430,cs)
);
},
{
closed = 1;
nodes = (
(472,1200,o),
(506,1156,o),
(506,1086,cs),
(506,1018,o),
(472,974,o),
(418,974,cs),
(364,974,o),
(330,1018,o),
(330,1086,cs),
(330,1156,o),
(364,1200,o),
(418,1200,cs)
);
}
);
width = 838;
},
{
layerId = "A0A167AB-9D0E-40C0-91B8-4D2A22A7768E";
shapes = (
{
closed = 1;
nodes = (
(200,1418,o),
(60,1290,o),
(60,1098,cs),
(60,908,o),
(200,780,o),
(406,780,cs),
(612,780,o),
(754,908,o),
(754,1098,cs),
(754,1290,o),
(612,1418,o),
(406,1418,cs)
);
},
{
closed = 1;
nodes = (
(514,1292,o),
(588,1214,o),
(588,1098,cs),
(588,980,o),
(514,902,o),
(406,902,cs),
(298,902,o),
(222,980,o),
(222,1098,cs),
(222,1214,o),
(298,1292,o),
(406,1292,cs)
);
}
);
width = 814;
},
{
layerId = "4D1A9A15-4E4F-4ADE-8E9B-C4DB08FE4288";
shapes = (
{
closed = 1;
nodes = (
(218,1408,o),
(90,1282,o),
(90,1106,cs),
(90,928,o),
(218,804,o),
(396,804,cs),
(572,804,o),
(702,928,o),
(702,1106,cs),
(702,1282,o),
(572,1408,o),
(396,1408,cs)
);
},
{
closed = 1;
nodes = (
(550,1370,o),
(660,1262,o),
(660,1106,cs),
(660,948,o),
(550,840,o),
(396,840,cs),
(242,840,o),
(130,948,o),
(130,1106,cs),
(130,1262,o),
(242,1370,o),
(396,1370,cs)
);
}
);
width = 792;
}
);
leftKerningGroup = asterisk;
rightKerningGroup = asterisk;
unicode = 186;
}
{
glyphname = guillemetright;
layers = (
{
layerId = "3E08A46C-BB86-4C4A-83AF-B3C64A14215C";
name = "#instance";
shapes = (
{
closed = 1;
nodes = (
(890,520,l),
(658,864,l),
(466,864,l),
(680,520,l),
(466,174,l),
(658,174,l)
);
},
{
closed = 1;
nodes = (
(530,520,l),
(298,864,l),
(106,864,l),
(320,520,l),
(106,174,l),
(298,174,l)
);
}
);
width = 936;
},
{
layerId = "530FD3FD-5444-46AA-B51A-11B2B68AE76D";
shapes = (
{
closed = 1;
nodes = (
(646,500,l),
(428,806,l),
(380,806,l),
(596,500,l),
(380,188,l),
(428,188,l)
);
},
{
closed = 1;
nodes = (
(420,500,l),
(202,806,l),
(154,806,l),
(370,500,l),
(154,188,l),
(202,188,l)
);
}
);
width = 762;
},
{
layerId = "6D4C632D-5FF3-432A-8199-1F9B3F2CB990";
shapes = (
{
closed = 1;
nodes = (
(1122,542,l),
(874,932,l),
(514,932,l),
(726,542,l),
(514,156,l),
(874,156,l)
);
},
{
closed = 1;
nodes = (
(604,542,l),
(356,932,l),
(-4,932,l),
(208,542,l),
(-4,156,l),
(356,156,l)
);
}
);
width = 1088;
},
{
layerId = "6B80B6C1-47AF-41BF-A29C-E15F80EDEA88";
shapes = (
{
closed = 1;
nodes = (
(890,520,l),
(658,864,l),
(466,864,l),
(680,520,l),
(466,174,l),
(658,174,l)
);
},
{
closed = 1;
nodes = (
(530,520,l),
(298,864,l),
(106,864,l),
(320,520,l),
(106,174,l),
(298,174,l)
);
}
);
width = 936;
}
);
leftKerningGroup = guilsinglright;
rightKerningGroup = hyphen;
unicode = 187;
}
{
glyphname = guillemotright;
layers = (
{
layerId = "8F4E32AC-E022-4D39-97B2-6A8CA1DCECD9";
shapes = (
{
closed = 1;
nodes = (
(1122,542,l),
(874,932,l),
(514,932,l),
(726,542,l),
(514,156,l),
(874,156,l)
);
},
{
closed = 1;
nodes = (
(604,542,l),
(356,932,l),
(-4,932,l),
(208,542,l),
(-4,156,l),
(356,156,l)
);
}
);
width = 1088;
},
{
layerId = "A0A167AB-9D0E-40C0-91B8-4D2A22A7768E";
shapes = (
{
closed = 1;
nodes = (
(890,520,l),
(658,864,l),
(466,864,l),
(680,520,l),
(466,174,l),
(658,174,l)
);
},
{
closed = 1;
nodes = (
(530,520,l),
(298,864,l),
(106,864,l),
(320,520,l),
(106,174,l),
(298,174,l)
);
}
);
width = 936;
},
{
layerId = "4D1A9A15-4E4F-4ADE-8E9B-C4DB08FE4288";
shapes = (
{
closed = 1;
nodes = (
(646,500,l),
(428,806,l),
(380,806,l),
(596,500,l),
(380,188,l),
(428,188,l)
);
},
{
closed = 1;
nodes = (
(420,500,l),
(202,806,l),
(154,806,l),
(370,500,l),
(154,188,l),
(202,188,l)
);
}
);
width = 762;
}
);
leftKerningGroup = guilsinglright;
rightKerningGroup = hyphen;
unicode = 187;
}
{
glyphname = threequarters;
layers = (
{
layerId = "3FDA15A3-2E5D-4DE0-8D90-0C5D946D3754";
shapes = (
{
closed = 1;
nodes = (
(509,1075,l),
(691,1233,l),
(691,1401,l),
(56,1401,l),
(56,1185,l),
(340,1185,l),
(184,1049,l),
(184,894,l),
(348,894,ls),
(387,894,o),
(425,863,o),
(425,832,qs),
(425,816,o),
(416,793,o),
(396,779,o),
(367,772,o),
(348,772,qs),
(290,772,o),
(184,832,o),
(134,894,q),
(10,666,l),
(42,640,o),
(126,597,o),
(220,567,o),
(323,550,o),
(373,550,qs),
(455,550,o),
(587,592,o),
(680,667,o),
(731,770,o),
(731,832,qs),
(731,879,o),
(703,956,o),
(653,1015,o),
(586,1055,o),
(547,1065,qs)
);
},
{
closed = 1;
nodes = (
(357,0,l),
(654,0,l),
(1627,1400,l),
(1329,1400,l)
);
},
{
closed = 1;
nodes = (
(1150,350,l),
(1150,154,l),
(1565,154,l),
(1565,0,l),
(1855,0,l),
(1855,154,l),
(1965,154,l),
(1965,367,l),
(1855,367,l),
(1855,519,l),
(1565,519,l),
(1565,367,l),
(1468,367,l),
(1699,841,l),
(1402,841,l)
);
}
);
width = 1960;
},
{
layerId = "9BB73D9E-E1CF-483B-8FF3-2862F5B712F7";
shapes = (
{
closed = 1;
nodes = (
(370,1058,l),
(608,1304,l),
(608,1396,l),
(70,1396,l),
(70,1278,l),
(416,1278,l),
(192,1044,l),
(192,956,l),
(316,956,ls),
(396,956,o),
(484,891,o),
(484,828,qs),
(484,797,o),
(461,746,o),
(419,710,o),
(357,690,o),
(318,690,qs),
(258,690,o),
(147,737,o),
(100,782,q),
(30,658,l),
(58,638,o),
(128,605,o),
(206,581,o),
(289,568,o),
(330,568,qs),
(403,568,o),
(520,607,o),
(603,676,o),
(648,772,o),
(648,830,qs),
(648,879,o),
(614,957,o),
(552,1014,o),
(466,1049,o),
(414,1054,qs)
);
},
{
closed = 1;
nodes = (
(242,0,l),
(424,0,l),
(1452,1400,l),
(1272,1400,l)
);
},
{
closed = 1;
nodes = (
(990,310,l),
(990,198,l),
(1398,198,l),
(1398,0,l),
(1556,0,l),
(1556,198,l),
(1678,198,l),
(1678,316,l),
(1556,316,l),
(1556,522,l),
(1398,522,l),
(1398,316,l),
(1158,316,l),
(1436,826,l),
(1276,826,l)
);
}
);
width = 1688;
},
{
layerId = "60C6F403-B830-40DC-BC91-C1CD2FDD7472";
shapes = (
{
closed = 1;
nodes = (
(240,1049,l),
(525,1369,l),
(525,1399,l),
(72,1399,l),
(72,1363,l),
(473,1363,l),
(188,1045,l),
(188,1015,l),
(278,1015,ls),
(393,1015,o),
(523,919,o),
(523,826,qs),
(523,779,o),
(490,700,o),
(427,644,o),
(337,612,o),
(280,612,qs),
(220,612,o),
(104,651,o),
(60,684,q),
(38,650,l),
(62,634,o),
(119,606,o),
(181,587,o),
(247,576,o),
(280,576,qs),
(346,576,o),
(452,612,o),
(525,678,o),
(565,770,o),
(565,826,qs),
(565,879,o),
(525,962,o),
(453,1019,o),
(352,1049,o),
(290,1049,qs)
);
},
{
closed = 1;
nodes = (
(149,0,l),
(201,0,l),
(1279,1400,l),
(1227,1400,l)
);
},
{
closed = 1;
nodes = (
(848,276,l),
(848,234,l),
(1253,234,l),
(1253,0,l),
(1295,0,l),
(1295,234,l),
(1427,234,l),
(1427,270,l),
(1295,270,l),
(1295,523,l),
(1253,523,l),
(1253,270,l),
(890,270,l),
(1209,813,l),
(1164,813,l)
);
}
);
width = 1458;
}
);
leftKerningGroup = three.numr;
rightKerningGroup = three.dnom;
unicode = 190;
}
{
glyphname = questiondown;
layers = (
{
layerId = "7132A246-D2BE-45EF-90A2-0D7A42C907F4";
shapes = (
{
closed = 1;
nodes = (
(428,531,l),
(430,520,o),
(434,508,o),
(434,490,cs),
(434,381,o),
(66,374,o),
(66,44,cs),
(66,-206,o),
(300,-338,o),
(614,-338,cs),
(934,-338,o),
(1136,-206,o),
(1238,-14,c),
(882,164,l),
(840,80,o),
(760,28,o),
(674,28,cs),
(600,28,o),
(540,60,o),
(540,122,cs),
(540,263,o),
(844,292,o),
(844,478,cs),
(844,508,o),
(842,544,o),
(828,586,c)
);
},
{
closed = 1;
nodes = (
(472,1114,o),
(364,1006,o),
(364,874,cs),
(364,740,o),
(472,638,o),
(628,638,cs),
(784,638,o),
(892,740,o),
(892,874,cs),
(892,1006,o),
(784,1114,o),
(628,1114,cs)
);
}
);
width = 1212;
},
{
layerId = "D0849346-794E-4F15-8942-BE6C34F6B6A6";
shapes = (
{
closed = 1;
nodes = (
(535,639,l),
(546,610,o),
(556,584,o),
(556,560,c),
(556,365,o),
(130,372,o),
(130,36,cs),
(130,-190,o),
(320,-324,o),
(612,-324,cs),
(850,-324,o),
(1028,-238,o),
(1140,-92,c),
(972,26,l),
(896,-74,o),
(784,-130,o),
(628,-130,cs),
(462,-130,o),
(360,-48,o),
(360,72,cs),
(360,263,o),
(778,259,o),
(778,548,cs),
(778,586,o),
(764,630,o),
(738,684,c)
);
},
{
closed = 1;
nodes = (
(546,1106,o),
(486,1042,o),
(486,964,cs),
(486,884,o),
(546,822,o),
(630,822,cs),
(714,822,o),
(774,884,o),
(774,964,cs),
(774,1042,o),
(714,1106,o),
(630,1106,cs)
);
}
);
width = 1154;
},
{
layerId = "A37310BC-51AC-4F96-8729-E7F4F8535551";
shapes = (
{
closed = 1;
nodes = (
(672,714,l),
(688,680,o),
(694,644,o),
(694,616,cs),
(694,405,o),
(178,407,o),
(178,22,cs),
(178,-176,o),
(344,-312,o),
(608,-312,cs),
(812,-312,o),
(964,-248,o),
(1068,-132,c),
(1040,-104,l),
(938,-218,o),
(800,-274,o),
(608,-274,cs),
(354,-274,o),
(218,-148,o),
(218,24,cs),
(218,379,o),
(734,380,o),
(734,606,cs),
(734,642,o),
(728,682,o),
(706,728,c)
);
},
{
closed = 1;
nodes = (
(660,1100,o),
(636,1076,o),
(636,1048,cs),
(636,1020,o),
(660,996,o),
(688,996,cs),
(716,996,o),
(740,1020,o),
(740,1048,cs),
(740,1076,o),
(716,1100,o),
(688,1100,cs)
);
}
);
width = 1108;
}
);
leftKerningGroup = questiondown;
rightKerningGroup = questiondown;
unicode = 191;
}
{
glyphname = Aring;
layers = (
{
layerId = "3E08A46C-BB86-4C4A-83AF-B3C64A14215C";
name = "#instance";
shapes = (
{
closed = 1;
nodes = (
(20,0,l),
(68,0,l),
(683,1354,l),
(1308,0,l),
(1354,0,l),
(705,1400,l),
(661,1400,l)
);
},
{
closed = 1;
nodes = (
(250,427,l),
(1120,427,l),
(1120,467,l),
(250,467,l)
);
},
{
closed = 1;
nodes = (
(587,1726,o),
(505,1644,o),
(505,1552,cs),
(505,1460,o),
(587,1380,o),
(683,1380,cs),
(781,1380,o),
(863,1460,o),
(863,1552,cs),
(863,1644,o),
(781,1726,o),
(683,1726,cs)
);
},
{
closed = 1;
nodes = (
(761,1690,o),
(829,1628,o),
(829,1552,cs),
(829,1478,o),
(761,1416,o),
(683,1416,cs),
(605,1416,o),
(539,1478,o),
(539,1552,cs),
(539,1628,o),
(605,1690,o),
(683,1690,cs)
);
}
);
width = 1374;
},
{
layerId = "530FD3FD-5444-46AA-B51A-11B2B68AE76D";
shapes = (
{
closed = 1;
nodes = (
(20,0,l),
(68,0,l),
(683,1354,l),
(1308,0,l),
(1354,0,l),
(705,1400,l),
(661,1400,l)
);
},
{
closed = 1;
nodes = (
(250,427,l),
(1120,427,l),
(1120,467,l),
(250,467,l)
);
},
{
closed = 1;
nodes = (
(587,1726,o),
(505,1644,o),
(505,1552,cs),
(505,1460,o),
(587,1380,o),
(683,1380,cs),
(781,1380,o),
(863,1460,o),
(863,1552,cs),
(863,1644,o),
(781,1726,o),
(683,1726,cs)
);
},
{
closed = 1;
nodes = (
(761,1690,o),
(829,1628,o),
(829,1552,cs),
(829,1478,o),
(761,1416,o),
(683,1416,cs),
(605,1416,o),
(539,1478,o),
(539,1552,cs),
(539,1628,o),
(605,1690,o),
(683,1690,cs)
);
}
);
width = 1374;
},
{
layerId = "6D4C632D-5FF3-432A-8199-1F9B3F2CB990";
shapes = (
{
closed = 1;
nodes = (
(-20,0,l),
(455,0,l),
(795,939,l),
(1122,0,l),
(1616,0,l),
(1046,1400,l),
(571,1400,l)
);
},
{
closed = 1;
nodes = (
(379,198,l),
(1182,198,l),
(1182,529,l),
(379,529,l)
);
},
{
closed = 1;
nodes = (
(667,1747,o),
(553,1634,o),
(553,1492,cs),
(553,1350,o),
(667,1236,o),
(809,1236,cs),
(951,1236,o),
(1064,1350,o),
(1064,1492,cs),
(1064,1634,o),
(951,1747,o),
(809,1747,cs)
);
},
{
closed = 1;
nodes = (
(855,1572,o),
(889,1538,o),
(889,1492,cs),
(889,1446,o),
(855,1412,o),
(809,1412,cs),
(763,1412,o),
(729,1446,o),
(729,1492,cs),
(729,1538,o),
(763,1572,o),
(809,1572,cs)
);
}
);
width = 1596;
},
{
layerId = "6B80B6C1-47AF-41BF-A29C-E15F80EDEA88";
shapes = (
{
closed = 1;
nodes = (
(2,0,l),
(248,0,l),
(734,1162,l),
(1222,0,l),
(1474,0,l),
(862,1400,l),
(620,1400,l)
);
},
{
closed = 1;
nodes = (
(310,324,l),
(1148,324,l),
(1148,524,l),
(310,524,l)
);
},
{
closed = 1;
nodes = (
(618,1802,o),
(518,1702,o),
(518,1584,cs),
(518,1464,o),
(618,1364,o),
(740,1364,cs),
(862,1364,o),
(962,1464,o),
(962,1584,cs),
(962,1702,o),
(862,1802,o),
(740,1802,cs)
);
},
{
closed = 1;
nodes = (
(796,1684,o),
(844,1638,o),
(844,1584,cs),
(844,1528,o),
(796,1482,o),
(740,1482,cs),
(684,1482,o),
(636,1528,o),
(636,1584,cs),
(636,1638,o),
(684,1684,o),
(740,1684,cs)
);
}
);
width = 1476;
}
);
leftKerningGroup = A;
rightKerningGroup = A;
unicode = 197;
}
{
glyphname = AE;
layers = (
{
layerId = "3E08A46C-BB86-4C4A-83AF-B3C64A14215C";
name = "#instance";
shapes = (
{
closed = 1;
nodes = (
(943,0,l),
(1847,0,l),
(1847,40,l),
(983,40,l),
(983,701,l),
(1726,701,l),
(1726,741,l),
(983,741,l),
(983,1360,l),
(1819,1360,l),
(1819,1400,l),
(943,1400,l)
);
},
{
closed = 1;
nodes = (
(20,0,l),
(68,0,l),
(885,1360,l),
(1462,1360,l),
(1474,1400,l),
(863,1400,l)
);
},
{
closed = 1;
nodes = (
(312,447,l),
(973,447,l),
(975,487,l),
(314,487,l)
);
}
);
width = 1976;
},
{
layerId = "530FD3FD-5444-46AA-B51A-11B2B68AE76D";
shapes = (
{
closed = 1;
nodes = (
(943,0,l),
(1847,0,l),
(1847,40,l),
(983,40,l),
(983,701,l),
(1726,701,l),
(1726,741,l),
(983,741,l),
(983,1360,l),
(1819,1360,l),
(1819,1400,l),
(943,1400,l)
);
},
{
closed = 1;
nodes = (
(20,0,l),
(68,0,l),
(885,1360,l),
(1462,1360,l),
(1474,1400,l),
(863,1400,l)
);
},
{
closed = 1;
nodes = (
(312,447,l),
(973,447,l),
(975,487,l),
(314,487,l)
);
}
);
width = 1976;
},
{
layerId = "6D4C632D-5FF3-432A-8199-1F9B3F2CB990";
shapes = (
{
closed = 1;
nodes = (
(1012,0,l),
(2215,0,l),
(2215,351,l),
(1476,351,l),
(1476,525,l),
(2131,525,l),
(2131,877,l),
(1476,877,l),
(1476,1048,l),
(2197,1048,l),
(2197,1400,l),
(1012,1400,l)
);
},
{
closed = 1;
nodes = (
(-20,0,l),
(459,0,l),
(979,1048,l),
(1566,1048,l),
(1550,1400,l),
(759,1400,l)
);
},
{
closed = 1;
nodes = (
(439,244,l),
(1244,244,l),
(1254,575,l),
(449,575,l)
);
}
);
width = 2290;
},
{
layerId = "6B80B6C1-47AF-41BF-A29C-E15F80EDEA88";
shapes = (
{
closed = 1;
nodes = (
(976,0,l),
(1998,0,l),
(1998,202,l),
(1210,202,l),
(1210,604,l),
(1896,604,l),
(1896,804,l),
(1210,804,l),
(1210,1198,l),
(1974,1198,l),
(1974,1400,l),
(976,1400,l)
);
},
{
closed = 1;
nodes = (
(2,0,l),
(248,0,l),
(928,1216,l),
(1510,1216,l),
(1508,1400,l),
(814,1400,l)
);
},
{
closed = 1;
nodes = (
(372,352,l),
(1098,352,l),
(1104,528,l),
(376,528,l)
);
}
);
width = 2102;
}
);
leftKerningGroup = A;
rightKerningGroup = E;
unicode = 198;
}
{
glyphname = Ccedilla;
layers = (
{
anchors = (
{
name = bottom;
position = "{734, 0}";
},
{
name = top;
position = "{786, 1400}";
}
);
layerId = "3FDA15A3-2E5D-4DE0-8D90-0C5D946D3754";
shapes = (
{
closed = 1;
nodes = (
(1380,1170,l),
(1236,1328,o),
(1002,1430,o),
(789,1430,cs),
(349,1430,o),
(30,1124,o),
(30,705,cs),
(30,338,o),
(262,55,o),
(602,-15,c),
(553,-164,l),
(587,-164,ls),
(643,-164,o),
(701,-176,o),
(701,-210,cs),
(701,-236,o),
(665,-248,o),
(621,-248,cs),
(591,-248,o),
(559,-244,o),
(531,-234,c),
(471,-414,l),
(543,-438,o),
(629,-452,o),
(709,-452,cs),
(845,-452,o),
(983,-398,o),
(983,-248,cs),
(983,-174,o),
(937,-114,o),
(817,-82,c),
(837,-29,l),
(1034,-9,o),
(1240,97,o),
(1380,252,c),
(1112,537,l),
(1020,437,o),
(895,373,o),
(795,373,cs),
(627,373,o),
(505,515,o),
(505,711,cs),
(505,905,o),
(627,1044,o),
(795,1044,cs),
(903,1044,o),
(1028,969,o),
(1112,853,c)
);
}
);
width = 1374;
},
{
anchors = (
{
name = bottom;
position = "{766, 0}";
},
{
name = top;
position = "{844, 1400}";
}
);
layerId = "9BB73D9E-E1CF-483B-8FF3-2862F5B712F7";
shapes = (
{
closed = 1;
nodes = (
(1336,1198,l),
(1200,1332,o),
(1002,1414,o),
(804,1414,cs),
(390,1414,o),
(68,1102,o),
(68,702,cs),
(68,338,o),
(329,44,o),
(683,-8,c),
(636,-152,l),
(700,-152,ls),
(766,-152,o),
(798,-174,o),
(798,-202,cs),
(798,-226,o),
(770,-252,o),
(716,-252,cs),
(678,-252,o),
(632,-242,o),
(598,-228,c),
(550,-358,l),
(606,-382,o),
(676,-400,o),
(744,-400,cs),
(874,-400,o),
(976,-340,o),
(976,-224,cs),
(976,-152,o),
(930,-84,o),
(814,-66,c),
(833,-15,l),
(1019,-5,o),
(1205,83,o),
(1338,214,c),
(1198,360,l),
(1092,256,o),
(948,192,o),
(808,192,cs),
(528,192,o),
(308,420,o),
(308,704,cs),
(308,990,o),
(528,1216,o),
(808,1216,cs),
(950,1216,o),
(1096,1148,o),
(1198,1036,c)
);
}
);
width = 1394;
},
{
anchors = (
{
name = bottom;
position = "{796, 0}";
},
{
name = top;
position = "{818, 1400}";
}
);
layerId = "60C6F403-B830-40DC-BC91-C1CD2FDD7472";
shapes = (
{
closed = 1;
nodes = (
(1300,1226,l),
(1172,1340,o),
(1003,1408,o),
(819,1408,cs),
(425,1408,o),
(100,1090,o),
(100,701,cs),
(100,329,o),
(400,20,o),
(773,-4,c),
(738,-124,l),
(796,-124,ls),
(870,-124,o),
(912,-178,o),
(912,-234,cs),
(912,-296,o),
(868,-358,o),
(776,-358,cs),
(732,-358,o),
(678,-340,o),
(646,-316,c),
(630,-356,l),
(664,-382,o),
(726,-400,o),
(776,-400,cs),
(894,-400,o),
(954,-316,o),
(954,-234,cs),
(954,-160,o),
(900,-88,o),
(792,-86,c),
(816,-6,l),
(1000,-6,o),
(1174,64,o),
(1302,178,c),
(1274,204,l),
(1154,96,o),
(993,32,o),
(819,32,cs),
(445,32,o),
(138,334,o),
(138,701,cs),
(138,1069,o),
(445,1370,o),
(819,1370,cs),
(993,1370,o),
(1154,1308,o),
(1274,1200,c)
);
}
);
width = 1412;
}
);
leftKerningGroup = O;
rightKerningGroup = C;
unicode = 199;
}
{
glyphname = multiply;
layers = (
{
layerId = "8F4E32AC-E022-4D39-97B2-6A8CA1DCECD9";
shapes = (
{
closed = 1;
nodes = (
(96,432,l),
(294,234,l),
(944,884,l),
(746,1082,l)
);
},
{
closed = 1;
nodes = (
(96,884,l),
(746,234,l),
(944,432,l),
(294,1082,l)
);
}
);
width = 1040;
},
{
layerId = "A0A167AB-9D0E-40C0-91B8-4D2A22A7768E";
shapes = (
{
closed = 1;
nodes = (
(144,400,l),
(250,294,l),
(854,896,l),
(748,1004,l)
);
},
{
closed = 1;
nodes = (
(144,896,l),
(748,294,l),
(854,400,l),
(250,1004,l)
);
}
);
width = 996;
},
{
layerId = "4D1A9A15-4E4F-4ADE-8E9B-C4DB08FE4288";
shapes = (
{
closed = 1;
nodes = (
(184,372,l),
(212,344,l),
(776,908,l),
(748,936,l)
);
},
{
closed = 1;
nodes = (
(184,908,l),
(748,344,l),
(776,372,l),
(212,936,l)
);
}
);
width = 960;
}
);
leftKerningGroup = multiply;
rightKerningGroup = multiply;
unicode = 215;
}
{
glyphname = Oslash;
layers = (
{
anchors = (
{
name = bottom;
position = "{798, -8}";
},
{
name = center;
position = "{798, 692}";
},
{
name = ogonek;
position = "{1288, -8}";
},
{
name = top;
position = "{840, 1400}";
},
{
name = topleft;
position = "{40, 1392}";
},
{
name = topright;
position = "{1120, 1392}";
}
);
layerId = "7132A246-D2BE-45EF-90A2-0D7A42C907F4";
shapes = (
{
closed = 1;
nodes = (
(200,-110,l),
(453,-110,l),
(1398,1508,l),
(1144,1508,l)
);
},
{
closed = 1;
nodes = (
(353,1406,o),
(30,1108,o),
(30,693,cs),
(30,276,o),
(353,-28,o),
(799,-28,cs),
(1244,-28,o),
(1568,278,o),
(1568,693,cs),
(1568,1106,o),
(1244,1406,o),
(799,1406,cs)
);
},
{
closed = 1;
nodes = (
(965,1020,o),
(1092,883,o),
(1092,691,cs),
(1092,499,o),
(965,357,o),
(805,357,cs),
(645,357,o),
(505,499,o),
(505,691,cs),
(505,883,o),
(643,1020,o),
(805,1020,cs)
);
}
);
width = 1598;
},
{
anchors = (
{
name = bottom;
position = "{810, 0}";
},
{
name = center;
position = "{810, 700}";
},
{
name = ogonek;
position = "{1212, 0}";
},
{
name = top;
position = "{810, 1400}";
},
{
name = topleft;
position = "{40, 1400}";
},
{
name = topright;
position = "{1146, 1398}";
}
);
layerId = "D0849346-794E-4F15-8942-BE6C34F6B6A6";
shapes = (
{
closed = 1;
nodes = (
(170,-110,l),
(368,-110,l),
(1450,1510,l),
(1250,1510,l)
);
},
{
closed = 1;
nodes = (
(392,1406,o),
(68,1100,o),
(68,700,cs),
(68,302,o),
(392,-10,o),
(810,-10,cs),
(1228,-10,o),
(1552,302,o),
(1552,700,cs),
(1552,1098,o),
(1228,1406,o),
(810,1406,cs)
);
},
{
closed = 1;
nodes = (
(1086,1206,o),
(1310,984,o),
(1310,700,cs),
(1310,416,o),
(1086,190,o),
(812,190,cs),
(538,190,o),
(308,416,o),
(308,700,cs),
(308,984,o),
(536,1206,o),
(812,1206,cs)
);
}
);
width = 1620;
},
{
anchors = (
{
name = bottom;
position = "{820, 0}";
},
{
name = center;
position = "{820, 700}";
},
{
name = ogonek;
position = "{1184, 0}";
},
{
name = top;
position = "{822, 1400}";
},
{
name = topleft;
position = "{40, 1400}";
},
{
name = topright;
position = "{1158, 1400}";
}
);
layerId = "A37310BC-51AC-4F96-8729-E7F4F8535551";
shapes = (
{
closed = 1;
nodes = (
(200,-110,l),
(242,-110,l),
(1438,1512,l),
(1396,1512,l)
);
},
{
closed = 1;
nodes = (
(425,1400,o),
(100,1086,o),
(100,701,cs),
(100,316,o),
(425,0,o),
(819,0,cs),
(1214,0,o),
(1538,316,o),
(1538,701,cs),
(1538,1086,o),
(1214,1400,o),
(819,1400,cs)
);
},
{
closed = 1;
nodes = (
(1192,1360,o),
(1498,1063,o),
(1498,701,cs),
(1498,338,o),
(1192,40,o),
(819,40,cs),
(447,40,o),
(140,338,o),
(140,701,cs),
(140,1063,o),
(447,1360,o),
(819,1360,cs)
);
}
);
width = 1638;
}
);
leftKerningGroup = O;
rightKerningGroup = O;
unicode = 216;
}
{
glyphname = Thorn;
layers = (
{
layerId = "B026C813-5E74-43B8-9BDA-38360344913A";
shapes = (
{
closed = 1;
nodes = (
(278,1176,l),
(282,1136,l),
(670,1136,ls),
(1044,1136,o),
(1226,1004,o),
(1226,736,cs),
(1226,458,o),
(1044,324,o),
(670,324,cs),
(286,324,l),
(286,284,l),
(670,284,ls),
(1070,284,o),
(1266,432,o),
(1266,736,cs),
(1266,1032,o),
(1070,1176,o),
(670,1176,cs)
);
},
{
closed = 1;
nodes = (
(256,0,l),
(296,0,l),
(296,1400,l),
(256,1400,l)
);
}
);
width = 1326;
},
{
layerId = "ED22C04F-3B1D-41D7-8242-D57D8DACD8E1";
shapes = (
{
closed = 1;
nodes = (
(476,1228,l),
(540,876,l),
(742,876,ls),
(824,876,o),
(878,814,o),
(878,718,cs),
(878,620,o),
(824,556,o),
(742,556,cs),
(540,556,l),
(540,204,l),
(762,204,ls),
(1122,204,o),
(1354,412,o),
(1354,732,cs),
(1354,1034,o),
(1122,1228,o),
(762,1228,cs)
);
},
{
closed = 1;
nodes = (
(100,0,l),
(564,0,l),
(564,1400,l),
(100,1400,l)
);
}
);
width = 1394;
},
{
layerId = "6620CA85-00CC-482E-8046-24C727E4DEBF";
shapes = (
{
closed = 1;
nodes = (
(370,1200,l),
(402,1016,l),
(704,1016,ls),
(942,1016,o),
(1066,916,o),
(1066,728,cs),
(1066,532,o),
(942,432,o),
(704,432,cs),
(404,432,l),
(404,248,l),
(714,248,ls),
(1094,248,o),
(1306,422,o),
(1306,734,cs),
(1306,1032,o),
(1094,1200,o),
(714,1200,cs)
);
},
{
closed = 1;
nodes = (
(184,0,l),
(420,0,l),
(420,1400,l),
(184,1400,l)
);
}
);
width = 1356;
}
);
leftKerningGroup = H;
rightKerningGroup = Thorn;
unicode = 222;
}
{
glyphname = germandbls;
layers = (
{
layerId = "7132A246-D2BE-45EF-90A2-0D7A42C907F4";
shapes = (
{
closed = 1;
nodes = (
(80,0,l),
(530,0,l),
(530,1026,ls),
(530,1126,o),
(570,1170,o),
(658,1170,cs),
(740,1170,o),
(776,1126,o),
(776,1026,cs),
(776,926,o),
(730,882,o),
(624,882,c),
(624,568,l),
(670,568,ls),
(804,568,o),
(864,530,o),
(864,446,cs),
(864,356,o),
(804,316,o),
(670,316,cs),
(624,316,l),
(624,0,l),
(718,0,ls),
(1072,0,o),
(1300,170,o),
(1300,434,cs),
(1300,586,o),
(1204,718,o),
(1056,770,c),
(1150,844,o),
(1212,970,o),
(1212,1094,cs),
(1212,1342,o),
(992,1504,o),
(650,1504,cs),
(304,1504,o),
(80,1304,o),
(80,992,cs)
);
}
);
width = 1340;
},
{
layerId = "D0849346-794E-4F15-8942-BE6C34F6B6A6";
shapes = (
{
closed = 1;
nodes = (
(156,0,l),
(384,0,l),
(384,990,ls),
(384,1190,o),
(490,1318,o),
(662,1318,cs),
(810,1318,o),
(910,1224,o),
(910,1076,cs),
(910,922,o),
(800,822,o),
(628,822,c),
(628,656,l),
(654,656,l),
(856,656,o),
(988,566,o),
(988,412,cs),
(988,270,o),
(876,168,o),
(704,168,cs),
(584,168,l),
(584,0,l),
(686,0,ls),
(1006,0,o),
(1212,176,o),
(1212,420,cs),
(1212,614,o),
(1080,726,o),
(900,762,c),
(1042,814,o),
(1132,950,o),
(1132,1108,cs),
(1132,1342,o),
(940,1494,o),
(666,1494,cs),
(348,1494,o),
(156,1290,o),
(156,974,cs)
);
}
);
width = 1308;
},
{
layerId = "A37310BC-51AC-4F96-8729-E7F4F8535551";
shapes = (
{
closed = 1;
nodes = (
(220,0,l),
(260,0,l),
(260,992,ls),
(260,1266,o),
(418,1444,o),
(662,1444,cs),
(882,1444,o),
(1024,1316,o),
(1024,1120,cs),
(1024,908,o),
(870,770,o),
(632,770,c),
(632,730,l),
(642,730,l),
(918,730,o),
(1096,598,o),
(1096,394,cs),
(1096,180,o),
(924,40,o),
(660,40,cs),
(550,40,l),
(550,0,l),
(660,0,ls),
(950,0,o),
(1136,154,o),
(1136,394,cs),
(1136,586,o),
(990,728,o),
(766,754,c),
(946,788,o),
(1064,932,o),
(1064,1120,cs),
(1064,1342,o),
(906,1484,o),
(662,1484,cs),
(394,1484,o),
(220,1290,o),
(220,992,cs)
);
}
);
width = 1280;
}
);
leftKerningGroup = l;
rightKerningGroup = o;
unicode = 223;
}
{
glyphname = ae;
layers = (
{
layerId = "C2FA2B34-E5FF-4A9E-A195-6C0594ED3608";
associatedMasterId = "E8FC7CDB-EB64-4B8C-83EE-9B2B76976C4E";
name = "Bold Dec 28 15, 16:31";
shapes = (
{
closed = 1;
nodes = (
(1094,654,l),
(1094,446,l),
(1884,446,l),
(1908,850,o),
(1684,1110,o),
(1300,1110,cs),
(970,1110,o),
(776,888,o),
(776,542,cs),
(776,204,o),
(960,-16,o),
(1312,-16,cs),
(1526,-16,o),
(1694,56,o),
(1810,184,c),
(1576,414,l),
(1508,350,o),
(1430,316,o),
(1352,316,cs),
(1230,316,o),
(1152,404,o),
(1152,568,cs),
(1152,704,o),
(1204,810,o),
(1304,810,cs),
(1384,810,o),
(1440,744,o),
(1434,654,c)
);
},
{
closed = 1;
nodes = (
(748,450,l),
(748,658,l),
(456,658,l),
(178,654,o),
(30,540,o),
(30,324,cs),
(30,116,o),
(182,-22,o),
(440,-22,cs),
(678,-22,o),
(836,82,o),
(908,254,c),
(710,350,l),
(672,296,o),
(612,266,o),
(554,266,cs),
(490,266,o),
(452,302,o),
(452,362,cs),
(452,420,o),
(488,450,o),
(550,450,cs)
);
},
{
closed = 1;
nodes = (
(710,228,l),
(1152,228,l),
(1152,708,ls),
(1152,966,o),
(962,1114,o),
(644,1114,cs),
(482,1114,o),
(290,1076,o),
(102,1008,c),
(202,708,l),
(326,754,o),
(454,778,o),
(538,778,cs),
(650,778,o),
(710,732,o),
(710,654,c)
);
}
);
width = 1916;
},
{
layerId = "E8FC7CDB-EB64-4B8C-83EE-9B2B76976C4E";
shapes = (
{
closed = 1;
nodes = (
(644,-22,o),
(790,54,o),
(872,186,c),
(960,58,o),
(1108,-16,o),
(1312,-16,cs),
(1526,-16,o),
(1694,56,o),
(1810,184,c),
(1576,414,l),
(1508,350,o),
(1430,316,o),
(1352,316,cs),
(1268,316,o),
(1155,352,o),
(1155,434,cs),
(1155,617,ls),
(1155,729,o),
(1216,810,o),
(1304,810,cs),
(1384,810,o),
(1440,744,o),
(1434,654,c),
(1030,654,l),
(1030,446,l),
(1884,446,l),
(1908,850,o),
(1684,1110,o),
(1300,1110,cs),
(1178,1110,o),
(1076,1080,o),
(994,1024,c),
(908,1084,o),
(790,1114,o),
(644,1114,cs),
(482,1114,o),
(290,1076,o),
(102,1008,c),
(202,708,l),
(326,754,o),
(454,778,o),
(538,778,cs),
(640,778,o),
(710,741,o),
(710,676,cs),
(710,350,l),
(672,296,o),
(612,266,o),
(554,266,cs),
(490,266,o),
(452,302,o),
(452,362,cs),
(452,420,o),
(488,450,o),
(550,450,cs),
(840,450,l),
(840,658,l),
(456,658,l),
(178,654,o),
(30,540,o),
(30,324,cs),
(30,116,o),
(182,-22,o),
(440,-22,cs)
);
}
);
width = 1916;
},
{
layerId = "8ADAEBB1-28F5-4421-9315-C5A11764C112";
associatedMasterId = "17E3EB7E-1F08-45A4-8E6B-D8F983509A13";
name = "Regular Dec 28 15, 16:31";
shapes = (
{
closed = 1;
nodes = (
(1002,602,l),
(1002,484,l),
(1882,484,l),
(1894,832,o),
(1686,1070,o),
(1354,1070,cs),
(1048,1070,o),
(844,850,o),
(844,530,cs),
(844,210,o),
(1044,-8,o),
(1360,-8,cs),
(1544,-8,o),
(1696,58,o),
(1802,172,c),
(1678,294,l),
(1600,212,o),
(1494,168,o),
(1378,168,cs),
(1178,168,o),
(1038,314,o),
(1038,542,cs),
(1038,754,o),
(1166,910,o),
(1356,910,cs),
(1530,910,o),
(1646,782,o),
(1652,602,c)
);
},
{
closed = 1;
nodes = (
(840,490,l),
(840,608,l),
(486,608,l),
(232,606,o),
(82,500,o),
(82,310,c),
(82,122,o),
(226,-10,o),
(454,-10,c),
(680,-10,o),
(846,90,o),
(926,290,c),
(828,376,l),
(762,206,o),
(648,144,o),
(506,144,c),
(380,144,o),
(298,218,o),
(298,328,c),
(298,432,o),
(382,490,o),
(530,490,c)
);
},
{
closed = 1;
nodes = (
(812,264,l),
(1038,264,l),
(1036,698,l),
(1034,930,o),
(878,1070,o),
(602,1070,c),
(448,1070,o),
(294,1022,o),
(144,940,c),
(202,784,l),
(320,854,o),
(440,894,o),
(554,894,c),
(722,894,o),
(810,812,o),
(810,674,c)
);
}
);
width = 1948;
},
{
layerId = "17E3EB7E-1F08-45A4-8E6B-D8F983509A13";
shapes = (
{
closed = 1;
nodes = (
(668,-10,o),
(824,78,o),
(908,248,c),
(992,84,o),
(1154,-8,o),
(1360,-8,cs),
(1538,-8,o),
(1692,54,o),
(1802,172,c),
(1678,294,l),
(1600,212,o),
(1494,168,o),
(1378,168,cs),
(1200,168,o),
(1042,302,o),
(1042,454,cs),
(1042,618,ls),
(1042,805,o),
(1190,910,o),
(1356,910,cs),
(1526,910,o),
(1646,802,o),
(1652,618,c),
(1012,618,l),
(1012,468,l),
(1882,468,l),
(1894,820,o),
(1682,1070,o),
(1354,1070,cs),
(1200,1070,o),
(1068,1014,o),
(976,910,c),
(904,1014,o),
(774,1070,o),
(602,1070,cs),
(456,1070,o),
(302,1026,o),
(144,940,c),
(202,784,l),
(324,856,o),
(444,894,o),
(554,894,cs),
(718,894,o),
(810,816,o),
(810,674,cs),
(810,338,l),
(748,208,o),
(648,144,o),
(506,144,cs),
(380,144,o),
(298,218,o),
(298,328,cs),
(298,432,o),
(382,468,o),
(530,468,cs),
(842,468,l),
(842,618,l),
(486,618,ls),
(228,618,o),
(82,498,o),
(82,310,cs),
(82,118,o),
(230,-10,o),
(454,-10,cs)
);
}
);
width = 1950;
},
{
layerId = "0A58967E-9348-4E66-9CB2-7BB34A35EBDE";
associatedMasterId = "59F18BB4-F2E3-4803-AEEB-FBD371085F85";
name = "Light Dec 28 15, 16:32";
shapes = (
{
closed = 1;
nodes = (
(924,558,l),
(924,518,l),
(1880,518,l),
(1880,818,o),
(1686,1034,o),
(1400,1034,cs),
(1114,1034,o),
(900,818,o),
(900,518,cs),
(900,216,o),
(1114,0,o),
(1400,0,cs),
(1560,0,o),
(1698,60,o),
(1794,162,c),
(1766,190,l),
(1678,94,o),
(1550,40,o),
(1400,40,cs),
(1134,40,o),
(940,236,o),
(940,518,cs),
(940,798,o),
(1134,994,o),
(1400,994,cs),
(1654,994,o),
(1822,816,o),
(1840,558,c)
);
},
{
closed = 1;
nodes = (
(920,524,l),
(920,564,l),
(512,564,l),
(276,564,o),
(126,466,o),
(126,298,c),
(126,126,o),
(264,0,o),
(464,0,c),
(682,0,o),
(854,96,o),
(942,322,c),
(930,398,l),
(840,130,o),
(680,40,o),
(464,40,c),
(284,40,o),
(166,146,o),
(166,298,c),
(166,442,o),
(292,524,o),
(512,524,c)
);
},
{
closed = 1;
nodes = (
(900,518,l),
(940,518,l),
(936,690,l),
(934,900,o),
(804,1034,o),
(566,1034,c),
(418,1034,o),
(296,974,o),
(178,882,c),
(202,850,l),
(316,938,o),
(426,994,o),
(566,994,c),
(784,994,o),
(894,880,o),
(896,690,c)
);
}
);
width = 1976;
},
{
layerId = "C4068023-B020-4E6E-A136-D5F3D7051C97";
associatedMasterId = "59F18BB4-F2E3-4803-AEEB-FBD371085F85";
name = "Light Dec 28 15, 16:31";
shapes = (
{
closed = 1;
nodes = (
(924,558,l),
(924,518,l),
(1880,518,l),
(1880,818,o),
(1686,1034,o),
(1400,1034,cs),
(1114,1034,o),
(900,818,o),
(900,518,cs),
(900,216,o),
(1114,0,o),
(1400,0,cs),
(1560,0,o),
(1698,60,o),
(1794,162,c),
(1766,190,l),
(1678,94,o),
(1550,40,o),
(1400,40,cs),
(1134,40,o),
(940,236,o),
(940,518,cs),
(940,798,o),
(1134,994,o),
(1400,994,cs),
(1654,994,o),
(1822,816,o),
(1840,558,c)
);
},
{
closed = 1;
nodes = (
(920,524,l),
(920,564,l),
(512,564,l),
(276,564,o),
(126,466,o),
(126,298,c),
(126,126,o),
(264,0,o),
(464,0,c),
(682,0,o),
(854,96,o),
(942,322,c),
(930,398,l),
(840,130,o),
(680,40,o),
(464,40,c),
(284,40,o),
(166,146,o),
(166,298,c),
(166,442,o),
(292,524,o),
(512,524,c)
);
},
{
closed = 1;
nodes = (
(900,518,l),
(940,518,l),
(936,690,l),
(934,900,o),
(804,1034,o),
(566,1034,c),
(418,1034,o),
(296,974,o),
(178,882,c),
(202,850,l),
(316,938,o),
(426,994,o),
(566,994,c),
(784,994,o),
(894,880,o),
(896,690,c)
);
}
);
width = 1976;
},
{
layerId = "59F18BB4-F2E3-4803-AEEB-FBD371085F85";
shapes = (
{
closed = 1;
nodes = (
(684,0,o),
(836,108,o),
(924,320,c),
(994,134,o),
(1182,0,o),
(1400,0,cs),
(1556,0,o),
(1696,58,o),
(1794,162,c),
(1766,190,l),
(1676,92,o),
(1548,40,o),
(1400,40,cs),
(1156,40,o),
(940,240,o),
(940,464,cs),
(940,518,ls),
(940,794,o),
(1135,994,o),
(1400,994,cs),
(1648,994,o),
(1822,822,o),
(1840,558,c),
(925,558,l),
(925,518,l),
(1880,518,l),
(1880,822,o),
(1682,1034,o),
(1400,1034,cs),
(1186,1034,o),
(1008,914,o),
(934,718,c),
(922,918,o),
(786,1034,o),
(566,1034,cs),
(434,1034,o),
(312,986,o),
(178,882,c),
(202,850,l),
(332,950,o),
(442,994,o),
(566,994,cs),
(778,994,o),
(896,886,o),
(896,690,cs),
(896,365,l),
(808,133,o),
(684,40,o),
(464,40,cs),
(286,40,o),
(166,144,o),
(166,298,cs),
(166,442,o),
(292,518,o),
(512,518,cs),
(910,518,l),
(910,558,l),
(512,558,ls),
(272,558,o),
(126,464,o),
(126,298,cs),
(126,124,o),
(266,0,o),
(464,0,cs)
);
}
);
width = 1976;
}
);
leftKerningGroup = a;
rightKerningGroup = e;
unicode = 230;
}
{
glyphname = ccedilla;
layers = (
{
anchors = (
{
name = bottom;
position = "{580, 0}";
},
{
name = top;
position = "{596, 1094}";
}
);
layerId = "3FDA15A3-2E5D-4DE0-8D90-0C5D946D3754";
shapes = (
{
closed = 1;
nodes = (
(1126,794,l),
(1036,994,o),
(846,1110,o),
(608,1110,cs),
(258,1110,o),
(30,886,o),
(30,542,cs),
(30,253,o),
(196,49,o),
(462,-3,c),
(409,-164,l),
(443,-164,ls),
(499,-164,o),
(557,-176,o),
(557,-210,cs),
(557,-236,o),
(521,-248,o),
(477,-248,cs),
(447,-248,o),
(415,-244,o),
(387,-234,c),
(327,-414,l),
(399,-438,o),
(485,-452,o),
(565,-452,cs),
(701,-452,o),
(839,-398,o),
(839,-248,cs),
(839,-174,o),
(793,-114,o),
(673,-82,c),
(700,-10,l),
(903,15,o),
(1057,122,o),
(1126,290,c),
(762,458,l),
(738,376,o),
(692,340,o),
(628,340,cs),
(540,340,o),
(484,420,o),
(484,544,cs),
(484,666,o),
(540,746,o),
(628,746,cs),
(692,746,o),
(740,708,o),
(768,642,c)
);
}
);
width = 1122;
},
{
anchors = (
{
name = bottom;
position = "{578, 0}";
},
{
name = top;
position = "{608, 1062}";
}
);
layerId = "9BB73D9E-E1CF-483B-8FF3-2862F5B712F7";
shapes = (
{
closed = 1;
nodes = (
(1046,906,l),
(948,1010,o),
(798,1070,o),
(606,1070,cs),
(290,1070,o),
(70,850,o),
(70,530,cs),
(70,248,o),
(241,45,o),
(498,1,c),
(449,-152,l),
(513,-152,ls),
(579,-152,o),
(611,-174,o),
(611,-202,cs),
(611,-226,o),
(583,-252,o),
(529,-252,cs),
(491,-252,o),
(445,-242,o),
(411,-228,c),
(363,-358,l),
(419,-382,o),
(489,-400,o),
(557,-400,cs),
(687,-400,o),
(789,-340,o),
(789,-224,cs),
(789,-152,o),
(743,-84,o),
(627,-66,c),
(649,-7,l),
(830,2,o),
(969,71,o),
(1058,182,c),
(930,308,l),
(858,222,o),
(750,178,o),
(616,178,cs),
(432,178,o),
(300,320,o),
(300,530,cs),
(300,738,o),
(432,880,o),
(616,880,cs),
(744,880,o),
(846,834,o),
(920,758,c)
);
}
);
width = 1128;
},
{
anchors = (
{
name = bottom;
position = "{578, 0}";
},
{
name = top;
position = "{558, 1034}";
}
);
layerId = "60C6F403-B830-40DC-BC91-C1CD2FDD7472";
shapes = (
{
closed = 1;
nodes = (
(958,896,l),
(868,982,o),
(744,1034,o),
(606,1034,cs),
(318,1034,o),
(104,818,o),
(104,518,cs),
(104,233,o),
(294,25,o),
(557,2,c),
(520,-124,l),
(578,-124,ls),
(652,-124,o),
(694,-178,o),
(694,-234,cs),
(694,-296,o),
(650,-358,o),
(558,-358,cs),
(514,-358,o),
(460,-340,o),
(428,-316,c),
(412,-356,l),
(446,-382,o),
(508,-400,o),
(558,-400,cs),
(676,-400,o),
(736,-316,o),
(736,-234,cs),
(736,-160,o),
(682,-88,o),
(574,-86,c),
(599,0,l),
(751,0,o),
(890,60,o),
(980,162,c),
(954,190,l),
(870,94,o),
(748,40,o),
(606,40,cs),
(338,40,o),
(142,236,o),
(142,518,cs),
(142,798,o),
(338,994,o),
(606,994,cs),
(736,994,o),
(846,946,o),
(932,868,c)
);
}
);
width = 1114;
}
);
leftKerningGroup = o;
rightKerningGroup = c;
unicode = 231;
}
